<svg xmlns="http://www.w3.org/2000/svg" width="314.9" height="196.581" viewBox="0 0 314.9 196.581"><path d="M311.82,62.513,242.528,196.581,65.752,163.093l-.349-.064-10.02-1.9L10.357,152.6,0,150.638,14.351,121.5l2.421-4.915,2.274-4.613.205-.419,3.81-7.737,16.1-32.7.809-1.644L41.1,67.194l.258-.525.574-1.169L45.2,58.868l5.873-11.922,1.023-2.078,4.642-9.428L74.189,0Z" fill="#3f3d56"/><path d="M412.027,265.48a41.829,41.829,0,1,0-59.155,59.155l59.155,59.155,59.155-59.155a41.829,41.829,0,1,0-59.155-59.155Z" transform="translate(-259.185 -212.604)" fill="#ffe563"/><path d="M780.082,380.366l-.414-.414,1.036-1.037-1.036-1.036.414-.414,1.451,1.45Z" transform="translate(-551.176 -266.844)" fill="#d0cde1"/><path d="M657.868,561.123l-.414-.414,2.464-2.464.414.414ZM662.8,556.2l-.414-.414,2.464-2.464.414.414Zm4.928-4.928-.414-.414,2.464-2.464.414.414Zm4.928-4.928-.414-.414,2.464-2.464.414.414Zm4.928-4.928-.414-.414,2.464-2.464.414.414Zm4.928-4.928-.414-.414,2.464-2.464.414.414Zm4.928-4.928-.414-.414,2.464-2.464.414.414Zm4.927-4.927-.414-.414,2.464-2.464.414.414Zm4.928-4.928-.414-.414,2.464-2.464.414.414Zm4.928-4.928-.414-.414,2.464-2.464.414.414Zm4.928-4.928-.414-.414,2.464-2.464.414.414Z" transform="translate(-483.166 -393.396)" fill="#d0cde1"/><path d="M579.269,581.181l-1.451-1.45.414-.414,1.036,1.036,1.036-1.036.414.414Z" transform="translate(-408.481 -409.54)" fill="#d0cde1"/><path d="M507.346,561.123l-2.464-2.464.414-.414,2.464,2.464Zm-4.928-4.928-2.464-2.464.414-.414,2.464,2.464Zm-4.928-4.928-2.464-2.464.414-.414,2.464,2.464Zm-4.928-4.928-2.464-2.464.414-.414,2.464,2.464Zm-4.928-4.928-2.464-2.464.414-.414L488.049,541Zm-4.928-4.928-2.464-2.464.414-.414,2.464,2.464Zm-4.928-4.927-2.464-2.464.414-.414,2.464,2.464Zm-4.928-4.928-2.464-2.464.414-.414,2.464,2.464Zm-4.927-4.928-2.464-2.464.414-.414,2.464,2.464ZM463,516.774l-2.464-2.464.414-.414,2.464,2.464Zm-4.928-4.928-2.464-2.464.414-.414,2.464,2.464Z" transform="translate(-340.472 -393.396)" fill="#d0cde1"/><path d="M380.954,380.366l-1.451-1.451,1.451-1.45.414.414-1.036,1.036,1.036,1.037Z" transform="translate(-268.285 -266.844)" fill="#d0cde1"/><path d="M456.019,359.273l-.414-.414,2.464-2.464.414.414Zm4.928-4.928-.414-.414L463,351.467l.414.414Zm4.928-4.928L465.46,349l2.464-2.464.414.414Zm4.928-4.928-.414-.414,2.464-2.464.414.414Zm4.928-4.928-.414-.414,2.464-2.464.414.414Zm4.928-4.928-.414-.414,2.464-2.464.414.414Zm4.928-4.928-.414-.414,2.464-2.464.414.414Zm4.928-4.928-.414-.414,2.464-2.464.414.414Zm4.928-4.928-.414-.414,2.464-2.464.414.414Zm4.928-4.928-.414-.414,2.464-2.464.414.414ZM505.3,310l-.414-.414,2.464-2.464.414.414Z" transform="translate(-340.472 -250.701)" fill="#d0cde1"/><path d="M580.3,181.016l-1.036-1.036-1.036,1.036-.414-.415,1.451-1.45,1.45,1.45Z" transform="translate(-408.481 -126.648)" fill="#d0cde1"/><path d="M709.194,359.272l-2.464-2.464.414-.414,2.464,2.464Zm-4.928-4.928-2.464-2.464.414-.414,2.464,2.464Zm-4.928-4.928-2.464-2.464.414-.414L699.753,349Zm-4.928-4.928-2.464-2.464.414-.414,2.464,2.464Zm-4.927-4.928L687.02,337.1l.414-.414,2.464,2.464Zm-4.928-4.928-2.464-2.464.414-.414,2.464,2.464Zm-4.928-4.928-2.464-2.464.414-.414,2.464,2.464Zm-4.928-4.928-2.464-2.464.414-.414,2.464,2.464Zm-4.928-4.928-2.464-2.464.414-.414,2.464,2.464Zm-4.928-4.928-2.464-2.464.414-.414,2.464,2.464ZM659.918,310l-2.464-2.464.414-.414,2.464,2.464Z" transform="translate(-483.166 -250.701)" fill="#d0cde1"/><path d="M442.094,336.605c-1.186-.025-2.387-.1-3.568-.226l.062-.583c1.165.123,2.349.2,3.519.222Zm3.574-.076-.037-.585c1.168-.074,2.348-.2,3.506-.372l.086.58c-1.175.175-2.371.3-3.555.377Zm-10.679-.675c-1.167-.224-2.337-.5-3.479-.823l.159-.564c1.126.318,2.28.591,3.43.812Zm17.745-.379-.135-.57c1.141-.271,2.283-.593,3.393-.959l.183.557c-1.126.37-2.284.7-3.441.972Zm-24.62-1.56c-1.111-.418-2.218-.889-3.289-1.4l.252-.529c1.056.5,2.147.969,3.243,1.381Zm31.408-.674-.23-.539c1.078-.46,2.148-.972,3.181-1.521l.275.517c-1.048.557-2.133,1.076-3.227,1.543Zm-37.853-2.4c-1.022-.6-2.032-1.253-3-1.939l.339-.479c.956.677,1.952,1.32,2.96,1.912Zm44.163-.952-.318-.492c.982-.635,1.95-1.322,2.877-2.041l.359.463C467.809,328.545,466.828,329.241,465.832,329.886Zm-49.989-3.174c-.9-.764-1.79-1.577-2.632-2.419l.414-.414c.831.83,1.7,1.632,2.6,2.385Zm55.638-1.2-.4-.432c.425-.391.85-.8,1.264-1.213s.827-.845,1.228-1.281l.432.4c-.406.442-.825.879-1.245,1.3s-.852.834-1.282,1.23Zm-60.692-3.844c-.769-.909-1.507-1.86-2.193-2.826l.478-.339c.676.953,1.4,1.891,2.162,2.787Zm65.527-1.417-.464-.359c.718-.927,1.4-1.894,2.037-2.875l.492.318C477.738,318.326,477.043,319.306,476.315,320.246Zm-69.664-4.412c-.6-1.024-1.168-2.086-1.68-3.157l.529-.253c.5,1.056,1.062,2.1,1.657,3.113Zm73.54-1.584-.517-.275c.549-1.033,1.06-2.1,1.519-3.18l.539.23c-.466,1.092-.984,2.177-1.541,3.225Zm-76.624-4.862c-.419-1.112-.8-2.254-1.119-3.4l.564-.159c.318,1.126.689,2.253,1.1,3.349Zm79.425-1.709-.557-.183c.365-1.111.687-2.253.958-3.392l.57.135c-.274,1.156-.6,2.313-.971,3.441Zm-81.37-5.167c-.225-1.165-.4-2.354-.528-3.536l.583-.062c.124,1.165.3,2.339.521,3.487Zm83.016-1.784-.58-.086c.172-1.159.3-2.338.371-3.506l.585.037C484.94,298.358,484.813,299.554,484.639,300.728Zm-83.772-5.32q-.01-.458-.01-.916c0-.883.028-1.777.083-2.658l.585.037c-.055.869-.082,1.751-.082,2.622q0,.452.01.9Zm83.639-1.8c-.025-1.17-.1-2.354-.223-3.519l.583-.062c.125,1.182.2,2.382.226,3.568Zm-82.611-5.247-.58-.086c.174-1.174.4-2.355.674-3.511l.57.135C402.29,286.042,402.066,287.207,401.894,288.364Zm81.868-1.759c-.221-1.151-.495-2.3-.812-3.431l.564-.159c.323,1.142.6,2.313.824,3.479Zm-80.248-5.1-.557-.183c.37-1.129.794-2.255,1.258-3.346l.539.23C404.3,279.286,403.879,280.4,403.514,281.509Zm78.335-1.685c-.413-1.1-.878-2.187-1.383-3.244l.529-.253c.512,1.071.984,2.178,1.4,3.29Zm-75.577-4.795-.518-.275c.556-1.047,1.164-2.084,1.809-3.082l.493.318C407.42,272.974,406.82,274,406.272,275.029Zm72.539-1.563c-.593-1.009-1.238-2.006-1.915-2.961l.478-.339c.687.969,1.341,1.98,1.942,3Zm-68.72-4.352-.464-.359c.725-.937,1.5-1.856,2.305-2.733l.432.4C411.571,267.284,410.806,268.191,410.091,269.114Zm64.644-1.4c-.755-.893-1.558-1.766-2.387-2.6l-.031-.031.412-.417.039.039c.835.835,1.649,1.72,2.415,2.626Zm-59.88-3.793-.4-.431c.875-.807,1.794-1.584,2.73-2.311l.359.463C416.625,262.362,415.719,263.129,414.856,263.924Zm54.863-1.218c-.9-.755-1.834-1.48-2.787-2.155l.338-.479c.967.684,1.918,1.419,2.827,2.186Zm-49.3-3.1-.319-.492c1-.645,2.033-1.256,3.082-1.815l.276.517C422.429,258.365,421.406,258.967,420.424,259.6Zm43.547-.963c-1.009-.592-2.057-1.148-3.114-1.651l.252-.529c1.071.511,2.134,1.074,3.158,1.675Zm-37.327-2.349-.23-.539c1.091-.466,2.217-.891,3.346-1.263l.183.557C428.829,255.412,427.72,255.831,426.644,256.291Zm30.971-.682c-1.1-.412-2.222-.781-3.35-1.1l.159-.564c1.143.322,2.286.7,3.4,1.114Zm-24.28-1.524-.135-.57c1.155-.275,2.336-.5,3.511-.679l.087.58c-1.158.173-2.323.4-3.462.669Zm17.5-.383c-1.15-.22-2.323-.394-3.487-.516l.061-.583c1.181.124,2.371.3,3.536.524Zm-10.531-.66-.037-.585c1.186-.076,2.386-.1,3.574-.078l-.012.586c-1.172-.024-2.356,0-3.525.077Z" transform="translate(-301.768 -211.998)" fill="#d0cde1"/><path d="M643.944,336.6c-1.186-.025-2.387-.1-3.568-.226l.062-.583c1.165.123,2.349.2,3.518.222Zm3.575-.076-.037-.585c1.168-.074,2.347-.2,3.506-.372l.086.58c-1.175.175-2.371.3-3.555.377Zm-10.678-.675c-1.167-.224-2.337-.5-3.479-.823l.159-.564c1.126.318,2.28.591,3.43.812Zm17.745-.379-.135-.57c1.141-.271,2.283-.593,3.393-.959l.183.557c-1.126.37-2.284.7-3.441.972Zm-24.62-1.56c-1.11-.418-2.217-.889-3.289-1.4l.252-.529c1.057.5,2.148.969,3.243,1.381Zm31.408-.673-.23-.539c1.078-.46,2.148-.972,3.181-1.521l.275.517c-1.048.557-2.134,1.076-3.227,1.543Zm-37.853-2.4c-1.023-.6-2.033-1.253-3-1.939l.339-.479c.955.677,1.951,1.32,2.959,1.912Zm44.163-.952-.318-.492c.981-.635,1.949-1.321,2.877-2.04l.359.463c-.94.73-1.922,1.426-2.917,2.069Zm-49.989-3.174c-.9-.763-1.789-1.576-2.632-2.418l.414-.415c.832.831,1.705,1.633,2.6,2.386Zm55.639-1.2-.4-.432c.425-.391.85-.8,1.264-1.213s.831-.848,1.228-1.281l.432.4c-.4.439-.822.875-1.245,1.3s-.852.834-1.282,1.23Zm-60.693-3.844c-.769-.909-1.507-1.86-2.193-2.826l.478-.339c.676.953,1.4,1.891,2.162,2.787Zm65.527-1.417-.464-.359c.718-.927,1.4-1.894,2.037-2.875l.492.318c-.643.995-1.338,1.975-2.066,2.915ZM608.5,315.833c-.6-1.023-1.167-2.085-1.68-3.157l.529-.253c.506,1.057,1.063,2.1,1.657,3.113Zm73.54-1.584-.517-.275c.549-1.033,1.06-2.1,1.519-3.18l.539.23C683.117,312.117,682.6,313.2,682.042,314.249Zm-76.624-4.862c-.419-1.111-.8-2.253-1.119-3.4l.564-.159c.319,1.127.69,2.254,1.1,3.349Zm79.425-1.709-.557-.183c.366-1.111.687-2.253.958-3.392l.57.135C685.54,305.394,685.213,306.552,684.843,307.679Zm-81.369-5.167c-.225-1.164-.4-2.354-.529-3.536l.583-.062c.124,1.166.3,2.339.521,3.487Zm83.016-1.784-.58-.086c.172-1.159.3-2.338.371-3.506l.585.037C686.79,298.357,686.664,299.553,686.489,300.728Zm-83.772-5.32q-.01-.458-.01-.916c0-.882.028-1.776.084-2.658l.585.037c-.055.87-.082,1.752-.082,2.622q0,.452.01.9Zm83.639-1.8c-.025-1.173-.1-2.357-.223-3.519l.583-.062c.125,1.178.2,2.379.226,3.568Zm-82.61-5.247-.58-.086c.174-1.176.4-2.357.674-3.511l.571.135C604.141,286.04,603.917,287.2,603.745,288.364Zm81.868-1.76c-.221-1.151-.495-2.3-.812-3.431l.564-.159c.322,1.142.6,2.313.824,3.479Zm-80.249-5.1-.557-.183c.37-1.129.794-2.255,1.258-3.346l.539.23C606.147,279.285,605.73,280.4,605.364,281.509Zm78.335-1.685c-.412-1.1-.878-2.186-1.383-3.244l.529-.253c.512,1.072.984,2.179,1.4,3.29Zm-75.577-4.795-.518-.275c.556-1.048,1.165-2.085,1.809-3.082l.492.318C609.271,272.973,608.671,274,608.123,275.029Zm72.539-1.563c-.594-1.01-1.238-2.007-1.915-2.961l.478-.339c.687.969,1.34,1.979,1.942,3Zm-68.72-4.352-.464-.359c.726-.938,1.5-1.857,2.305-2.733l.432.4c-.793.863-1.558,1.77-2.273,2.695Zm64.644-1.4c-.755-.893-1.558-1.766-2.387-2.595l-.031-.031.412-.417.034.034c.84.84,1.654,1.725,2.42,2.631Zm-59.88-3.793-.4-.431c.875-.806,1.794-1.584,2.731-2.311l.359.463C618.475,262.362,617.569,263.129,616.707,263.924Zm54.863-1.218c-.9-.755-1.834-1.48-2.787-2.155l.338-.479c.967.684,1.918,1.42,2.827,2.186Zm-49.294-3.1-.319-.492c1-.646,2.034-1.256,3.082-1.815l.275.517c-1.034.55-2.056,1.152-3.039,1.789Zm43.547-.963c-1.008-.591-2.056-1.147-3.114-1.651l.253-.529c1.073.511,2.135,1.075,3.158,1.675Zm-37.328-2.349-.23-.539c1.091-.466,2.217-.891,3.345-1.263l.184.557c-1.113.367-2.223.786-3.3,1.246Zm30.971-.681c-1.094-.411-2.221-.781-3.349-1.1l.159-.564c1.144.322,2.287.7,3.4,1.114Zm-24.279-1.524-.136-.57c1.156-.275,2.337-.5,3.511-.678l.086.58c-1.157.173-2.322.4-3.462.669Zm17.5-.383c-1.15-.22-2.323-.394-3.487-.516l.061-.583c1.181.124,2.37.3,3.537.524Zm-10.531-.66-.038-.585c1.186-.076,2.387-.1,3.575-.078l-.012.586c-1.171-.024-2.357,0-3.525.077Z" transform="translate(-444.463 -211.997)" fill="#d0cde1"/><rect width="1.758" height="0.586" transform="translate(26.43 171.057)" fill="#d0cde1"/><path d="M448.849,698.881h-3.518v-.586h3.518Zm-7.036,0H438.3v-.586h3.518Zm-7.036,0H431.26v-.586h3.518Zm-7.036,0h-3.518v-.586h3.518Zm-7.036,0h-3.518v-.586h3.518Zm-7.036,0h-3.518v-.586h3.518Zm-7.036,0h-3.518v-.586h3.518Zm-7.036,0H396.08v-.586H399.6Zm-7.036,0h-3.518v-.586h3.518Zm-7.036,0h-3.518v-.586h3.518Zm-7.036,0h-3.518v-.586h3.518Zm-7.036,0h-3.518v-.586h3.518Zm-7.036,0H360.9v-.586h3.518Zm-7.036,0h-3.518v-.586h3.518Zm-7.036,0h-3.518v-.586h3.518Zm-7.036,0h-3.518v-.586h3.518Zm-7.036,0h-3.518v-.586h3.518Zm-7.036,0h-3.518v-.586h3.518Zm-7.036,0h-3.517v-.586H322.2Zm-7.036,0H311.65v-.586h3.518Zm-7.036,0h-3.518v-.586h3.518Zm-7.036,0h-3.518v-.586H301.1Zm-7.036,0h-3.518v-.586h3.518Zm-7.036,0h-3.517v-.586h3.518Zm-7.036,0H276.47v-.586h3.518Zm-7.036,0h-3.518v-.586h3.518Zm-7.036,0H262.4v-.586h3.518Zm-7.036,0h-3.518v-.586h3.518Zm-7.036,0h-3.518v-.586h3.518Zm-7.036,0h-3.518v-.586h3.518Zm-7.036,0h-3.518v-.586h3.518Zm-7.036,0h-3.517v-.586h3.518Zm-7.036,0h-3.518v-.586H223.7Zm-7.036,0h-3.518v-.586h3.518Zm-7.036,0h-3.518v-.586h3.518Zm-7.036,0h-3.518v-.586h3.518Zm-7.036,0H192.04v-.586h3.518Zm-7.036,0H185v-.586h3.518Zm-7.036,0h-3.518v-.586h3.518Zm-7.036,0h-3.518v-.586h3.518Z" transform="translate(-139.226 -527.238)" fill="#d0cde1"/><rect width="1.758" height="0.586" transform="translate(313.141 171.057)" fill="#d0cde1"/><path d="M198.956,550.253l.044-.135.841-2.558-10.861.659Z" transform="translate(-133.597 -387.09)" fill="#ffb9b9"/><path d="M243.741,492.813l6.6,16.8s-.6,14.4,7.2,13.2-1.2-15.6-1.2-15.6l-4.8-17.4S245.541,488.613,243.741,492.813Z" transform="translate(-190.697 -379.742)" fill="#ffb9b9"/><circle cx="10.8" cy="10.8" r="10.8" transform="translate(31.143 37.77)" fill="#ffb9b9"/><path d="M163.236,291.6s-3.6,12-6,12,16.2,7.2,16.2,7.2-4.8-4.8,0-13.8Z" transform="translate(-129.393 -239.732)" fill="#ffb9b9"/><path d="M153.086,524.473l.393-.07c3.153-.569,5.164-1.24,5.293-2.022.249-1.5-1.89-9.331-4.472-17.968-2.9-9.674-6.345-20.356-7.623-24.28-.322-.993-.507-1.553-.507-1.553l-1.155-7.224-1.246-7.775-29.4,7.8-4.2,7.2-.894,2.608v0l-1.316,3.848-2.594,7.582-7.283,21.288,45.026,8.531Z" transform="translate(-87.727 -361.31)" fill="#2f2e41"/><path d="M134.383,326.364s8.32,2.209,10.76,4.7l4.24,2.5,5.4,11.4s4.2,1.8,4.2,9.6,6,21,6,21,4.2,3.6,1.2,5.4a14.458,14.458,0,0,1-6.6,1.8s3-11.4-3-12-9-1.2-9.6,0-16.8,18.6-23.4,16.8-3-19.8-3-19.8l5.4-42s4.2-.6,6.6,0S134.383,326.364,134.383,326.364Z" transform="translate(-102.94 -263.694)" fill="#575a89"/><circle cx="1.814" cy="1.814" r="1.814" transform="translate(37.418 145.038)" fill="#cfcce0"/><path d="M147.5,588.673l1.807,1.6,17.62,5.633.264-.476-10.223-5.676a3.265,3.265,0,1,1,.7-1.269l10.223,5.676.264-.476-14.1-11.977-2.253-.8.631-1.137-1.586-.88-1.233,2.22-9.357-5.195-3.17,5.709,9.357,5.195-1.233,2.22,1.586.88Z" transform="translate(-115.302 -440.726)" fill="#cfcce0"/><path d="M100.426,492.813l6.6,16.8s-.6,14.4,7.2,13.2-1.2-15.6-1.2-15.6l-4.8-17.4S102.226,488.613,100.426,492.813Z" transform="translate(-89.383 -379.742)" fill="#ffb9b9"/><path d="M97.891,323.88l-1.2-.6s-3.6-3.6-7.8,1.2-8.4,30-8.4,30v7.8s-4.8,6.6-.6,10.2,4.8,4.2,4.8,4.2,4.2-6,9-3l.6-2.4a7.425,7.425,0,0,0,1.2-1.8c.6-1.2,1.8.6,1.2-1.2a4.684,4.684,0,0,1,0-3c0-.6.6-3.6.6-3.6l-.6-18.6Z" transform="translate(-73.648 -261.21)" fill="#575a89"/><path d="M131.19,221.693s8.774-19.129-14.156-19.109c0,0-14.068-7.39-24.781,9.749L81.2,230.353l2.825-.561.359,2.812,3.6,2.211,2.711-2.8-.448,4.289L121.3,249.49s-11.708-12.965-7.191-28.25l1.833,3.742Z" transform="translate(-75.79 -175.682)" fill="#2f2e41"/><ellipse cx="1.516" cy="3.032" rx="1.516" ry="3.032" transform="translate(34.978 48.598)" fill="#ffb9b9"/></svg>