<svg xmlns="http://www.w3.org/2000/svg" width="298.894" height="253.058" viewBox="0 0 298.894 253.058">
  <g id="explainthree" transform="translate(0)">
    <path id="Path_305" data-name="Path 305" d="M277.56,275.469C202.5,269.757,112.987,211.6,117.544,151.713S208.8,36.08,283.856,41.793,402.122,159.419,397.567,219.3,352.621,281.181,277.56,275.469Z" transform="translate(-117.377 -41.388)" fill="#f2f2f2"/>
    <rect id="Rectangle_169" data-name="Rectangle 169" width="142.442" height="147.396" transform="translate(0.386 21.988)" fill="#3f3d56"/>
    <path id="Path_306" data-name="Path 306" d="M283.118,254.405c-.235-.005-.47-.009-.705-.009a29.712,29.712,0,1,0,26.148,15.575l-24.6,18.487Z" transform="translate(-210.806 -188.437)" fill="none"/>
    <path id="Path_307" data-name="Path 307" d="M280.239,241.667a29.731,29.731,0,1,1-26.148-15.575c.236,0,.471,0,.705.009l-.314-12.7c-.13,0-.26,0-.391,0a42.411,42.411,0,1,0,36.376,20.585Z" transform="translate(-182.484 -160.133)" fill="#6c63ff"/>
    <path id="Path_308" data-name="Path 308" d="M375.643,241.678l10.227-7.686a42.4,42.4,0,0,0-35.985-20.58l.314,12.7A29.723,29.723,0,0,1,375.643,241.678Z" transform="translate(-277.888 -160.144)" fill="#6c63ff" opacity="0.3"/>
    <line id="Line_11" data-name="Line 11" x2="14.897" y2="15.038" transform="translate(92.939 132.361)" fill="none" stroke="#2f2e41" stroke-miterlimit="10" stroke-width="2"/>
    <line id="Line_12" data-name="Line 12" x1="10.354" y2="18.462" transform="translate(92.733 40.229)" fill="none" stroke="#2f2e41" stroke-miterlimit="10" stroke-width="2"/>
    <rect id="Rectangle_170" data-name="Rectangle 170" width="24.463" height="5.574" transform="translate(95.76 147.399)" fill="#f2f2f2"/>
    <rect id="Rectangle_171" data-name="Rectangle 171" width="24.463" height="5.574" transform="translate(90.186 34.684)" fill="#f2f2f2"/>
    <rect id="Rectangle_172" data-name="Rectangle 172" width="142.442" height="59.454" transform="translate(156.452 20.749)" fill="#3f3d56"/>
    <path id="Path_309" data-name="Path 309" d="M770.718,213.595h-16.1a56.319,56.319,0,0,1,0-19.2h16.1a34.545,34.545,0,0,0,0,19.2Z" transform="translate(-556.722 -147.016)" fill="#ff6584"/>
    <path id="Path_310" data-name="Path 310" d="M916.049,213.595h-16.1a56.316,56.316,0,0,1,0-19.2h16.1a34.545,34.545,0,0,0,0,19.2Z" transform="translate(-657.05 -147.016)" fill="#ff6584"/>
    <path id="Path_311" data-name="Path 311" d="M696.888,171.595h-16.1a56.316,56.316,0,0,1,0-19.2h16.1a34.545,34.545,0,0,0,0,19.2Z" transform="translate(-505.754 -118.022)" fill="#6c63ff"/>
    <path id="Path_312" data-name="Path 312" d="M827.623,171.595h16.1a56.316,56.316,0,0,0,0-19.2h-16.1a34.546,34.546,0,0,1,0,19.2Z" transform="translate(-607.691 -118.022)" fill="#6c63ff"/>
    <path id="Path_313" data-name="Path 313" d="M970.623,171.595h16.1a56.316,56.316,0,0,0,0-19.2h-16.1a34.546,34.546,0,0,1,0,19.2Z" transform="translate(-706.41 -118.022)" fill="#6c63ff"/>
    <path id="Path_314" data-name="Path 314" d="M708.821,789.614c0,6.175-28.853,18.336-64.254,18.336s-63.944-12.161-63.944-18.336,28.543-4.026,63.944-4.026S708.821,783.439,708.821,789.614Z" transform="translate(-437.176 -554.893)" fill="#3f3d56"/>
    <path id="Path_315" data-name="Path 315" d="M708.821,789.614c0,6.175-28.853,18.336-64.254,18.336s-63.944-12.161-63.944-18.336,28.543-4.026,63.944-4.026S708.821,783.439,708.821,789.614Z" transform="translate(-437.176 -554.893)" opacity="0.1"/>
    <ellipse id="Ellipse_67" data-name="Ellipse 67" cx="64.099" cy="11.181" rx="64.099" ry="11.181" transform="translate(143.292 223.574)" fill="#3f3d56"/>
    <ellipse id="Ellipse_68" data-name="Ellipse 68" cx="50.164" cy="8.75" rx="50.164" ry="8.75" transform="translate(157.226 226.004)" opacity="0.1"/>
    <path id="Path_316" data-name="Path 316" d="M677.888,542.595h-16.1a56.319,56.319,0,0,1,0-19.2h16.1A34.544,34.544,0,0,0,677.888,542.595Z" transform="translate(-492.637 -374.14)" fill="#6c63ff"/>
    <path id="Path_317" data-name="Path 317" d="M859.981,271.444l2.214,1.107s11.994,30.078,7.935,37.274-16.792,20.667-16.792,20.667l-2.4-6.827,9.811-21.27Z" transform="translate(-623.788 -200.206)" fill="#575a89"/>
    <path id="Path_318" data-name="Path 318" d="M859.981,271.444l2.214,1.107s11.994,30.078,7.935,37.274-16.792,20.667-16.792,20.667l-2.4-6.827,9.811-21.27Z" transform="translate(-623.788 -200.206)" opacity="0.1"/>
    <path id="Path_319" data-name="Path 319" d="M852.127,757.1s3.137,7.2,1.476,7.75a18.849,18.849,0,0,1-5.72.554c-2.03,0-4.429-.738-4.8-1.476s1.476-5.536,1.476-5.536Z" transform="translate(-618.332 -535.478)" fill="#f2f2f2"/>
    <path id="Path_320" data-name="Path 320" d="M714.814,766.142s2.03,6.458,1.107,6.827-3.875,2.03-5.536,1.476a19.1,19.1,0,0,1-4.8-2.4c-.554-.554,0-3.506,0-3.506l2.583-3.691Z" transform="translate(-523.275 -540.826)" fill="#f2f2f2"/>
    <path id="Path_321" data-name="Path 321" d="M749.717,453.58l2.645.923s.676,6.274-.062,8.488-2.4,18.268-1.476,21.589.369,8.673.369,8.673,5.536,18.083,4.429,21.958-.923,9.411.185,12.179,2.03,3.875,1.476,6.089-1.661,3.321-.554,5.167,3.321,2.4,2.214,4.06-2.214,2.952-1.845,4.06-9.78,3.137-10.7,1.476c0,0,2.952-2.583,0-4.06s-2.03-7.012-2.03-7.012-5.167-21.22-4.982-22.881-8.119-27.494-8.119-27.494S719.086,523.7,718.347,525.36s.923,5.72,0,6.827.369,3.875-.923,4.982,2.214,5.167,0,6.643-3.321,6.089-3.137,7.012-9.226-.185-9.226-1.476a9.385,9.385,0,0,0-.738-4.613c-.923-2.214-1.476-3.69-.738-4.429s1.292-1.661.554-4.244,1.107-10.518.554-11.994-.369-11.44-.369-11.44,1.845-14.577,1.292-16.976a5.908,5.908,0,0,1,.185-3.875c.185-.923,1.292-10.887,2.03-12.363s1.661-26.756,5.9-28.048S749.717,453.58,749.717,453.58Z" transform="translate(-521.826 -324.216)" fill="#2f2e41"/>
    <path id="Path_322" data-name="Path 322" d="M833,768.928s6.643-1.107,7.012,0,1.476,9.78-1.107,9.964-7.012.738-7.75-.923-4.244-2.768-4.244-2.768-5.167-1.476-5.167-3.137.185-4.244,1.107-4.429,4.613-2.214,4.613-2.952S833,768.928,833,768.928Z" transform="translate(-603.63 -540.66)" fill="#2f2e41"/>
    <path id="Path_323" data-name="Path 323" d="M692.3,777s4.8-1.476,5.9-.554,2.583,11.071,0,10.887-9.411.923-9.78-.554-5.351-1.845-5.351-1.845-5.351-2.583-4.982-5.351.923-3.69,3.137-3.875,3.875-2.768,4.06-2.952,1.811-1.533,2.013-.029S689.9,777.55,692.3,777Z" transform="translate(-504.448 -545.776)" fill="#2f2e41"/>
    <circle id="Ellipse_69" data-name="Ellipse 69" cx="11.256" cy="11.256" r="11.256" transform="translate(191.724 29.904)" fill="#ffb9b9"/>
    <path id="Path_324" data-name="Path 324" d="M774.69,182.654s.738,12.363,3.506,13.47-14.024,1.107-14.024,1.107-.185-7.75-2.583-9.6S774.69,182.654,774.69,182.654Z" transform="translate(-561.93 -138.91)" fill="#ffb9b9"/>
    <path id="Path_325" data-name="Path 325" d="M753.2,214.239s-11.441-4.244-15.5,2.4c0,0-12.917,6.089-13.839,9.78s7.75,31.369,7.75,31.369,0,22.881-1.845,25.28-5.351,4.982-2.952,5.536,40.042,4.613,39.857,2.214-2.583-4.429,0-5.9.369-3.137,2.03-7.935,5.72-44.47,5.72-44.47-2.768-4.982-3.321-5.536S753.2,214.239,753.2,214.239Z" transform="translate(-536.011 -159.793)" fill="#575a89"/>
    <path id="Path_326" data-name="Path 326" d="M704.314,478.222s-7.2,16.238-.923,18.452,5.9-17.161,5.9-17.161Z" transform="translate(-520.156 -342.954)" fill="#ffb9b9"/>
    <path id="Path_327" data-name="Path 327" d="M754.352,144.322c-.652-1.307-1.629-2.816-3.088-2.736a5.332,5.332,0,0,0-2.031.836,2.078,2.078,0,0,1-2.1.116c-.879-.628-.607-2.118-1.393-2.859-.859-.809-2.586-.357-3.14-1.4-.3-.556-.057-1.246-.186-1.863a6.708,6.708,0,0,1-2.659-.309,2.034,2.034,0,0,1-.707-3.606c1.134-1.031,2.775-1.229,4.175-1.855,1.114-.5,2.083-1.274,3.177-1.812a11.883,11.883,0,0,1,6.152-.946,14.052,14.052,0,0,1,8.687,3.5,8.686,8.686,0,0,1,2.528,8.695c-.563,1.714-1.755,3.155-2.42,4.832a16.915,16.915,0,0,0-.843,3.544l-.467,2.866c.073-.446-.907-1.565-1.228-1.831-.7-.581-1.72-.384-2.37-.921C755.474,147.774,754.918,145.456,754.352,144.322Z" transform="translate(-545.973 -101.068)" fill="#2f2e41"/>
    <path id="Path_328" data-name="Path 328" d="M718.372,252.139l-2.952,1.845s-4.8,28.97-4.244,33.03-2.214,26.941-1.292,28.786,1.292,2.214,1.292,3.321-2.583,5.167-.923,5.9,7.75,2.03,7.75,0-1.107-4.8.923-6.089,3.506-9.6,3.506-9.6.923-8.488,1.845-10.149,2.214-7.75,2.214-10.333,2.214-13.1.923-18.452S725.753,250.663,718.372,252.139Z" transform="translate(-526.28 -186.806)" opacity="0.1"/>
    <path id="Path_329" data-name="Path 329" d="M714.2,250.352l-2.952,1.845s-4.8,28.97-4.244,33.03-2.214,26.941-1.292,28.786S707,316.227,707,317.334s-2.583,5.167-.923,5.9,7.75,2.03,7.75,0-1.107-4.8.923-6.089,3.506-9.6,3.506-9.6.923-8.488,1.845-10.149,2.214-7.75,2.214-10.333,2.214-13.1.923-18.452S721.581,248.875,714.2,250.352Z" transform="translate(-523.4 -185.572)" fill="#575a89"/>
  </g>
</svg>
