<svg xmlns="http://www.w3.org/2000/svg" width="318.022" height="233.519" viewBox="0 0 318.022 233.519"><g transform="translate(0)"><path d="M144.935,74.868l-16.617,27.16a20.54,20.54,0,0,1-21.431,35.028L89.219,165.934,259.67,270.219l55.716-91.066Z" transform="translate(-89.188 -74.868)" fill="#f2f2f2"/><circle cx="13.384" cy="13.384" r="13.384" transform="translate(17.044 30.998)" fill="#f2f2f2"/><ellipse cx="47.31" cy="3.112" rx="47.31" ry="3.112" transform="translate(107.306 217.436)" fill="#f2f2f2"/><ellipse cx="22.099" cy="1.454" rx="22.099" ry="1.454" transform="translate(52.526 230.611)" fill="#f2f2f2"/><ellipse cx="47.31" cy="3.112" rx="47.31" ry="3.112" transform="translate(201.303 210.278)" fill="#f2f2f2"/><line x2="315.918" transform="translate(2.104 208.41)" fill="none" stroke="#2f2e41" stroke-miterlimit="10" stroke-width="2"/><rect width="227.212" height="153.446" transform="translate(57.039 54.809)" fill="#3f3d56"/><line x2="227.212" transform="translate(57.039 66.032)" fill="none" stroke="#2f2e41" stroke-miterlimit="10" stroke-width="2"/><circle cx="2.801" cy="2.801" r="2.801" transform="translate(61.241 57.61)" fill="#ffd563"/><circle cx="2.801" cy="2.801" r="2.801" transform="translate(69.645 57.766)" fill="#ffd563"/><circle cx="2.801" cy="2.801" r="2.801" transform="translate(78.049 57.921)" fill="#ffd563"/><rect width="191.729" height="37.35" transform="translate(71.201 76.441)" fill="#ffd563" opacity="0.3"/><line y1="37.35" x2="191.729" transform="translate(71.201 76.441)" fill="none" stroke="#ffd563" stroke-miterlimit="10" stroke-width="2" opacity="0.3"/><line x1="191.729" y1="37.35" transform="translate(71.201 76.441)" fill="none" stroke="#ffd563" stroke-miterlimit="10" stroke-width="2" opacity="0.3"/><rect width="45.754" height="60.071" transform="translate(71.201 137.445)" fill="#ffd563" opacity="0.3"/><rect width="45.754" height="60.071" transform="translate(217.177 137.445)" fill="#ffd563" opacity="0.3"/><rect width="45.754" height="60.071" transform="translate(144.189 137.445)" fill="#ffd563" opacity="0.3"/><line x2="45.754" y2="60.071" transform="translate(71.201 137.445)" fill="none" stroke="#ffd563" stroke-miterlimit="10" stroke-width="2" opacity="0.3"/><line x1="45.754" y2="60.071" transform="translate(71.201 137.445)" fill="none" stroke="#ffd563" stroke-miterlimit="10" stroke-width="2" opacity="0.3"/><line x2="45.754" y2="60.071" transform="translate(144.345 137.445)" fill="none" stroke="#ffd563" stroke-miterlimit="10" stroke-width="2" opacity="0.3"/><line x1="45.754" y2="60.071" transform="translate(144.345 137.445)" fill="none" stroke="#ffd563" stroke-miterlimit="10" stroke-width="2" opacity="0.3"/><line x2="45.754" y2="60.071" transform="translate(217.177 137.445)" fill="none" stroke="#ffd563" stroke-miterlimit="10" stroke-width="2" opacity="0.3"/><line x1="45.754" y2="60.071" transform="translate(217.177 137.445)" fill="none" stroke="#ffd563" stroke-miterlimit="10" stroke-width="2" opacity="0.3"/><rect width="191.729" height="37.35" transform="translate(96.724 76.441)" fill="#ffd563"/><rect width="45.754" height="60.071" transform="translate(225.892 151.763)" fill="#ffd563"/><rect width="32.37" height="3.735" transform="translate(232.584 159.7)" fill="#3f3d56"/><rect width="32.37" height="3.735" transform="translate(232.584 167.792)" fill="#3f3d56"/><rect width="32.37" height="3.735" transform="translate(232.584 175.885)" fill="#3f3d56"/><rect width="32.37" height="3.735" transform="translate(232.584 183.977)" fill="#3f3d56"/><rect width="32.37" height="3.735" transform="translate(232.584 192.07)" fill="#3f3d56"/><rect width="32.37" height="3.735" transform="translate(232.584 200.162)" fill="#3f3d56"/><rect width="45.754" height="60.071" transform="translate(82.406 145.538)" fill="#ffd563"/><rect width="32.37" height="3.735" transform="translate(89.098 165.614)" fill="#3f3d56"/><rect width="32.37" height="3.735" transform="translate(89.098 173.706)" fill="#3f3d56"/><rect width="32.37" height="3.735" transform="translate(89.098 181.798)" fill="#3f3d56"/><path d="M696.618,355.668c0,6.993-4.157,9.435-9.286,9.435q-.178,0-.356,0c-.238-.005-.473-.016-.705-.032-4.628-.328-8.224-2.895-8.224-9.4,0-6.731,8.6-15.224,9.247-15.853h0l.037-.036S696.618,348.675,696.618,355.668Z" transform="translate(-494.743 -257.325)" fill="#3f3d56"/><path d="M698.534,364.034l3.4-4.746-3.4,5.267-.009.545c-.238-.005-.473-.016-.706-.032l.366-7,0-.054.006-.01.035-.661-3.413-5.28,3.424,4.784.008.14.277-5.286-2.922-5.456,2.958,4.528.288-10.96v0l-.048,8.643,2.909-3.426-2.921,4.171-.077,4.733,2.716-4.542-2.728,5.239-.043,2.631,3.943-6.322-3.958,7.241Z" transform="translate(-506.283 -257.325)" fill="#ffd563"/><circle cx="7.293" cy="7.293" r="7.293" transform="translate(18.301 98.294)" fill="#2f2e41"/><path d="M158.238,429.707s.11,4.5-.329,4.612,6.039,1.867,6.039,1.867l.659-6.149Z" transform="translate(-136.483 -319.264)" fill="#a0616a"/><path d="M323.089,551.876s4.831,0,4.941-.549,1.1,4.5,1.1,4.5l-1.977.659s-3.733-1.647-4.063-1.647S323.089,551.876,323.089,551.876Z" transform="translate(-250.165 -403.001)" fill="#a0616a"/><path d="M335.973,540.773s-.878-2.965-1.976-3.075c0,0,3.733-2.416,3.843-3.184s1.427-2.745,1.977-2.086.549,11.09-.439,12.188-5.38-1.543-5.38-1.543S336.742,541.872,335.973,540.773Z" transform="translate(-257.779 -389.922)" fill="#2f2e41"/><path d="M57.719,619.783l-.878,4.722,4.063.659v-5.381Z" transform="translate(-39.149 -426.876)" fill="#a0616a"/><path d="M144.139,704.091s-.659-2.086-1.1-1.757a5.625,5.625,0,0,0-.988,2.965c.11.549.878,4.831.549,5.6s1.647,4.722,4.173,4.392a2.364,2.364,0,0,0,2.306-2.526l-.878-3.4-.329-5.381S145.018,703.542,144.139,704.091Z" transform="translate(-125.569 -507.012)" fill="#2f2e41"/><circle cx="3.018" cy="3.018" r="3.018" transform="translate(20.025 94.894)" fill="#2f2e41"/><path d="M148.835,377.514a3.018,3.018,0,0,1,2.7-3,3.018,3.018,0,1,0,0,6,3.018,3.018,0,0,1-2.7-3Z" transform="translate(-129.815 -281.237)" fill="#2f2e41"/><circle cx="4.612" cy="4.612" r="4.612" transform="translate(20.986 104.294)" fill="#a0616a"/><path d="M142.08,526.52a44.22,44.22,0,0,0,1.1,8.345c.878,2.855,4.045,23.187,3.387,24.724s-4.045,18.539-3.277,19.527,4.392.659,4.392.659L152.6,559.15s-.971-22.748,7.155-23.3,21.412-.878,21.412-.878,8.565,2.526,12.408,2.416a13.669,13.669,0,0,1,6.039.988l.659-4.5-17.02-3.733s-15.592-5.38-24.157-3.953A65.921,65.921,0,0,1,142.08,526.52Z" transform="translate(-125.596 -385.551)" fill="#2f2e41"/><path d="M138.267,439.182s-1.318-.769-1.647,0-2.635,1.427-3.514.769-3.075.22-3.075.22l-2.416,7.137s1.208,6.149,2.306,9.553,1.537,10.431,1.1,11.09,8.784,3.294,13.286,1.647,5.49-3.514,5.49-3.514-4.941-7.027-3.294-10.322a10,10,0,0,0,.329-7.027L147.49,445l-3.733-2.086s-.22-1.976-1.1-1.976S138.267,439.182,138.267,439.182Z" transform="translate(-115.634 -325.554)" fill="#d0cde1"/><path d="M183.263,458.988h1.647a3.686,3.686,0,0,1,1.1,3.4c-.439,2.086-2.42,9-2.42,9l-1.643-4.281Z" transform="translate(-153.054 -339.431)" fill="#d0cde1"/><path d="M196.638,515.644s3.286,3.558.87,5.425-3.011-4.282-3.011-4.282Z" transform="translate(-161.699 -378.453)" fill="#a0616a"/><path d="M185.815,491.8l.769,3.075,1.318,2.416s4.5,2.965,4.5,4.063c0,0-1.976-2.526-4.5,0l-2.251-5.435Z" transform="translate(-155.605 -362.029)" fill="#d0cde1"/><ellipse cx="5.03" cy="3.018" rx="5.03" ry="3.018" transform="translate(21.413 101.024)" fill="#2f2e41"/><path d="M142.08,407.59s3.514-1.977,4.941-.549-4.282,3.624-4.282,3.624Z" transform="translate(-125.596 -303.296)" fill="#a0616a"/><path d="M104.287,419.075l-.769-.549s-.878-1.318-1.647-.878S96.6,416,96.6,416s1.647.769,1.647-.549.22-1.1,1.318-1.1,1.1.549,1.537-.22.22-1.208.988-.769a1.541,1.541,0,0,0,1.867-.22c.22-.329,4.173-.878,4.173-.878a47.281,47.281,0,0,0-1.867-4.831c-.329-.329-8.784,3.4-8.784,3.4s-10.651,2.965-7.906,6.369,12.628,8.565,12.628,8.565Z" transform="translate(-89.12 -303.91)" fill="#d0cde1"/><rect width="45.754" height="60.071" transform="translate(134.074 160.478)" fill="#ffd563"/><rect width="20.542" height="20.542" transform="translate(146.679 169.971)" fill="#3f3d56"/><rect width="36.105" height="2.49" transform="translate(138.898 194.871)" fill="#3f3d56"/><rect width="36.105" height="2.49" transform="translate(138.898 201.718)" fill="#3f3d56"/><rect width="36.105" height="2.49" transform="translate(138.898 208.566)" fill="#3f3d56"/><path d="M325.084,777.076c0,4.538-2.7,6.123-6.026,6.123l-.231,0c-.154,0-.307-.011-.458-.021-3-.213-5.337-1.879-5.337-6.1,0-4.368,5.582-9.88,6-10.287h0l.024-.023S325.084,772.538,325.084,777.076Z" transform="translate(-243.339 -551.412)" fill="#ffd563"/><path d="M326.327,782.505l2.2-3.08-2.21,3.418-.006.354c-.154,0-.307-.011-.458-.021l.238-4.54,0-.035,0-.007.022-.429-2.215-3.426,2.222,3.1.005.091.18-3.431-1.9-3.54,1.919,2.938.187-7.112v0l-.031,5.609,1.888-2.223-1.9,2.707-.05,3.071L328.2,773l-1.77,3.4-.028,1.708,2.559-4.1-2.569,4.7Z" transform="translate(-250.828 -551.412)" fill="#3f3d56"/></g></svg>