<svg id="explainfour" xmlns="http://www.w3.org/2000/svg" xmlns:xlink="http://www.w3.org/1999/xlink" width="326.616" height="251.986" viewBox="0 0 326.616 251.986">
  <defs>
    <linearGradient id="linear-gradient" x1="0.5" y1="1" x2="0.5" gradientUnits="objectBoundingBox">
      <stop offset="0" stop-color="gray" stop-opacity="0.251"/>
      <stop offset="0.54" stop-color="gray" stop-opacity="0.122"/>
      <stop offset="1" stop-color="gray" stop-opacity="0.102"/>
    </linearGradient>
    <linearGradient id="linear-gradient-2" y1="1" y2="-0.001" xlink:href="#linear-gradient"/>
  </defs>
  <path id="Path_331" data-name="Path 331" d="M317.668,133.1c-13.6,8.6-31.234,8.04-46.687,3.57s-29.652-12.443-44.7-18.106A157.873,157.873,0,0,0,187,109.311c-19.19-1.984-40.619.431-53.991,14.334-14.89,15.485-13.749,43.417,2.357,57.625,8.191,7.23,18.92,10.777,28.275,16.421s18.01,15.019,17.215,25.915c-.736,10.086-9.31,17.827-18.183,22.683-6.86,3.753-15.308,7.85-16.135,15.624-.8,7.522,6.3,13.417,13.086,16.768a81.29,81.29,0,0,0,71.425-.277c7.863-3.962,15.093-9.23,23.339-12.317,21.654-8.108,45.51.055,68.437,3.039a150.938,150.938,0,0,0,58.21-3.83c11.353-3.029,22.75-7.661,30.726-16.289,5.75-6.223,9.326-14.1,12.7-21.869q5.38-12.44,10.343-25.053c1.988-5.049,3.943-10.195,4.454-15.6.929-9.786-2.984-19.46-8.32-27.722a82.722,82.722,0,0,0-122.531-18.6" transform="translate(-112.78 -92.472)" fill="#6c63ff" opacity="0.1"/>
  <ellipse id="Ellipse_70" data-name="Ellipse 70" cx="43.655" cy="8.535" rx="43.655" ry="8.535" transform="translate(0 234.916)" fill="#6c63ff" opacity="0.1"/>
  <ellipse id="Ellipse_71" data-name="Ellipse 71" cx="91.509" cy="8.535" rx="91.509" ry="8.535" transform="translate(81.832 217.089)" fill="#6c63ff" opacity="0.1"/>
  <path id="Path_332" data-name="Path 332" d="M824.35,455.062s12.829-22.725,32.16-29.266a39.547,39.547,0,0,0,20.026-14.98,66.644,66.644,0,0,0,5.911-10.635" transform="translate(-588.894 -290.208)" fill="none" stroke="#535461" stroke-miterlimit="10" stroke-width="2"/>
  <path id="Path_333" data-name="Path 333" d="M1016.456,366.993c-2.2,2.135-12.456,4.345-12.456,4.345s2.518-10.179,4.718-12.317a5.555,5.555,0,1,1,7.738,7.973Z" transform="translate(-710.768 -261.221)" fill="#6c63ff"/>
  <path id="Path_334" data-name="Path 334" d="M997.666,421.192c-3.01.595-12.816-3.123-12.816-3.123s7.645-7.178,10.651-7.776a5.557,5.557,0,1,1,2.165,10.9Z" transform="translate(-697.777 -296.994)" fill="#6c63ff"/>
  <path id="Path_335" data-name="Path 335" d="M938.987,483.723c-2.894-1-9.487-9.162-9.487-9.162s10.224-2.341,13.121-1.338a5.557,5.557,0,1,1-3.634,10.5Z" transform="translate(-660.227 -339.59)" fill="#6c63ff"/>
  <path id="Path_336" data-name="Path 336" d="M875.8,518.881c-3.026-.5-10.9-7.432-10.9-7.432s9.68-4.033,12.707-3.538a5.554,5.554,0,0,1-1.807,10.96Z" transform="translate(-616.403 -363.263)" fill="#6c63ff"/>
  <path id="Path_337" data-name="Path 337" d="M958.26,398.566c0,3.068,5.551,11.967,5.551,11.967s5.557-8.9,5.56-11.964a5.557,5.557,0,0,0-11.111,0Z" transform="translate(-679.738 -285.436)" fill="#6c63ff"/>
  <path id="Path_338" data-name="Path 338" d="M887.775,437.4c.917,2.927,8.873,9.757,8.873,9.757s2.644-10.15,1.727-13.076a5.56,5.56,0,0,0-10.613,3.319Z" transform="translate(-631.74 -310.558)" fill="#6c63ff"/>
  <path id="Path_339" data-name="Path 339" d="M825.954,490.14c.408,3.042,7.1,11.118,7.1,11.118s4.319-9.555,3.911-12.6a5.555,5.555,0,1,0-11.012,1.479Z" transform="translate(-589.948 -346.965)" fill="#6c63ff"/>
  <path id="Path_340" data-name="Path 340" d="M1016.456,366.993c-2.2,2.135-12.456,4.345-12.456,4.345s2.518-10.179,4.718-12.317a5.555,5.555,0,1,1,7.738,7.973Z" transform="translate(-710.768 -261.221)" opacity="0.25"/>
  <path id="Path_341" data-name="Path 341" d="M997.666,421.192c-3.01.595-12.816-3.123-12.816-3.123s7.645-7.178,10.651-7.776a5.557,5.557,0,1,1,2.165,10.9Z" transform="translate(-697.777 -296.994)" opacity="0.25"/>
  <path id="Path_342" data-name="Path 342" d="M938.987,483.723c-2.894-1-9.487-9.162-9.487-9.162s10.224-2.341,13.121-1.338a5.557,5.557,0,1,1-3.634,10.5Z" transform="translate(-660.227 -339.59)" opacity="0.25"/>
  <path id="Path_343" data-name="Path 343" d="M875.8,518.881c-3.026-.5-10.9-7.432-10.9-7.432s9.68-4.033,12.707-3.538a5.554,5.554,0,0,1-1.807,10.96Z" transform="translate(-616.403 -363.263)" opacity="0.25"/>
  <path id="Path_344" data-name="Path 344" d="M958.26,398.566c0,3.068,5.551,11.967,5.551,11.967s5.557-8.9,5.56-11.964a5.557,5.557,0,0,0-11.111,0Z" transform="translate(-679.738 -285.436)" opacity="0.25"/>
  <path id="Path_345" data-name="Path 345" d="M887.775,437.4c.917,2.927,8.873,9.757,8.873,9.757s2.644-10.15,1.727-13.076a5.56,5.56,0,0,0-10.613,3.319Z" transform="translate(-631.74 -310.558)" opacity="0.25"/>
  <path id="Path_346" data-name="Path 346" d="M825.954,490.14c.408,3.042,7.1,11.118,7.1,11.118s4.319-9.555,3.911-12.6a5.555,5.555,0,1,0-11.012,1.479Z" transform="translate(-589.948 -346.965)" opacity="0.25"/>
  <path id="Path_347" data-name="Path 347" d="M826.65,413.938s2.518-25.973,17.524-39.786a39.557,39.557,0,0,0,12.24-21.811,66.573,66.573,0,0,0,1.093-12.112" transform="translate(-590.454 -249.538)" fill="none" stroke="#535461" stroke-miterlimit="10" stroke-width="2"/>
  <path id="Path_348" data-name="Path 348" d="M929.315,297.323c-1.148,2.846-9.626,9-9.626,9s-1.827-10.327-.679-13.186a5.554,5.554,0,0,1,10.291,4.152Z" transform="translate(-652.854 -215.388)" fill="#6c63ff"/>
  <path id="Path_349" data-name="Path 349" d="M931.19,351.361c-2.508,1.766-12.98,2.341-12.98,2.341s4.081-9.648,6.59-11.427a5.554,5.554,0,1,1,6.39,9.086Z" transform="translate(-652.568 -250.239)" fill="#6c63ff"/>
  <path id="Path_350" data-name="Path 350" d="M897.535,432.548c-3.055.257-12.385-4.531-12.385-4.531s8.4-6.281,11.456-6.538a5.554,5.554,0,0,1,.929,11.07Z" transform="translate(-630.141 -304.643)" fill="#6c63ff"/>
  <path id="Path_351" data-name="Path 351" d="M855.693,489.937c-2.968.769-12.974-2.373-12.974-2.373s7.217-7.612,10.185-8.381a5.555,5.555,0,0,1,2.788,10.754Z" transform="translate(-601.356 -343.681)" fill="#6c63ff"/>
  <path id="Path_352" data-name="Path 352" d="M882.872,351.628c1.245,2.8,9.925,8.683,9.925,8.683s1.476-10.381.235-13.186a5.556,5.556,0,1,0-10.159,4.5Z" transform="translate(-628.271 -251.972)" fill="#6c63ff"/>
  <path id="Path_353" data-name="Path 353" d="M834.3,415.976c2.026,2.3,12.07,5.323,12.07,5.323s-1.7-10.349-3.721-12.655a5.561,5.561,0,1,0-8.362,7.333Z" transform="translate(-594.701 -294.664)" fill="#6c63ff"/>
  <path id="Path_354" data-name="Path 354" d="M799.156,489.257c1.608,2.615,11,7.287,11,7.287s.077-10.487-1.528-13.1a5.555,5.555,0,1,0-9.468,5.815Z" transform="translate(-571.245 -344.895)" fill="#6c63ff"/>
  <path id="Path_355" data-name="Path 355" d="M281.84,0V226.879H445.022V0Z" transform="translate(-191.199)" fill="url(#linear-gradient)"/>
  <rect id="Rectangle_173" data-name="Rectangle 173" width="160.32" height="8.648" transform="translate(92.072 1.991)" fill="#f6f7f9"/>
  <g id="Group_4" data-name="Group 4" transform="translate(92.072 1.991)" opacity="0.2">
    <rect id="Rectangle_174" data-name="Rectangle 174" width="160.32" height="8.648" fill="#6c63ff"/>
  </g>
  <rect id="Rectangle_175" data-name="Rectangle 175" width="160.32" height="214.249" transform="translate(92.072 10.639)" fill="#f6f7f9"/>
  <circle id="Ellipse_72" data-name="Ellipse 72" cx="1.467" cy="1.467" r="1.467" transform="translate(94.822 4.847)" fill="#f6f7f9"/>
  <circle id="Ellipse_73" data-name="Ellipse 73" cx="1.467" cy="1.467" r="1.467" transform="translate(98.797 4.847)" fill="#f6f7f9"/>
  <circle id="Ellipse_74" data-name="Ellipse 74" cx="1.467" cy="1.467" r="1.467" transform="translate(102.772 4.847)" fill="#f6f7f9"/>
  <g id="Group_5" data-name="Group 5" transform="translate(120.685 23.847)" opacity="0.2">
    <rect id="Rectangle_176" data-name="Rectangle 176" width="103.09" height="4.036" fill="#6c63ff"/>
  </g>
  <rect id="Rectangle_177" data-name="Rectangle 177" width="13.697" height="4.036" transform="translate(210.078 23.847)" fill="#6c63ff"/>
  <g id="Group_6" data-name="Group 6" transform="translate(105.911 106.329)" opacity="0.2">
    <rect id="Rectangle_178" data-name="Rectangle 178" width="64.874" height="46.469" fill="#6c63ff" opacity="0.2"/>
  </g>
  <g id="Group_7" data-name="Group 7" transform="translate(105.911 46.05)" opacity="0.2">
    <rect id="Rectangle_179" data-name="Rectangle 179" width="64.874" height="46.469" fill="#6c63ff" opacity="0.2"/>
  </g>
  <g id="Group_8" data-name="Group 8" transform="translate(105.911 165.822)" opacity="0.2">
    <rect id="Rectangle_180" data-name="Rectangle 180" width="64.874" height="46.469" fill="#6c63ff" opacity="0.2"/>
  </g>
  <g id="Group_9" data-name="Group 9" transform="translate(173.679 106.329)" opacity="0.2">
    <rect id="Rectangle_181" data-name="Rectangle 181" width="64.874" height="46.469" fill="#6c63ff" opacity="0.2"/>
  </g>
  <g id="Group_10" data-name="Group 10" transform="translate(173.679 46.05)" opacity="0.2">
    <rect id="Rectangle_182" data-name="Rectangle 182" width="64.874" height="46.469" fill="#6c63ff" opacity="0.2"/>
  </g>
  <g id="Group_11" data-name="Group 11" transform="translate(173.679 165.822)" opacity="0.2">
    <rect id="Rectangle_183" data-name="Rectangle 183" width="64.874" height="46.469" fill="#6c63ff" opacity="0.2"/>
  </g>
  <path id="Path_356" data-name="Path 356" d="M1010.483,692.73s2.3,3-1.058,7.529-6.11,8.362-5,11.179c0,0,5.059-8.413,9.179-8.529S1015.014,697.789,1010.483,692.73Z" transform="translate(-710.886 -488.672)" fill="#3acc6c"/>
  <path id="Path_357" data-name="Path 357" d="M1010.751,692.73a3.7,3.7,0,0,1,.47.939c4.02,4.721,6.159,9.127,2.3,9.24-3.6.1-7.915,6.535-8.947,8.159a3.552,3.552,0,0,0,.122.37s5.059-8.413,9.179-8.529S1015.283,697.789,1010.751,692.73Z" transform="translate(-711.155 -488.672)" opacity="0.1"/>
  <path id="Path_358" data-name="Path 358" d="M1035.941,703.192c0,1.055-.119,1.91-.264,1.91s-.267-.855-.267-1.91.148-.56.3-.56S1035.941,702.134,1035.941,703.192Z" transform="translate(-732.076 -495.311)" fill="#ffd037"/>
  <path id="Path_359" data-name="Path 359" d="M1037.795,707.013c-.926.5-1.737.81-1.8.682s.624-.643,1.55-1.148.563-.135.643,0S1038.721,706.518,1037.795,707.013Z" transform="translate(-732.467 -497.871)" fill="#ffd037"/>
  <path id="Path_360" data-name="Path 360" d="M975.241,692.73s-2.3,3,1.058,7.529,6.11,8.362,5,11.179c0,0-5.059-8.413-9.179-8.529S970.7,697.789,975.241,692.73Z" transform="translate(-687.763 -488.672)" fill="#3acc6c"/>
  <path id="Path_361" data-name="Path 361" d="M975.241,692.73a3.7,3.7,0,0,0-.47.939c-4.02,4.721-6.159,9.127-2.3,9.24,3.6.1,7.915,6.535,8.947,8.159a2.918,2.918,0,0,1-.122.37s-5.059-8.413-9.179-8.529S970.7,697.789,975.241,692.73Z" transform="translate(-687.763 -488.672)" opacity="0.1"/>
  <path id="Path_362" data-name="Path 362" d="M972.84,703.192c0,1.055.119,1.91.267,1.91s.264-.855.264-1.91-.148-.56-.293-.56S972.84,702.134,972.84,703.192Z" transform="translate(-689.629 -495.311)" fill="#ffd037"/>
  <path id="Path_363" data-name="Path 363" d="M967.082,707.013c.929.5,1.737.81,1.807.682s-.627-.643-1.553-1.148-.563-.135-.643,0S966.156,706.518,967.082,707.013Z" transform="translate(-685.335 -497.871)" fill="#ffd037"/>
  <ellipse id="Ellipse_75" data-name="Ellipse 75" cx="23.992" cy="3.682" rx="23.992" ry="3.682" transform="translate(269.546 238.357)" fill="#6c63ff" opacity="0.1"/>
  <path id="Path_364" data-name="Path 364" d="M991.239,735.393l-.116.936-.161,1.325-.068.55-.161,1.325-.071.553L990.5,741.4l-1.836,15.051c-.164,1.344-2.357,2.39-5.007,2.39H974.12c-2.65,0-4.824-1.045-5-2.39l-1.84-15.057-.161-1.322-.068-.553-.164-1.325-.068-.55-.161-1.325-.116-.936c-.09-.743,1.11-1.386,2.6-1.386h19.512C990.142,734,991.332,734.643,991.239,735.393Z" transform="translate(-685.352 -516.67)" fill="#65617d"/>
  <path id="Path_365" data-name="Path 365" d="M899.158,683.01,899,684.332H874.851l-.161-1.322Z" transform="translate(-593.386 -463.351)" fill="#9d9cb5"/>
  <path id="Path_366" data-name="Path 366" d="M899.411,688.84l-.161,1.325H875.564l-.164-1.325Z" transform="translate(-593.868 -467.306)" fill="#9d9cb5"/>
  <path id="Path_367" data-name="Path 367" d="M899.668,694.67l-.161,1.325H876.281l-.161-1.325Z" transform="translate(-594.356 -471.261)" fill="#9d9cb5"/>
  <path id="Path_368" data-name="Path 368" d="M683.762,226.074s-.589-1.47,3.38-1.1,15.363,1.634,20.29.524,7.863-1.463,7.571,0-8.526,4.769-8.526,4.769l-10.661,1.1-7.863-1.251-4.223-2.5Z" transform="translate(-493.498 -171.045)" fill="#6c63ff"/>
  <path id="Path_369" data-name="Path 369" d="M715.035,225.49c-.3,1.463-8.526,4.769-8.526,4.769l-10.661,1.1-7.863-1.248-4.219-2.5.029-1.544a.643.643,0,0,1,.225-.711c.363-.322,1.212-.572,3.155-.392,3.972.367,15.363,1.631,20.29.521,4.014-.9,6.709-1.306,7.4-.643a.643.643,0,0,1,.174.643Z" transform="translate(-493.521 -171.039)" opacity="0.1"/>
  <path id="Path_370" data-name="Path 370" d="M709.008,255a46.019,46.019,0,0,0-18.917,8.378,3.509,3.509,0,0,0-1.508-1.791,5.3,5.3,0,0,0-1.531-.643,1.542,1.542,0,0,0-1.4.6,7.924,7.924,0,0,0-1.245,1.843c-7.5-5.146-18.869-8.429-18.869-8.429v-1.029a5.686,5.686,0,0,1,.074-.724c.039-.277.087-.521.148-.82.965-4.908,4.779-16.122,4.779-16.122h4.313L683.215,238l9.407-.576,9.474-1.971,1.229-.257c2.049,1.608,4.374,12.864,5.287,17.656.116.608.206,1.11.273,1.479C708.966,254.754,709.008,255,709.008,255Z" transform="translate(-481.158 -178.286)" fill="#6c63ff"/>
  <path id="Path_371" data-name="Path 371" d="M667.11,255.107c.248-4.711,3.991-14.922,4.625-16.617h-1.18s-4.039,11.9-4.859,16.543a.115.115,0,0,0,0,.035c-.023.125-.045.248-.061.363-.039.277-.064.521-.074.724v1.029s11.372,3.287,18.869,8.429a7.924,7.924,0,0,1,1.245-1.843C682.808,261.166,671.941,256.921,667.11,255.107Z" transform="translate(-481.172 -180.518)" fill="#6c63ff"/>
  <path id="Path_372" data-name="Path 372" d="M757.506,254.3c-.029-.164-.064-.354-.1-.563-.048-.27-.106-.576-.17-.917h0c-.913-4.8-3.239-16.058-5.287-17.656l-1.228.257c.746,2,5.554,15.086,5.146,17.64-8.04,1.608-16.19,6.834-18.653,8.5a3.509,3.509,0,0,1,1.508,1.791,46.019,46.019,0,0,1,18.917-8.378S757.587,254.726,757.506,254.3Z" transform="translate(-529.779 -178.259)" fill="#6c63ff"/>
  <path id="Path_373" data-name="Path 373" d="M668.03,254.194c.244-4.712,3.991-14.922,4.625-16.614h-1.183s-4.039,11.9-4.859,16.54v.035q-.035.193-.058.367c-.039.277-.064.521-.074.724v1.029s11.369,3.284,18.869,8.429a7.786,7.786,0,0,1,1.241-1.843C683.724,260.263,672.861,256.008,668.03,254.194Z" transform="translate(-481.796 -179.9)" opacity="0.1"/>
  <path id="Path_374" data-name="Path 374" d="M667.11,255.107c.248-4.711,3.991-14.922,4.625-16.617h-1.18s-4.039,11.9-4.859,16.543a.115.115,0,0,0,0,.035c-.023.125-.045.248-.061.363-.039.277-.064.521-.074.724v1.029s11.372,3.287,18.869,8.429a7.924,7.924,0,0,1,1.245-1.843C682.808,261.166,671.941,256.921,667.11,255.107Z" transform="translate(-481.172 -180.518)" fill="#6c63ff"/>
  <path id="Path_375" data-name="Path 375" d="M756.6,253.375l-.1-.563c-.052-.27-.106-.572-.17-.917h0c-.91-4.8-3.239-16.054-5.287-17.656l-1.225.26c.746,2,5.554,15.086,5.146,17.64-8.04,1.608-16.193,6.834-18.653,8.5a3.515,3.515,0,0,1,1.508,1.795,45.971,45.971,0,0,1,18.914-8.381S756.684,253.813,756.6,253.375Z" transform="translate(-529.168 -177.634)" opacity="0.1"/>
  <path id="Path_376" data-name="Path 376" d="M757.506,254.3c-.029-.164-.064-.354-.1-.563-.048-.27-.106-.576-.17-.917h0c-.913-4.8-3.239-16.058-5.287-17.656l-1.228.257c.746,2,5.554,15.086,5.146,17.64-8.04,1.608-16.19,6.834-18.653,8.5a3.509,3.509,0,0,1,1.508,1.791,46.019,46.019,0,0,1,18.917-8.378S757.587,254.726,757.506,254.3Z" transform="translate(-529.779 -178.259)" fill="#6c63ff"/>
  <path id="Path_377" data-name="Path 377" d="M678.025,251.97s7.461,4.7,9.2-2.18l1.659.444s.547,7.619-11.359,3.271Z" transform="translate(-489.292 -188.184)" opacity="0.1"/>
  <path id="Path_378" data-name="Path 378" d="M678.025,250.14s7.461,4.7,9.2-2.18l1.659.444s.547,7.619-11.359,3.271Z" transform="translate(-489.292 -186.942)" fill="#6c63ff"/>
  <path id="Path_379" data-name="Path 379" d="M752.07,249.849s.965,5.618,11.189,2.894l-.36-1.061s-6.982,2.894-9.513-2.132Z" transform="translate(-539.86 -188.021)" opacity="0.1"/>
  <path id="Path_380" data-name="Path 380" d="M752.07,248.019s.965,5.618,11.189,2.894l-.36-1.061s-6.982,2.894-9.513-2.132Z" transform="translate(-539.86 -186.779)" fill="#6c63ff"/>
  <path id="Path_381" data-name="Path 381" d="M730.91,247.848v11.726h1.814s2.508-.9,2.451-6.175a34.006,34.006,0,0,0-.441-6.689Z" transform="translate(-525.505 -186.094)" opacity="0.1"/>
  <path id="Path_382" data-name="Path 382" d="M730,246.938v11.726h1.814s2.508-.9,2.451-6.175a33.724,33.724,0,0,0-.444-6.689Z" transform="translate(-524.887 -185.477)" fill="#6c63ff"/>
  <path id="Path_383" data-name="Path 383" d="M713.892,231.01c-.74,1.376-7.455,3.637-8.641,4.026l-.18.058s-.425.109-1.135.257c-2.161.45-6.979,1.286-10.613.553-.527-.1-1.074-.215-1.63-.322l-1.286-.28c-4.181-.929-8.506-2.145-9.275-3.216,0,0,.209-3.5.913-3.4s8.568,3.4,8.568,3.4l.113.016c.2.026.662.084,1.309.158,2.554.28,7.934.724,10.828-.051.138-.039.267-.077.392-.122.219-.074.447-.151.682-.238,3.724-1.319,9.3-3.679,9.3-3.679A2.476,2.476,0,0,1,713.892,231.01Z" transform="translate(-491.734 -173.517)" opacity="0.1"/>
  <path id="Path_384" data-name="Path 384" d="M715.035,226.21c-.3,1.463-8.526,4.769-8.526,4.769l-10.661,1.1-7.863-1.248-4.219-2.5.029-1.544a.643.643,0,0,1,.225-.711c1.4.425,8.362,3.354,8.362,3.354l.113.016c.2.026.663.084,1.309.158,2.554.28,7.934.724,10.828-.051.138-.039.267-.077.392-.122.219-.071.447-.151.682-.238,3.367-1.193,8.252-3.239,9.156-3.618A.643.643,0,0,1,715.035,226.21Z" transform="translate(-493.521 -171.76)" opacity="0.1"/>
  <path id="Path_385" data-name="Path 385" d="M713.892,229.163c-.74,1.376-7.455,3.634-8.641,4.023l-.18.061s-.425.106-1.135.254c-2.161.45-6.979,1.286-10.613.553-.527-.1-1.074-.215-1.63-.322l-1.286-.28c-4.181-.929-8.506-2.145-9.275-3.216,0,0,.209-3.5.913-3.4s8.568,3.4,8.568,3.4l.113.016c.2.026.662.087,1.309.158,2.554.28,7.934.724,10.828-.051.138-.039.267-.077.392-.122.219-.071.447-.151.682-.238,3.724-1.319,9.3-3.679,9.3-3.679S714.709,227.655,713.892,229.163Z" transform="translate(-491.734 -172.262)" fill="#6c63ff"/>
  <circle id="Ellipse_76" data-name="Ellipse 76" cx="1.177" cy="1.177" r="1.177" transform="translate(205.502 59.439)" opacity="0.1"/>
  <circle id="Ellipse_77" data-name="Ellipse 77" cx="1.177" cy="1.177" r="1.177" transform="translate(205.502 59.143)" fill="#6c63ff"/>
  <path id="Path_386" data-name="Path 386" d="M712.508,238.668l-.322,3.319-1.286-.28.322-3.2C711.4,238.542,711.865,238.6,712.508,238.668Z" transform="translate(-511.93 -180.531)" opacity="0.1"/>
  <path id="Path_387" data-name="Path 387" d="M711.608,238.668l-.322,3.319-1.286-.28.322-3.2C710.5,238.542,710.965,238.6,711.608,238.668Z" transform="translate(-511.32 -180.531)" fill="#6c63ff"/>
  <path id="Path_388" data-name="Path 388" d="M750.152,240.934l-.18.061s-.421.106-1.135.254l-1.1-3.149c.138-.039.27-.077.4-.122.219-.071.447-.151.682-.238Z" transform="translate(-536.922 -180.009)" opacity="0.1"/>
  <path id="Path_389" data-name="Path 389" d="M751.072,240.934l-.18.061s-.425.106-1.135.254l-1.1-3.149c.138-.039.267-.077.392-.122.219-.071.447-.151.682-.238Z" transform="translate(-537.546 -180.009)" fill="#6c63ff"/>
  <g id="Group_12" data-name="Group 12" transform="translate(118.04 51.788)" opacity="0.5">
    <path id="Path_390" data-name="Path 390" d="M497.4,219.819a8.49,8.49,0,0,1,4.274,1.187,23.962,23.962,0,0,0,6.053,0c2.135-.476,3.216-2.135,3.621-1.663s.415,4.927.415,4.927l-1.84,4.927-4.155,3.084-6.586-1.9L497,224.81Z" transform="translate(-484.861 -219.259)" fill="#6c63ff"/>
    <path id="Path_391" data-name="Path 391" d="M511.762,224.3l-1.84,4.927-4.155,3.084-6.586-1.9L497,224.831l.415-4.985h.1a8.721,8.721,0,0,1,4.181,1.19,23.962,23.962,0,0,0,6.053,0c2.029-.45,3.1-1.975,3.538-1.717h0a.2.2,0,0,1,.068.051C511.762,219.84,511.762,224.3,511.762,224.3Z" transform="translate(-484.861 -219.28)" opacity="0.1"/>
    <path id="Path_392" data-name="Path 392" d="M511.762,224.365l-1.84,4.927-4.155,3.084-6.586-1.9L497,224.9l.415-4.985h.1c.367,1.573,1.93,6.538,6.908,6.889,5.12.357,6.574-5.734,6.876-7.413a.2.2,0,0,1,.068.051C511.762,219.908,511.762,224.365,511.762,224.365Z" transform="translate(-484.861 -219.348)" opacity="0.1"/>
    <path id="Path_393" data-name="Path 393" d="M471.793,220s1.068,6.943,7,7.358,6.943-7.834,6.943-7.834,8.606,2.82,10.613,7.85,3.5,9.066,3.5,9.066-.643,1.126-1.367,1.245-5.638,3.5-5.638,3.5-.058,9.616.476,10.208.357,3.145-1.248,3.026-12.7-2.611-22.191-.534c0,0-3.975,1.425-3.859-.891s.3-11.394.3-11.394-5.995-2.611-6.348-2.611-1.248-.47-.3-2.016,2.139-6.824,2.139-6.824S464.2,222.569,471.793,220Z" transform="translate(-459.255 -219.436)" fill="#6c63ff"/>
    <path id="Path_394" data-name="Path 394" d="M555.63,259.77s1.782,1.306,1.367,2.316S555.63,259.77,555.63,259.77Z" transform="translate(-524.635 -246.742)" opacity="0.1"/>
    <path id="Path_395" data-name="Path 395" d="M563.487,263.67a3.216,3.216,0,0,0,0,1.772" transform="translate(-529.881 -249.387)" opacity="0.1"/>
    <path id="Path_396" data-name="Path 396" d="M566.443,273.8s.238,1.608-.473,1.778" transform="translate(-531.65 -256.259)" opacity="0.1"/>
    <path id="Path_397" data-name="Path 397" d="M487.026,258.48s-3.322,2.894-2.2,4.036" transform="translate(-476.446 -245.866)" opacity="0.1"/>
    <path id="Path_398" data-name="Path 398" d="M485.689,280.26s-.055,3.026.862,3.264" transform="translate(-477.187 -260.642)" opacity="0.1"/>
    <path id="Path_399" data-name="Path 399" d="M515.4,308.679s2.251-1.54,2.849-1.483" transform="translate(-497.344 -278.915)" opacity="0.1"/>
    <path id="Path_400" data-name="Path 400" d="M522.4,313.4s2.438-1.724,3.091-1.608" transform="translate(-502.092 -282.027)" opacity="0.1"/>
  </g>
  <g id="Group_13" data-name="Group 13" transform="translate(185.141 110.767)" opacity="0.5">
    <path id="Path_401" data-name="Path 401" d="M687,402.65s19.418.92,29.073.354l-.212,2.547L698.777,407.8l-5.056-1.557Z" transform="translate(-680.857 -402.65)" fill="#6c63ff"/>
    <path id="Path_402" data-name="Path 402" d="M716.086,403l-.212,2.547-17.08,2.251-5.059-1.557L687,402.65s.4.023,1.11.051h0c4.213.183,19.383.775,27.713.322Z" transform="translate(-680.857 -402.65)" opacity="0.1"/>
    <path id="Path_403" data-name="Path 403" d="M709.85,439.223c-3.75,2.251-16.765.071-16.765.071l-3.608-12.864-4.033,13.086c-5.728,2.052-17.543-.92-17.543-.92l4.6-28.3.794-3.9.749-3.743,7.287,2.193s2.19,1.486,11.317,1.061,10.468-2.894,10.468-2.894c.4.116.785,1.534,1.171,3.3.56,2.573,1.129,5.872,1.8,6.963C707.232,415.1,709.85,439.223,709.85,439.223Z" transform="translate(-667.9 -402.65)" fill="#6c63ff"/>
    <path id="Path_404" data-name="Path 404" d="M715.676,407.18a33.415,33.415,0,0,1-15.141,4.345c-1.733.212-15.865-4.255-15.865-4.255l.749-3.74,7.288,2.193s2.19,1.486,11.317,1.061,10.468-2.894,10.468-2.894C714.907,404,715.29,405.418,715.676,407.18Z" transform="translate(-679.277 -403.247)" opacity="0.1"/>
    <path id="Path_405" data-name="Path 405" d="M716.086,403l-.212,2.547-17.08,2.251-5.059-1.557L687,402.65s.4.023,1.11.051h0l6.175,1.859s2.19,1.486,11.317,1.061c7.169-.322,9.536-1.93,10.221-2.6Z" transform="translate(-680.857 -402.65)" opacity="0.1"/>
    <path id="Path_406" data-name="Path 406" d="M715.676,406.3a33.415,33.415,0,0,1-15.141,4.345c-1.733.212-15.865-4.255-15.865-4.255l.749-3.74,7.288,2.193s2.19,1.486,11.317,1.061,10.468-2.894,10.468-2.894C714.907,403.12,715.29,404.538,715.676,406.3Z" transform="translate(-679.277 -402.65)" fill="#6c63ff"/>
    <circle id="Ellipse_78" data-name="Ellipse 78" cx="0.743" cy="0.743" r="0.743" transform="translate(21.895 5.834)" opacity="0.1"/>
    <circle id="Ellipse_79" data-name="Ellipse 79" cx="0.743" cy="0.743" r="0.743" transform="translate(21.895 5.551)" fill="none" stroke="#6c63ff" stroke-miterlimit="10" stroke-width="1"/>
    <path id="Path_407" data-name="Path 407" d="M679.23,463.58s1.309,3.891,2.229,3.821S679.23,463.58,679.23,463.58Z" transform="translate(-675.586 -443.985)" opacity="0.1"/>
    <path id="Path_408" data-name="Path 408" d="M676.59,475.46s.814,2.335,1.663,2.724" transform="translate(-673.795 -452.044)" opacity="0.1"/>
    <path id="Path_409" data-name="Path 409" d="M676.59,483.05a10.271,10.271,0,0,0,2.049,2.016" transform="translate(-673.795 -457.193)" opacity="0.1"/>
    <path id="Path_410" data-name="Path 410" d="M784,437.3s1.2,1.8,0,2.193" transform="translate(-746.662 -426.156)" opacity="0.1"/>
    <path id="Path_411" data-name="Path 411" d="M784.019,445.557c-1.4-1.656-.534,2.251-.534,2.251S784.376,445.982,784.019,445.557Z" transform="translate(-746.134 -431.48)" opacity="0.1"/>
    <path id="Path_412" data-name="Path 412" d="M784.19,452.69s-2.123,3.148-1.7,3.5" transform="translate(-745.6 -436.597)" opacity="0.1"/>
    <path id="Path_413" data-name="Path 413" d="M689.047,428.447a15.486,15.486,0,0,1-5.467-1.248l.116-.26c.051.026,5.245,2.28,8.056.589a4,4,0,0,0,1.772-3.377l.283.023a4.268,4.268,0,0,1-1.91,3.6A5.467,5.467,0,0,1,689.047,428.447Z" transform="translate(-678.537 -417.236)" opacity="0.1"/>
    <path id="Path_414" data-name="Path 414" d="M689.047,427.567a15.486,15.486,0,0,1-5.467-1.248l.116-.257c.051.023,5.245,2.277,8.056.585a4,4,0,0,0,1.772-3.377l.283.023a4.268,4.268,0,0,1-1.91,3.6A5.467,5.467,0,0,1,689.047,427.567Z" transform="translate(-678.537 -416.639)" fill="#6c63ff"/>
    <path id="Path_415" data-name="Path 415" d="M757.726,429.6a4.4,4.4,0,0,1-1.93-.415,4.951,4.951,0,0,1-2.467-3.612l.283-.035a4.719,4.719,0,0,0,2.309,3.393c1.756.846,4.248.322,7.4-1.608l.145.241A11.692,11.692,0,0,1,757.726,429.6Z" transform="translate(-725.855 -418.179)" opacity="0.1"/>
    <path id="Path_416" data-name="Path 416" d="M757.726,428.722a4.4,4.4,0,0,1-1.93-.415,4.951,4.951,0,0,1-2.467-3.612l.283-.035a4.719,4.719,0,0,0,2.309,3.393c1.756.846,4.248.322,7.4-1.608l.145.241A11.692,11.692,0,0,1,757.726,428.722Z" transform="translate(-725.855 -417.582)" fill="#6c63ff"/>
  </g>
  <path id="Path_417" data-name="Path 417" d="M503.34,404s3.65,5.1,6.13,4.6,2.724-1.039,4.927-4.6l1.807,4.158-2.129,5.146-2.521,3.264-5.345-.839-1.73-5.84Z" transform="translate(-371.122 -292.799)" fill="#6c63ff"/>
  <path id="Path_418" data-name="Path 418" d="M516.2,408.135l-2.129,5.146-2.521,3.264-5.345-.839-1.73-5.84-1.138-5.885s.322.444.823,1.055c1.225,1.463,3.557,3.895,5.306,3.538,2.444-.489,2.718-1.026,4.84-4.457l.087-.145Z" transform="translate(-371.122 -292.779)" opacity="0.1"/>
  <path id="Path_419" data-name="Path 419" d="M516.2,408.155l-2.129,5.146-2.521,3.264-5.345-.839-1.73-5.84L503.34,404s.322.444.823,1.055c.8,2.573,2.512,6.7,5.306,6.664,3.155-.035,4.428-5.261,4.84-7.574L514.4,404Z" transform="translate(-371.122 -292.799)" opacity="0.1"/>
  <path id="Path_420" data-name="Path 420" d="M491.974,402.151s-1.238-.148-.595,1.386,1.83,6.58,1.238,7.619-.3,3.859-2.869,4.406l.74,2.917s.148,6.432-.148,7.374a39.09,39.09,0,0,0-.248,6.677c.1.543.051,4.107-.344,4.258a1.359,1.359,0,0,0,.643,2.174c1.286.3,6.776.447,7.767.743s8.014,0,8.014,0,2.968-.4,3.711-.643.891-.839.643-1.978-1.386-9.4-1.139-10.439.3-11.182.3-11.182a2.849,2.849,0,0,1-1.93-2.525c0-1.881-.743-6.927.791-10.092,0,0-1.238-.849-1.434-.7a7.96,7.96,0,0,1-2.065-.392s-.965,8.609-5,8.658-5.834-8.658-5.834-8.658S494.251,400.964,491.974,402.151Z" transform="translate(-361.686 -291.101)" fill="#6c63ff"/>
  <path id="Path_421" data-name="Path 421" d="M515.49,489.38s.833,2.029,2.222,2.325S515.49,489.38,515.49,489.38Z" transform="translate(-379.365 -350.72)" opacity="0.1"/>
  <path id="Path_422" data-name="Path 422" d="M511.49,494.3s2.689,2.177,2.573,2.624" transform="translate(-376.651 -354.058)" opacity="0.1"/>
  <path id="Path_423" data-name="Path 423" d="M494.72,454.3s2.129,1.434,2.129,2.473" transform="translate(-365.274 -326.922)" opacity="0.1"/>
  <path id="Path_424" data-name="Path 424" d="M497.1,462.981a11.593,11.593,0,0,0-.987-2.521" transform="translate(-366.217 -331.101)" opacity="0.1"/>
  <path id="Path_425" data-name="Path 425" d="M496.11,470.76a18.515,18.515,0,0,1,.987,2.277" transform="translate(-366.217 -338.089)" opacity="0.1"/>
  <path id="Path_426" data-name="Path 426" d="M544.442,459.53s-2.769.843-2.525,1.881" transform="translate(-397.283 -330.47)" opacity="0.1"/>
  <path id="Path_427" data-name="Path 427" d="M541.91,480.713s3.628-4.207,2.537-4.107S541.91,480.713,541.91,480.713Z" transform="translate(-397.288 -342.054)" opacity="0.1"/>
  <g id="Group_14" data-name="Group 14" transform="translate(127.739 110.396)" opacity="0.1">
    <path id="Path_428" data-name="Path 428" d="M546.034,428.353c0-.868-.158-2.412-.177-4.133-.019,1.975.177,3.8.177,4.776a2.833,2.833,0,0,0,1.93,2.521v-.643A2.843,2.843,0,0,1,546.034,428.353Z" transform="translate(-527.704 -416.912)"/>
    <path id="Path_429" data-name="Path 429" d="M552.531,492.591a5,5,0,0,1,.087.511,3.217,3.217,0,0,0-.087-1.155c-.212-.965-1.074-7.159-1.164-9.577A91.684,91.684,0,0,0,552.531,492.591Z" transform="translate(-531.438 -456.361)"/>
    <path id="Path_430" data-name="Path 430" d="M491.348,474.811a28.883,28.883,0,0,1,.293-4.824,27.979,27.979,0,0,0,.187-4.367,22.22,22.22,0,0,1-.187,3.724A34.523,34.523,0,0,0,491.348,474.811Z" transform="translate(-490.726 -444.998)"/>
    <path id="Path_431" data-name="Path 431" d="M495.737,402.794c2.274-1.187,2.225-.4,2.225-.4s1.782,8.709,5.834,8.658,5.017-8.658,5.017-8.658a8.066,8.066,0,0,0,2.078.392c.2-.151.855.322,1.219.553.068-.17.138-.338.219-.5,0,0-1.238-.849-1.438-.7a8.038,8.038,0,0,1-2.078-.392s-.965,8.609-5,8.658-5.834-8.658-5.834-8.658.048-.791-2.226.4c0,0-1.007-.116-.727.994C495.187,402.729,495.737,402.794,495.737,402.794Z" transform="translate(-493.188 -401.497)"/>
    <path id="Path_432" data-name="Path 432" d="M489.734,505.768c.322-.119.408-2.322.389-3.538-.016,1.222-.129,2.795-.389,2.894s-.386.643-.286,1.167C489.5,506.015,489.6,505.813,489.734,505.768Z" transform="translate(-489.414 -469.834)"/>
    <path id="Path_433" data-name="Path 433" d="M493.282,430.742a2.765,2.765,0,0,0,.151-1.322,1.694,1.694,0,0,1-.151.679c-.595,1.039-.3,3.859-2.872,4.406l.154.6C492.97,434.485,492.7,431.761,493.282,430.742Z" transform="translate(-490.09 -420.44)"/>
  </g>
  <path id="Path_434" data-name="Path 434" d="M515.186,587.556c-1.216,2.213-13.556,0-13.556,0l.032-.222.244-1.714h13l.248,1.711Z" transform="translate(-369.962 -416.009)" fill="#6c63ff"/>
  <path id="Path_435" data-name="Path 435" d="M515.186,590.973c-1.216,2.213-13.556,0-13.556,0l.032-.222c.592,0,9.52-.212,13.507,0Z" transform="translate(-369.962 -419.426)" opacity="0.1"/>
  <path id="Path_436" data-name="Path 436" d="M479.507,591.437h0s-2.213.553-5.644,9.848-4.647,21.3-4.647,21.3-1.93,3.267,6.307,3.486c0,0-.662,2.158,3.985,1.827s3.978-.328,3.978-.328,2.988-1.881,4.316-1.55a6.994,6.994,0,0,1,3.6,1.659c1.438,1.216,6.033.72,6.088-.219a8.693,8.693,0,0,0,0-1.386s7.027.444,5.7-4.647-2.435-13.446-2.435-13.446-3.6-16.321-7.693-16.543S479.507,591.437,479.507,591.437Z" transform="translate(-347.839 -419.89)" fill="#6c63ff"/>
  <rect id="Rectangle_184" data-name="Rectangle 184" width="28.34" height="0.222" transform="matrix(0.092, -0.996, 0.996, 0.092, 127.584, 206.191)" opacity="0.1"/>
  <rect id="Rectangle_185" data-name="Rectangle 185" width="29.713" height="0.222" transform="translate(135.527 207.663) rotate(-89.78)" opacity="0.1"/>
  <path id="Path_437" data-name="Path 437" d="M535.18,611.6" transform="translate(-392.722 -433.634)" fill="none" stroke="#6c63ff" stroke-miterlimit="10" stroke-width="1"/>
  <rect id="Rectangle_186" data-name="Rectangle 186" width="0.222" height="29.845" transform="translate(142.365 177.951) rotate(-2.13)" opacity="0.1"/>
  <path id="Path_438" data-name="Path 438" d="M550.206,638.62a142.627,142.627,0,0,0-3.316-28.735l.215-.055a143.518,143.518,0,0,1,3.322,28.8Z" transform="translate(-400.666 -432.433)" opacity="0.1"/>
  <path id="Path_439" data-name="Path 439" d="M502.468,596.8s-.386.222,0,1.286" transform="translate(-370.414 -423.594)" opacity="0.1"/>
  <path id="Path_440" data-name="Path 440" d="M505.294,596.8s-1.052.662,0,1.772" transform="translate(-372.131 -423.594)" opacity="0.1"/>
  <path id="Path_441" data-name="Path 441" d="M536.9,596.8s1.438,1.383,1.106,1.772" transform="translate(-393.889 -423.594)" opacity="0.1"/>
  <path id="Path_442" data-name="Path 442" d="M540.5,595.77s.225,1.659,1.055,2.1" transform="translate(-396.331 -422.895)" opacity="0.1"/>
  <g id="Group_15" data-name="Group 15" transform="translate(193.42 169.383)" opacity="0.5">
    <path id="Path_443" data-name="Path 443" d="M722.455,585.762s5.429-2.161,7.776.476-1.608,5.847-1.608,5.847l-1.66,3.313-3.9-.428-.92-4.58Z" transform="translate(-712.976 -584.923)" fill="#6c63ff"/>
    <path id="Path_444" data-name="Path 444" d="M728.624,592.058l-1.66,3.313-3.9-.415-.92-4.576.322-4.628.087-.032c.688-.254,5.335-1.875,7.558.357a1.689,1.689,0,0,1,.132.135C732.579,588.836,728.624,592.058,728.624,592.058Z" transform="translate(-712.976 -584.913)" opacity="0.1"/>
    <path id="Path_445" data-name="Path 445" d="M728.624,593.759l-1.66,3.313-3.9-.415-.92-4.576.322-4.628.087-.032c.672,3.682,2.467,5.236,2.769,5.467l.045.032,1.1-.09c2.145-1.184,3.277-4,3.641-5.062a1.7,1.7,0,0,1,.132.135C732.579,590.536,728.624,593.759,728.624,593.759Z" transform="translate(-712.976 -586.614)" opacity="0.1"/>
    <path id="Path_446" data-name="Path 446" d="M718.773,606.508s-1.2,15.238-.872,17.077-.691,1.978-.691,1.978-4.329.965-5.146.322a4.923,4.923,0,0,0-2.209-.769s-3.216.736-4.65.186a10.6,10.6,0,0,0-3.821-.322s-1.84,1.106-2.348.875-1.151-.138-2.624-.55-2.3-.785-1.521-3.316.1-10.542.048-11.51a49.053,49.053,0,0,0-1.151-6.11c-.646-2.8,1.1-2.209,1.1-2.209,4.1-2.116,2.4-6.262,1.753-8.1s.367-1.93.872-1.93,2.441-1.656,2.441-1.656l.785-.7,2.393-2.148c.595,4.023,2.525,5.712,2.846,5.963l.045.035,1.1-.093c2.669-1.47,3.772-5.467,3.772-5.467a6.974,6.974,0,0,0,1.84,1.75,31.506,31.506,0,0,0,3.271,2.026c1.93,1.151.508,2.3.508,2.3-2.348,8.008.965,8.362.965,8.362C719.924,602.858,718.773,606.508,718.773,606.508Z" transform="translate(-693.644 -586.75)" fill="#6c63ff"/>
    <path id="Path_447" data-name="Path 447" d="M714.071,601.69s-.691.37-.691.781" transform="translate(-707.033 -596.295)" opacity="0.1"/>
    <path id="Path_448" data-name="Path 448" d="M715.179,604.12s-.92.965-.759,1.245" transform="translate(-707.726 -597.943)" opacity="0.1"/>
    <path id="Path_449" data-name="Path 449" d="M715.807,608s-.691.736-.415,1.151" transform="translate(-708.354 -600.575)" opacity="0.1"/>
    <path id="Path_450" data-name="Path 450" d="M720.082,595.235l-2.894,2.795a12.708,12.708,0,0,0-2.348-6.641l2.393-2.148C717.818,593.3,719.764,594.984,720.082,595.235Z" transform="translate(-708.023 -587.849)" opacity="0.1"/>
    <path id="Path_451" data-name="Path 451" d="M720.949,593.515l-2.894,2.8a12.724,12.724,0,0,0-2.344-6.644l2.393-2.148C718.7,591.575,720.627,593.264,720.949,593.515Z" transform="translate(-708.614 -586.682)" fill="#6c63ff"/>
    <path id="Path_452" data-name="Path 452" d="M742.042,592.44c-1.158,1.807-3.309,6.58-3.309,6.58l-2.3-2.853c2.669-1.473,3.772-5.467,3.772-5.467A7.227,7.227,0,0,0,742.042,592.44Z" transform="translate(-722.67 -588.839)" opacity="0.1"/>
    <path id="Path_453" data-name="Path 453" d="M741.176,590.733c-1.154,1.811-3.309,6.583-3.309,6.583l-2.3-2.849c2.669-1.47,3.772-5.467,3.772-5.467A7.289,7.289,0,0,0,741.176,590.733Z" transform="translate(-722.087 -587.686)" fill="#6c63ff"/>
    <path id="Path_454" data-name="Path 454" d="M746.105,686.14s-.492,4.181-.775,4.419" transform="translate(-728.708 -653.585)" opacity="0.1"/>
    <path id="Path_455" data-name="Path 455" d="M760.33,688.43a15.43,15.43,0,0,1,.322,3.682" transform="translate(-738.884 -655.139)" opacity="0.1"/>
    <path id="Path_456" data-name="Path 456" d="M723.217,689s-.5,2.808,0,3.129" transform="translate(-713.554 -655.525)" opacity="0.1"/>
    <path id="Path_457" data-name="Path 457" d="M713.691,687.71a35.008,35.008,0,0,0-.322,3.914" transform="translate(-707.016 -654.65)" opacity="0.1"/>
    <path id="Path_458" data-name="Path 458" d="M759.947,637.47s-1.286,1.013-1.2,1.286" transform="translate(-737.809 -620.568)" opacity="0.1"/>
    <path id="Path_459" data-name="Path 459" d="M762.014,639.48s-2.463,2.071-1.232,1.84S762.014,639.48,762.014,639.48Z" transform="translate(-738.957 -621.931)" opacity="0.1"/>
  </g>
  <path id="Path_460" data-name="Path 460" d="M199.534,390.46l.016-.023-.029-.022h0l-.174-.116.035.026a.576.576,0,0,0-.759.167l-.071.1h0l-3.907,5.622-.682,1c-2.061-.621-5.409,1.991-7.1,3.489-.106.093-.206.18-.3.264-.135-.3-.215-.5-.215-.5-.084.92-3.332,2.3-4.091,2.8a2.733,2.733,0,0,1-1.132.379c.109-3.5-2.6-7.175-2.6-7.175l-6.609-8.41a7.423,7.423,0,0,1,.675-4.461c.055-.109.109-.219.17-.322h.032a7.313,7.313,0,0,0-.415,2.2c.016.569.544,3.329,1.286,3.216a.405.405,0,0,0,.379-.18,4.487,4.487,0,0,0,.614-2.943,6.031,6.031,0,0,1-.106.949c.048-.9-.055-1.852-.055-2.531,0-.27,0-.537.019-.807h.08v0h.084a8.88,8.88,0,0,0,4.036-1.872,2.164,2.164,0,0,0,1.518-.711,1.476,1.476,0,0,1-.286,1.376,2.4,2.4,0,0,0,1.975-1.537,5.364,5.364,0,0,0,.251-2.573,17.877,17.877,0,0,1-.19-2.615,9.621,9.621,0,0,0,.077-1.425,2.746,2.746,0,0,0-.077-.431h.026a.643.643,0,0,0,.46-.18,2.144,2.144,0,0,0,.579-1.261,10.736,10.736,0,0,0,.341-2.994c-.019.306-.058.614-.1.92a4.045,4.045,0,0,0-.846-3.123,6.165,6.165,0,0,0-1.971-1.251,1.444,1.444,0,0,1-.643-.46,1.862,1.862,0,0,1-.2-.8c-.248-1.692-1.84-2.869-3.425-3.538-2.039-.888-4.5-1.267-6.448-.212a20.458,20.458,0,0,0-2.573,1.965c-1.087.827-2.341,1.405-3.5,2.126a7.016,7.016,0,0,0-2.82,2.875c-.852,1.93-.212,4.117-.106,6.21a10.108,10.108,0,0,1-3.875,8.683,3.477,3.477,0,0,0-.852.736.92.92,0,0,0-.071,1.052c.138.18.357.283.508.453a1.441,1.441,0,0,1,.125,1.322,8.288,8.288,0,0,1-2.251,3.814c.048.341.47.476.814.527a18.734,18.734,0,0,0,2.75.2h.4c-.042.106-.087.219-.132.338-.5,1.312-1.145,3.332-.929,4.567.322,1.949,1.351,10.861.843,12.424s.817,12.9.817,12.9.177.875.482,2.18c-.794,1.872-1.7,3.949-2.155,4.782-.913,1.669-.463,10.192,2.685,13.98,0,0,1.286,1.84.965,2.505a3.136,3.136,0,0,0,.058,1.84l.5,11.028a28.586,28.586,0,0,1-.232,3.37c-1.344,1.663-3.415,4.088-4.39,4.483-1.508.614-12.758,14.26-12.758,14.26s.09.164.267.431l-.322.367-2.158,2.5-.17.2c-.405-.077-3.1-.566-5.242-.72h-.212v-.039a8,8,0,0,0-2.251.061.724.724,0,0,0-.373.193c-.73.894-1.122,14.929-1.122,14.929s.778,7.027,3.216,7.419a1.289,1.289,0,0,0,.386.071h.106a3.359,3.359,0,0,0,2.894-1.8,2.8,2.8,0,0,0,.241-.643,5.182,5.182,0,0,1,.476-2.978c.759-1.727,2.177-4.766,2.177-4.766s2.573-2.7,2.113-4.017c.071-.106.154-.222.244-.354.965-1.376,2.92-4.094,4.5-5.908a4.68,4.68,0,0,1,.322-.347,7.9,7.9,0,0,0,1.795.518,6.532,6.532,0,0,0,3.316-3.062,18.209,18.209,0,0,1,3.483-4.03l-.051.408-.055,13.424a9.594,9.594,0,0,0,1.653.91v.322a43.092,43.092,0,0,1-.347,5.721l-.048.3c-.2-.142-.373-.19-.482-.08-.5.5-.8,3.7-.833,5.181v.148c-.08,1.473-.92,3.615,1.608,3.724,1.891.08,10.044.2,14.4.267a9.7,9.7,0,0,0,6.432-2.28c1.386-1.187,2.226-2.6.338-3.637-.116-.064-.238-.125-.373-.187l-4.181-.643-7.143-3.647s-.042-2.206-.9-1.84a2.412,2.412,0,0,0-.724.286c-.042-.08-.087-.167-.129-.257a8.217,8.217,0,0,1-.881-3.718,2.628,2.628,0,0,1,.016-.354,7.1,7.1,0,0,0,.592-.608s-.055-5.014.508-5.959,2.306-10.529,2.306-10.529a4.54,4.54,0,0,1,1.18-2.84c1.126-1.058.73-4.123.73-4.123a4.957,4.957,0,0,0,2.081-3.563c.5-2.727,2.139-8.683,2.139-8.683s3.374-8.8,3.152-14.369a42.048,42.048,0,0,1,.322-8.468l.7-12.941v-.2c.28.212.47.386.47.386v-.141c.1.087.161.141.161.141s.36-5.872.238-8.2c1.968-.669,4.966-1.769,5.146-2.328.251-.833,3.628-3.467,3.628-3.467a.56.56,0,0,1-.206-.077c.106-.048.215-.106.322-.167,2.213-1.183,6.323-4.644,5.631-6.754l4.5-6.461a1.1,1.1,0,0,0-.113-1.373Z" transform="translate(-119.525 -262.857)" fill="url(#linear-gradient-2)"/>
  <path id="Path_461" data-name="Path 461" d="M300.73,486.923a2.932,2.932,0,0,1-1.077.408c-1.405.042-2.573-3.763-2.573-3.763s.4-.405,1.036-.965c1.885-1.676,5.837-4.769,7.69-3.039C307.9,481.5,303.165,485.614,300.73,486.923Z" transform="translate(-231.196 -343.716)" fill="#ecb4b6"/>
  <path id="Path_462" data-name="Path 462" d="M222.66,768.847l-5.187,5.6s-4.8.055-3.859-2.592a9.68,9.68,0,0,0,.4-1.762,43.306,43.306,0,0,0,.338-5.667c0-1.241-.019-2.113-.019-2.113s7.554-3.309,6.783.138a6.482,6.482,0,0,0-.154,1.312,8.214,8.214,0,0,0,.862,3.682A8.333,8.333,0,0,0,222.66,768.847Z" transform="translate(-174.49 -534.906)" fill="#ecb4b6"/>
  <path id="Path_463" data-name="Path 463" d="M222.66,782.692l-5.187,5.6s-4.8.055-3.859-2.592a9.678,9.678,0,0,0,.4-1.762,11.064,11.064,0,0,1,1.669,2.094s3.309.965,4.219-1.93a4.913,4.913,0,0,1,1.93-2.811,8.327,8.327,0,0,0,.83,1.4Z" transform="translate(-174.49 -548.751)" opacity="0.1"/>
  <path id="Path_464" data-name="Path 464" d="M232.56,790.957a9.436,9.436,0,0,1-6.316,2.251c-4.277-.061-12.269-.187-14.125-.264-2.483-.109-1.659-2.229-1.579-3.689v-.145c.029-1.463.322-4.634.817-5.13s2.19,2.206,2.19,2.206,3.309.965,4.219-1.93,2.759-3.174,2.759-3.174c.839-.363.881,1.82.881,1.82l7,3.612,4.11.643c.132.061.251.122.363.183C234.744,788.384,233.92,789.78,232.56,790.957Z" transform="translate(-172.356 -548.584)" fill="#c17174"/>
  <circle id="Ellipse_80" data-name="Ellipse 80" cx="0.302" cy="0.302" r="0.302" transform="translate(46.961 236.202)" fill="#fff" opacity="0.25"/>
  <circle id="Ellipse_81" data-name="Ellipse 81" cx="0.302" cy="0.302" r="0.302" transform="translate(49.804 237.611)" fill="#fff" opacity="0.25"/>
  <circle id="Ellipse_82" data-name="Ellipse 82" cx="0.302" cy="0.302" r="0.302" transform="translate(51.264 238.263)" fill="#fff" opacity="0.25"/>
  <circle id="Ellipse_83" data-name="Ellipse 83" cx="0.302" cy="0.302" r="0.302" transform="translate(54.296 239.428)" fill="#fff" opacity="0.25"/>
  <circle id="Ellipse_84" data-name="Ellipse 84" cx="0.302" cy="0.302" r="0.302" transform="translate(52.753 238.932)" fill="#fff" opacity="0.25"/>
  <path id="Path_465" data-name="Path 465" d="M232.56,804.265a9.437,9.437,0,0,1-6.316,2.251c-4.277-.061-12.269-.187-14.125-.264-2.483-.109-1.659-2.229-1.579-3.689l15.588.965s6.384-.965,6.754-2.869C234.744,801.692,233.92,803.088,232.56,804.265Z" transform="translate(-172.356 -561.892)" fill="#c17174"/>
  <path id="Path_466" data-name="Path 466" d="M232.56,804.265a9.437,9.437,0,0,1-6.316,2.251c-4.277-.061-12.269-.187-14.125-.264-2.483-.109-1.659-2.229-1.579-3.689l15.588.965s6.384-.965,6.754-2.869C234.744,801.692,233.92,803.088,232.56,804.265Z" transform="translate(-172.356 -561.892)" fill="#fff" opacity="0.25"/>
  <path id="Path_467" data-name="Path 467" d="M166.334,734.186a10.765,10.765,0,0,0-1.563,1.569c-1.547,1.795-3.46,4.5-4.409,5.847-.367.527-.589.859-.589.859l-2.071-.305s-2.232-3.419-2.2-3.5,1.769-3.753,1.769-3.753l.672-.788,2.119-2.476.965-1.119S168.2,732.836,166.334,734.186Z" transform="translate(-135.148 -514.309)" fill="#ecb4b6"/>
  <path id="Path_468" data-name="Path 468" d="M160.362,749.193c-.367.527-.589.859-.589.859l-2.071-.306s-2.232-3.419-2.2-3.5,1.769-3.759,1.769-3.759l.672-.788.219.042h.527c-1.849,1.93.135,6.175.135,6.175A2.255,2.255,0,0,1,160.362,749.193Z" transform="translate(-135.148 -521.893)" opacity="0.1"/>
  <path id="Path_469" data-name="Path 469" d="M144.231,752.293s-1.38,2.978-2.126,4.689a5.177,5.177,0,0,0-.47,2.949,2.894,2.894,0,0,1-.235.643,3.248,3.248,0,0,1-2.824,1.788h-.135C135.928,762.3,135.13,755,135.13,755s.386-13.9,1.1-14.794a.688.688,0,0,1,.363-.193,7.715,7.715,0,0,1,2.216-.061c2.274.164,5.2.724,5.2.724h.524c-1.849,1.93.135,6.178.135,6.178a2.273,2.273,0,0,1,1.573,1.322C146.93,749.414,144.231,752.293,144.231,752.293Z" transform="translate(-121.33 -520.67)" fill="#c17174"/>
  <circle id="Ellipse_85" data-name="Ellipse 85" cx="0.302" cy="0.302" r="0.302" transform="translate(19.563 227.184)" fill="#fff" opacity="0.25"/>
  <circle id="Ellipse_86" data-name="Ellipse 86" cx="0.302" cy="0.302" r="0.302" transform="translate(19.412 229.593)" fill="#fff" opacity="0.25"/>
  <path id="Path_470" data-name="Path 470" d="M140.771,760.384a3.248,3.248,0,0,1-2.824,1.788h-.132c-2.515-.064-3.316-7.365-3.316-7.365s.386-13.9,1.1-14.794a.688.688,0,0,1,.363-.193,7.718,7.718,0,0,1,2.216-.061c-.042,2.5-.161,10.394,0,11.179S139.768,758.29,140.771,760.384Z" transform="translate(-120.903 -520.541)" fill="#c17174"/>
  <path id="Path_471" data-name="Path 471" d="M140.771,760.384a3.248,3.248,0,0,1-2.824,1.788h-.132c-2.515-.064-3.316-7.365-3.316-7.365s.386-13.9,1.1-14.794a.688.688,0,0,1,.363-.193,7.718,7.718,0,0,1,2.216-.061c-.042,2.5-.161,10.394,0,11.179S139.768,758.29,140.771,760.384Z" transform="translate(-120.903 -520.541)" fill="#fff" opacity="0.25"/>
  <path id="Path_472" data-name="Path 472" d="M137.806,762.431c-2.515-.064-3.316-7.365-3.316-7.365s.386-13.9,1.1-14.794a.688.688,0,0,1,.363-.193c.527.785.991,2.521.572,6.342-.785,7.239.161,7.7.161,7.7A64.4,64.4,0,0,1,137.806,762.431Z" transform="translate(-120.896 -520.794)" fill="#c17174"/>
  <path id="Path_473" data-name="Path 473" d="M137.806,762.431c-2.515-.064-3.316-7.365-3.316-7.365s.386-13.9,1.1-14.794a.688.688,0,0,1,.363-.193c.527.785.991,2.521.572,6.342-.785,7.239.161,7.7.161,7.7A64.4,64.4,0,0,1,137.806,762.431Z" transform="translate(-120.896 -520.794)" opacity="0.1"/>
  <path id="Path_474" data-name="Path 474" d="M300.73,494.409a2.933,2.933,0,0,1-1.077.408c-1.405.042-2.573-3.763-2.573-3.763s.4-.405,1.036-.965C298.575,491.119,299.843,493.895,300.73,494.409Z" transform="translate(-231.196 -351.202)" opacity="0.1"/>
  <path id="Path_475" data-name="Path 475" d="M277.507,492.544a3.537,3.537,0,0,0,1.9-.412c.743-.5,3.93-1.862,4.014-2.772,0,0,1.9,4.631,2.978,4.8,0,0-3.309,2.6-3.557,3.431s-6.7,2.856-6.7,2.856Z" transform="translate(-216.991 -350.707)" fill="#ff748e"/>
  <path id="Path_476" data-name="Path 476" d="M277.507,492.544a3.537,3.537,0,0,0,1.9-.412c.743-.5,3.93-1.862,4.014-2.772,0,0,1.9,4.631,2.978,4.8,0,0-3.309,2.6-3.557,3.431s-6.7,2.856-6.7,2.856Z" transform="translate(-216.991 -350.707)" opacity="0.1"/>
  <path id="Path_477" data-name="Path 477" d="M175.948,734.186a10.765,10.765,0,0,0-1.563,1.569,11.155,11.155,0,0,1-4.715-4.117l.965-1.119S177.816,732.836,175.948,734.186Z" transform="translate(-144.762 -514.309)" opacity="0.1"/>
  <path id="Path_478" data-name="Path 478" d="M187.852,669s-4.046,5.406-5.525,6.014-12.507,14.118-12.507,14.118,2.37,4.358,6.728,5.072a6.439,6.439,0,0,0,3.255-3.033c.884-2.1,7.831-8.021,7.831-8.021Z" transform="translate(-144.864 -472.574)" fill="#5e5a6b"/>
  <path id="Path_479" data-name="Path 479" d="M187.852,669s-4.046,5.406-5.525,6.014-12.507,14.118-12.507,14.118,2.37,4.358,6.728,5.072a6.439,6.439,0,0,0,3.255-3.033c.884-2.1,7.831-8.021,7.831-8.021Z" transform="translate(-144.864 -472.574)" opacity="0.1"/>
  <path id="Path_480" data-name="Path 480" d="M187.78,725.2a17.63,17.63,0,0,0,3.682,0C193.64,724.993,192,726.318,187.78,725.2Z" transform="translate(-157.048 -510.686)" opacity="0.1"/>
  <path id="Path_481" data-name="Path 481" d="M184.69,729.62s2.894,1.653,4.014.827S187.626,731.244,184.69,729.62Z" transform="translate(-154.951 -513.698)" opacity="0.1"/>
  <path id="Path_482" data-name="Path 482" d="M222.9,762.438a6.481,6.481,0,0,0-.154,1.312c-2.235,2.029-4.927,1.4-6.609.662,0-1.241-.019-2.113-.019-2.113S223.674,758.978,222.9,762.438Z" transform="translate(-176.273 -534.894)" opacity="0.1"/>
  <path id="Path_483" data-name="Path 483" d="M231.292,541.175l-.08,1.524-.688,12.816a40.287,40.287,0,0,0-.322,8.381c.232,5.512-3.1,14.247-3.1,14.247s-1.608,5.9-2.1,8.6a4.921,4.921,0,0,1-2.039,3.538s.386,3.033-.717,4.081a4.526,4.526,0,0,0-1.158,2.811s-1.711,9.487-2.251,10.426-.5,5.9-.5,5.9c-3.583,4.245-8.822.386-8.822.386l.055-13.292s1.489-12.243,2.592-13.954,1.1-6.4,1.1-6.4l-.492-10.935a2.947,2.947,0,0,1-.055-1.82c.338-.662-.942-2.48-.942-2.48-3.091-3.753-3.538-12.192-2.634-13.829s3.576-8.272,3.576-8.272l3.689-2.152,6.667.2Z" transform="translate(-171.262 -385.576)" fill="#5e5a6b"/>
  <path id="Path_484" data-name="Path 484" d="M230.1,744.15s.872,3.02,1.573,3.351S230.1,744.15,230.1,744.15Z" transform="translate(-185.757 -523.555)" opacity="0.1"/>
  <path id="Path_485" data-name="Path 485" d="M233.83,712.9s2.251,1.782,3.216,1.779S233.83,712.9,233.83,712.9Z" transform="translate(-188.288 -502.356)" opacity="0.1"/>
  <path id="Path_486" data-name="Path 486" d="M238.794,435.545v3.641l-2.4-1.036-2.4-1.032-5.216-5.13a39.492,39.492,0,0,1-6.332-5.12c-1.261-1.393-1.894-2.708-.785-3.4a6.913,6.913,0,0,0,1.444-1.264,23.743,23.743,0,0,0,2.875-4.245c.035-.061.071-.122.1-.183,1.074-1.971,1.785-3.653,1.785-3.653a21.737,21.737,0,0,1,4.966,2.341c.158.109.306.222.447.338,1.084.888,1.624,1.93.624,2.946a7.721,7.721,0,0,0-.711.849h0a6.973,6.973,0,0,0-.444.695c-.058.109-.116.215-.167.322a7.416,7.416,0,0,0-.663,4.416Z" transform="translate(-179.644 -299.664)" fill="#ecb4b6"/>
  <path id="Path_487" data-name="Path 487" d="M274.476,395.571c.125.219.3.405.415.627a3.013,3.013,0,0,1,.183,1.544,8.779,8.779,0,0,0,.161,2.464,11.482,11.482,0,0,1,.515,2.174,5.7,5.7,0,0,1-1.039,2.936,2.113,2.113,0,0,0,1.512-.7,1.466,1.466,0,0,1-.277,1.36,2.338,2.338,0,0,0,1.93-1.521,5.3,5.3,0,0,0,.248-2.573,17.563,17.563,0,0,1-.186-2.589,9.463,9.463,0,0,0,.074-1.412,5.122,5.122,0,0,0-1.209-2.509l-1.119-1.537a.791.791,0,0,0-.322-.293C274.3,393.089,274.18,395.037,274.476,395.571Z" transform="translate(-215.767 -285.657)" fill="#464353"/>
  <path id="Path_488" data-name="Path 488" d="M244.284,419.731a7.722,7.722,0,0,0-.711.849h0a6.959,6.959,0,0,0-.444.695c-.058.109-.116.215-.167.322a8.683,8.683,0,0,1-6.5-3.512c-.035-.048-.071-.1-.1-.148.035-.061.071-.122.1-.183,1.074-1.971,1.785-3.653,1.785-3.653a21.739,21.739,0,0,1,4.966,2.341c.158.109.306.222.447.338C244.731,417.673,245.272,418.7,244.284,419.731Z" transform="translate(-190.004 -299.651)" opacity="0.1"/>
  <path id="Path_489" data-name="Path 489" d="M248.74,391.136a8.684,8.684,0,0,1-7.113,8.542,8.783,8.783,0,0,1-1.574.141h-.322a8.683,8.683,0,1,1,9-8.683Z" transform="translate(-186.619 -278.185)" fill="#ecb4b6"/>
  <path id="Path_490" data-name="Path 490" d="M255.187,459.213s4.374,2.467,3.255.386l-5.708-8.439h0l6.48,8.326s4.136,5.683,1.875,9.6c0,0-.322,3.255.055,4.026s-.109,9-.109,9-1.547-1.434-2.373-1.161-6.66.762-6.66.762Z" transform="translate(-200.614 -324.792)" opacity="0.1"/>
  <path id="Path_491" data-name="Path 491" d="M260.97,541.534l-.08,1.524c-.524-.38-1.254-.8-1.74-.643-.827.277-6.67.775-6.67.775l.267-1.9Z" transform="translate(-200.94 -385.936)" opacity="0.1"/>
  <path id="Path_492" data-name="Path 492" d="M255.677,459.213s4.377,2.467,3.255.386l-5.708-8.439h0l6.48,8.326s4.136,5.683,1.875,9.6c0,0-.322,3.255.055,4.026s-.109,9-.109,9-1.544-1.434-2.37-1.161-6.673.775-6.673.775Z" transform="translate(-200.94 -324.792)" fill="#464353"/>
  <path id="Path_493" data-name="Path 493" d="M229.888,455.695a30.128,30.128,0,0,1-1.344,5.808s-.772,7.831-1.772,10.159-.553,5.516-1.1,11.417a7.469,7.469,0,0,1-1.807,4.57,6.774,6.774,0,0,1-5.4,1.859l-.405-.032c-2.759-.273-5.406-13.565-5.406-13.565s-1.267-11.308-.772-12.864-.489-10.359-.82-12.289a10.674,10.674,0,0,1,.91-4.522c.286-.753.521-1.286.521-1.286a13.325,13.325,0,0,1,2.483-4.522,2.277,2.277,0,0,1,1.637-.688,4.094,4.094,0,0,1,2.042.643.572.572,0,0,1,.071.048s10.04,10.259,10.976,12.629A6.064,6.064,0,0,1,229.888,455.695Z" transform="translate(-172.813 -317.045)" opacity="0.1"/>
  <path id="Path_494" data-name="Path 494" d="M228.861,455.2a30.29,30.29,0,0,1-1.348,5.8s-.772,7.834-1.766,10.15-.55,5.516-1.1,11.417a7.486,7.486,0,0,1-1.807,4.57,6.785,6.785,0,0,1-5.4,1.859l-.405-.032c-2.759-.277-5.406-13.568-5.406-13.568s-1.267-11.3-.772-12.848-.5-10.369-.827-12.3a10.683,10.683,0,0,1,.91-4.522c.286-.753.521-1.27.521-1.27a13.325,13.325,0,0,1,2.483-4.522,2.251,2.251,0,0,1,1.637-.685,4.027,4.027,0,0,1,2.042.643l.071.045s10.04,10.259,10.976,12.629A5.939,5.939,0,0,1,228.861,455.2Z" transform="translate(-172.114 -316.712)" fill="#ff748e"/>
  <path id="Path_495" data-name="Path 495" d="M227.019,614.38s-2.277,2.026-3.062,1.93S227.019,614.38,227.019,614.38Z" transform="translate(-181.518 -435.52)" opacity="0.1"/>
  <path id="Path_496" data-name="Path 496" d="M228.769,620.363a32.628,32.628,0,0,1-3.116,1.286C224.935,621.823,227.843,620.077,228.769,620.363Z" transform="translate(-182.664 -439.557)" opacity="0.1"/>
  <path id="Path_497" data-name="Path 497" d="M264.44,525.65s3.557.042,4.094,1.158S265.585,525.194,264.44,525.65Z" transform="translate(-209.053 -375.291)" opacity="0.1"/>
  <path id="Path_498" data-name="Path 498" d="M262.89,531.8a12.939,12.939,0,0,1,3.557,1.241C267.273,533.7,262.89,531.8,262.89,531.8Z" transform="translate(-208.002 -379.498)" opacity="0.1"/>
  <path id="Path_499" data-name="Path 499" d="M244.689,510.84s-.322,11.208-1.55,12.658S244.689,510.84,244.689,510.84Z" transform="translate(-194.39 -365.279)" opacity="0.1"/>
  <path id="Path_500" data-name="Path 500" d="M237.9,607.759s-2.283,9.886,2.3,10.5S243.36,607,243.36,607Z" transform="translate(-190.662 -430.513)" opacity="0.1"/>
  <path id="Path_501" data-name="Path 501" d="M237.39,607.263s-2.271,9.886,2.3,10.5,3.161-11.256,3.161-11.256Z" transform="translate(-190.32 -430.181)" fill="#ecb4b6"/>
  <path id="Path_502" data-name="Path 502" d="M236.2,390.185a3.348,3.348,0,0,1-.322-.6c-.608-1.267-2.171-.643-3.316-.042l-.611.788a4.9,4.9,0,0,0-.7,1.077,8.156,8.156,0,0,0-.293.965c-.158.56-.389,1.093-.6,1.64a19.067,19.067,0,0,0-1.219,5.673,8.78,8.78,0,0,1-1.576.142h-.039v-.039c.058-.219.106-.441.151-.663h0a11.475,11.475,0,0,0,.087-3.795v-.084c-.042-.28-.1-.563-.119-.843-.106.193-.209.389-.322.589a6.3,6.3,0,0,1-2.724,3.136,5.586,5.586,0,0,1-1.656.373,9.449,9.449,0,0,0-2.071.344,1.287,1.287,0,0,0-.6.363,1.775,1.775,0,0,0-.3.907,7.313,7.313,0,0,1-.322,1.258,11.024,11.024,0,0,1-2.7,4.026l-.3.289a5.6,5.6,0,0,1-1.788,1.238,5.466,5.466,0,0,1-1.894.283c.286-.753.521-1.27.521-1.27a13.325,13.325,0,0,1,2.483-4.522,2.251,2.251,0,0,1,1.637-.685,24.291,24.291,0,0,0,2.978-4.428,8.683,8.683,0,1,1,15.62-6.11Z" transform="translate(-174.136 -278.193)" opacity="0.1"/>
  <path id="Path_503" data-name="Path 503" d="M228.839,370.947a5.925,5.925,0,0,0-1.93-1.238,1.47,1.47,0,0,1-.627-.457,1.91,1.91,0,0,1-.193-.788c-.241-1.679-1.8-2.84-3.358-3.522-2-.878-4.4-1.254-6.323-.212a20.517,20.517,0,0,0-2.512,1.949c-1.068.817-2.3,1.389-3.435,2.1a6.747,6.747,0,0,0-2.766,2.849c-.836,1.9-.209,4.075-.1,6.146a10.106,10.106,0,0,1-3.8,8.613,3.319,3.319,0,0,0-.836.73.917.917,0,0,0-.068,1.039c.132.18.351.283.5.45a1.429,1.429,0,0,1,.122,1.312,8.207,8.207,0,0,1-2.206,3.772c.045.341.457.473.794.524a18.044,18.044,0,0,0,2.7.2,4.535,4.535,0,0,0,3.772-1.521,10.244,10.244,0,0,0,3.332-5.573,1.836,1.836,0,0,1,.3-.907,1.36,1.36,0,0,1,.6-.363c1.2-.412,2.573-.209,3.727-.717,1.505-.643,2.251-2.251,3.039-3.724.026.28.077.563.122.846a11.437,11.437,0,0,1-.225,4.541,9.424,9.424,0,0,0-.5,2.541c.016.643.669,4,1.528,3s.544-3.232.544-4.48a19.152,19.152,0,0,1,1.264-6.834c.206-.544.441-1.081.6-1.64a8.784,8.784,0,0,1,.289-.965,5.038,5.038,0,0,1,.7-1.077l.614-.788c1.145-.608,2.708-1.225,3.316.042.232.486.357,1.023.965.55a2.161,2.161,0,0,0,.566-1.248C229.727,374.34,230.042,372.278,228.839,370.947Z" transform="translate(-166.219 -265.731)" fill="#464353"/>
  <path id="Path_504" data-name="Path 504" d="M226.77,468.891a5.4,5.4,0,0,0-10.488-1.55.815.815,0,0,0-.039.116c-1.27,3.8-.717,13.44-.717,13.44s.164,6.471.772,8.622,2.316,8.326,2.316,9.327,1.585,4.8,2.251,5.075,1,2.425,1.167,2.811.643,5.406.643,5.406,6.233-.386,6.342-1.38-1.38-5.847-1.38-5.847a11.25,11.25,0,0,1-1.238-3.583c-.142-1.6-1-2.325-.833-3.428s-.5-1.653-.5-2.37a17.643,17.643,0,0,0-.5-2.647s-1.048-.83-.881-1.82-1.489-2.978-1.048-3.7a7.463,7.463,0,0,0,.55-2.483s.553-7.94.939-10.092,2.647-5.625,2.647-5.625S226.777,469.068,226.77,468.891Z" transform="translate(-175.79 -333.312)" opacity="0.1"/>
  <path id="Path_505" data-name="Path 505" d="M225.122,503.384a6.785,6.785,0,0,1-5.4,1.859c-.2-.753-.489-1.679-.91-1.852-.669-.277-2.251-4.081-2.251-5.072s-1.708-7.172-2.316-9.327-.772-8.619-.772-8.619-.553-9.648.717-13.443a.335.335,0,0,1,.039-.113c1.93-5.622,10.253-4.39,10.488,1.55v.273s-2.251,3.473-2.647,5.625-.933,10.092-.933,10.092a7.493,7.493,0,0,1-.553,2.483c-.441.717,1.212,2.7,1.048,3.7a2.265,2.265,0,0,0,.881,1.82,17.621,17.621,0,0,1,.5,2.65c0,.72.663,1.267.5,2.37s.717,1.82.859,3.419A8.914,8.914,0,0,0,225.122,503.384Z" transform="translate(-174.399 -332.957)" opacity="0.1"/>
  <path id="Path_506" data-name="Path 506" d="M225.74,468.381a5.4,5.4,0,0,0-10.487-1.55l-.039.113c-1.27,3.808-.717,13.443-.717,13.443s.164,6.467.772,8.619,2.316,8.33,2.316,9.327,1.585,4.8,2.251,5.075,1,2.428,1.167,2.814.643,5.4.643,5.4,6.233-.386,6.342-1.376-1.376-5.847-1.376-5.847a11.254,11.254,0,0,1-1.241-3.586c-.141-1.6-1.023-2.316-.855-3.419s-.5-1.656-.5-2.373a17.643,17.643,0,0,0-.5-2.647,2.25,2.25,0,0,1-.881-1.82c.167-.994-1.489-2.978-1.048-3.7a7.449,7.449,0,0,0,.55-2.48s.553-7.944.939-10.1,2.647-5.625,2.647-5.625A1.4,1.4,0,0,0,225.74,468.381Z" transform="translate(-175.091 -332.966)" fill="#ff748e"/>
  <path id="Path_507" data-name="Path 507" d="M217.88,521.165c.164-.167,3.309-3.641,4.3-2.4S217.88,521.165,217.88,521.165Z" transform="translate(-177.467 -370.474)" opacity="0.1"/>
  <path id="Path_508" data-name="Path 508" d="M218.78,530.138c.122-.125,3.142-.248,3.888-1.93S218.78,530.138,218.78,530.138Z" transform="translate(-178.078 -376.758)" opacity="0.1"/>
  <g id="Group_16" data-name="Group 16" transform="translate(35.174 107.396)" opacity="0.1">
    <path id="Path_509" data-name="Path 509" d="M206.748,437.522a.852.852,0,0,1,.164.3,1.286,1.286,0,0,0-.164-1.126c-.148-.17-.363-.27-.5-.45l-.026-.045a.852.852,0,0,0,.026.872C206.4,437.252,206.6,437.355,206.748,437.522Z" transform="translate(-204.66 -422.04)"/>
    <path id="Path_510" data-name="Path 510" d="M220.471,397.828v-.939c-.058-1.126-.267-2.28-.322-3.409a41.2,41.2,0,0,0,.322,4.236C220.471,397.748,220.468,397.783,220.471,397.828Z" transform="translate(-214.174 -393.059)"/>
    <path id="Path_511" data-name="Path 511" d="M258.027,444.235c-.765.9-1.367-1.685-1.5-2.7a4.234,4.234,0,0,0-.029.534c.019.643.669,4,1.528,3a4.41,4.41,0,0,0,.6-2.914A3.468,3.468,0,0,1,258.027,444.235Z" transform="translate(-238.84 -425.656)"/>
    <path id="Path_512" data-name="Path 512" d="M219.979,417.636a11.067,11.067,0,0,1,.119,1.306,11.3,11.3,0,0,0-.119-2.135c-.042-.28-.1-.563-.122-.846-.794,1.486-1.531,3.075-3.036,3.727-1.167.5-2.528.306-3.727.717a1.286,1.286,0,0,0-.6.363,1.794,1.794,0,0,0-.3.907,10.287,10.287,0,0,1-3.335,5.573,4.535,4.535,0,0,1-3.772,1.521,18.442,18.442,0,0,1-2.7-.2,2.04,2.04,0,0,1-.405-.106c-.125.142-.257.277-.392.408.045.341.46.473.8.524a18.014,18.014,0,0,0,2.7.2,4.535,4.535,0,0,0,3.772-1.521,10.269,10.269,0,0,0,3.335-5.573,1.8,1.8,0,0,1,.3-.907,1.325,1.325,0,0,1,.6-.363c1.2-.412,2.573-.209,3.727-.717,1.505-.643,2.251-2.251,3.036-3.724C219.883,417.07,219.938,417.353,219.979,417.636Z" transform="translate(-201.59 -408.309)"/>
    <path id="Path_513" data-name="Path 513" d="M271.253,394.309a2.174,2.174,0,0,1-.569,1.248c-.6.47-.727-.064-.965-.55-.608-1.267-2.171-.643-3.316-.042l-.614.788a4.9,4.9,0,0,0-.7,1.077,7.58,7.58,0,0,0-.289.965c-.161.56-.392,1.094-.6,1.637a19.248,19.248,0,0,0-1.261,6.834v.341a19.2,19.2,0,0,1,1.257-6.345c.209-.543.441-1.081.6-1.64a7.586,7.586,0,0,1,.289-.965,4.9,4.9,0,0,1,.7-1.077l.614-.788c1.145-.608,2.708-1.225,3.316.042.235.486.357,1.023.965.55a2.164,2.164,0,0,0,.569-1.248,10.906,10.906,0,0,0,.322-2.965A14.183,14.183,0,0,1,271.253,394.309Z" transform="translate(-243.21 -392.17)"/>
  </g>
  <path id="Path_514" data-name="Path 514" d="M311.9,470.333l.17.116a.682.682,0,0,1-.177-.965l7.667-11.108a.679.679,0,0,1,.949-.174l-.17-.119a1.1,1.1,0,0,1,.28,1.524l-7.194,10.442A1.1,1.1,0,0,1,311.9,470.333Z" transform="translate(-241.157 -329.487)" fill="#464353"/>
  <path id="Path_515" data-name="Path 515" d="M.56,0H.717V14.877H.56a.56.56,0,0,1-.56-.56V.563A.56.56,0,0,1,.56,0Z" transform="translate(78.8 128.321) rotate(34.56)" fill="#9f9eff"/>
  <rect id="Rectangle_187" data-name="Rectangle 187" width="0.138" height="1.212" rx="0.069" transform="translate(78.244 130.265) rotate(34.56)" fill="#464353"/>
  <path id="Path_516" data-name="Path 516" d="M818.188,328.541A5.554,5.554,0,1,1,812.634,323a5.554,5.554,0,0,1,5.554,5.541Zm-6.2,2.939,4.123-4.12a.36.36,0,0,0,0-.5l-.508-.508a.354.354,0,0,0-.5,0l-3.361,3.361-1.569-1.563a.363.363,0,0,0-.508,0l-.505.508a.354.354,0,0,0,0,.5l2.328,2.328a.354.354,0,0,0,.5,0Z" transform="translate(-577.178 -237.849)" fill="#3acc6c"/>
  <path id="Path_517" data-name="Path 517" d="M608.978,518.054a5.554,5.554,0,1,1-5.554-5.554A5.554,5.554,0,0,1,608.978,518.054Zm-6.2,2.939,4.136-4.12a.357.357,0,0,0,0-.508l-.521-.489a.357.357,0,0,0-.508,0l-3.361,3.345-1.569-1.569a.354.354,0,0,0-.505,0l-.508.5a.363.363,0,0,0,0,.508l2.328,2.328a.357.357,0,0,0,.508,0Z" transform="translate(-435.251 -366.405)" fill="#3acc6c"/>
  <path id="Path_518" data-name="Path 518" d="M608.978,706.714a5.554,5.554,0,1,1-5.554-5.554A5.554,5.554,0,0,1,608.978,706.714Zm-6.2,2.939,4.136-4.12a.357.357,0,0,0,0-.508l-.505-.5a.357.357,0,0,0-.508,0l-3.361,3.361-1.569-1.569a.354.354,0,0,0-.5,0l-.508.5a.363.363,0,0,0,0,.508l2.328,2.328a.357.357,0,0,0,.508,0Z" transform="translate(-435.251 -494.391)" fill="#3acc6c"/>
</svg>
