<svg xmlns="http://www.w3.org/2000/svg" xmlns:xlink="http://www.w3.org/1999/xlink" width="278.326" height="222.114" viewBox="0 0 278.326 222.114"><defs><linearGradient id="a" x1="0.5" y1="1" x2="0.5" gradientUnits="objectBoundingBox"><stop offset="0" stop-color="gray" stop-opacity="0.251"/><stop offset="0.54" stop-color="gray" stop-opacity="0.122"/><stop offset="1" stop-color="gray" stop-opacity="0.102"/></linearGradient><linearGradient id="j" x1="0.516" y1="0.999" x2="0.516" y2="-0.001" xlink:href="#a"/><linearGradient id="k" x1="1.221" y1="1.356" x2="1.221" y2="0.356" xlink:href="#a"/><linearGradient id="l" x1="1.26" y1="1.627" x2="1.26" y2="0.627" xlink:href="#a"/><linearGradient id="m" x1="0.506" y1="0.964" x2="0.506" y2="0.023" xlink:href="#a"/><linearGradient id="n" xlink:href="#a"/><linearGradient id="o" x1="0.498" x2="0.498" y2="0.007" xlink:href="#a"/><linearGradient id="p" xlink:href="#a"/><linearGradient id="u" xlink:href="#a"/><linearGradient id="aa" x1="0" y1="0.5" x2="1" y2="0.5" xlink:href="#a"/></defs><ellipse cx="20.929" cy="5.31" rx="20.929" ry="5.31" transform="translate(94.649 211.493)" fill="#f2f2f2"/><ellipse cx="20.929" cy="5.31" rx="20.929" ry="5.31" transform="translate(96.211 152.767)" fill="#f2f2f2"/><ellipse cx="20.929" cy="5.31" rx="20.929" ry="5.31" transform="translate(0 155.266)" fill="#f2f2f2"/><rect width="119.639" height="4.529" transform="translate(7.066 1.249)" fill="#f5f5f5"/><rect width="123.7" height="151.814" transform="translate(4.879)" fill="url(#a)"/><rect width="119.639" height="143.536" transform="translate(7.066 5.779)" fill="#fff"/><ellipse cx="1" cy="1.5" rx="1" ry="1.5" transform="translate(8 2)" fill="#ff5252"/><circle cx="1.093" cy="1.093" r="1.093" transform="translate(11.439 2.499)" fill="#ff0"/><circle cx="1.093" cy="1.093" r="1.093" transform="translate(14.447 2.499)" fill="#69f0ae"/><g transform="translate(10.502 11.245)" opacity="0.2"><rect width="46.544" height="2.811" fill="#6c63ff"/></g><rect width="46.544" height="2.811" transform="translate(43.614 22.803)" fill="#f5f5f5"/><rect width="46.544" height="2.811" transform="translate(10.502 113.392)" fill="#6c63ff" opacity="0.5"/><rect width="15.619" height="3.436" transform="translate(63.293 113.08)" fill="url(#a)"/><rect width="15.619" height="3.436" transform="translate(63.293 130.572)" fill="url(#a)"/><rect width="15.619" height="3.436" transform="translate(95.155 130.572)" fill="url(#a)"/><rect width="14.682" height="2.811" transform="translate(63.918 113.392)" fill="#6c63ff"/><rect width="14.682" height="2.811" transform="translate(63.918 130.885)" fill="#6c63ff"/><rect width="14.682" height="2.811" transform="translate(95.468 130.885)" fill="#6c63ff"/><rect width="46.544" height="2.811" transform="translate(10.502 122.138)" fill="#f5f5f5"/><rect width="46.544" height="2.811" transform="translate(63.918 122.138)" fill="#6c63ff" opacity="0.5"/><rect width="46.544" height="2.811" transform="translate(63.918 139.631)" fill="#f5f5f5"/><rect width="46.544" height="2.811" transform="translate(10.502 130.885)" fill="#6c63ff" opacity="0.5"/><rect width="46.544" height="2.811" transform="translate(10.502 139.631)" fill="#f5f5f5"/><rect width="26.239" height="2.811" transform="translate(43.614 27.489)" fill="#f5f5f5"/><rect width="9.059" height="2.811" transform="translate(74.539 27.489)" fill="#f5f5f5"/><rect width="26.239" height="2.811" transform="translate(43.614 36.86)" fill="#f5f5f5"/><rect width="9.059" height="2.811" transform="translate(74.539 36.86)" fill="#f5f5f5"/><rect width="46.544" height="2.811" transform="translate(43.614 32.175)" fill="#f5f5f5"/><g transform="translate(76.101 11.245)" opacity="0.2"><rect width="46.544" height="2.811" fill="#6c63ff"/></g><rect width="5.623" height="3.436" transform="translate(102.34 22.491)" fill="url(#a)"/><rect width="5.623" height="3.436" transform="translate(102.34 27.177)" fill="url(#a)"/><rect width="5.623" height="3.436" transform="translate(102.34 31.862)" fill="url(#a)"/><rect width="4.998" height="2.811" transform="translate(102.652 22.803)" fill="#ff5252"/><rect width="4.998" height="2.811" transform="translate(102.652 27.489)" fill="#ff9800"/><rect width="4.998" height="2.811" transform="translate(102.652 32.175)" fill="#69f0ae"/><rect width="5.623" height="3.436" transform="translate(102.34 36.548)" fill="url(#a)"/><rect width="4.998" height="2.811" transform="translate(102.652 36.86)" fill="#6c63ff"/><rect width="114.641" height="46.856" transform="translate(9.565 56.852)" fill="url(#a)"/><rect width="112.142" height="44.357" transform="translate(10.502 57.789)" fill="#6c63ff" opacity="0.5"/><path d="M37.056,188.436H145.762V185H33.62v44.357h3.436Z" transform="translate(-23.118 -127.211)" fill="#fff" opacity="0.5"/><rect width="115.579" height="47.481" transform="translate(10.145 64.383) rotate(-5.2)" fill="url(#j)"/><rect width="112.142" height="44.357" transform="translate(12.123 65.454) rotate(-5.2)" fill="#fff"/><path d="M215.737,338.018,213.8,313.412s10-10.621,30.175-2.749,29.694,2.315,32.974-3,20.3-11.245,25.821-2.352S314.9,304.2,314.9,304.2l2.237,24.574Z" transform="translate(-195.276 -236.312)" fill="#6c63ff" opacity="0.5"/><line x2="0.169" y2="1.868" transform="translate(30.622 71.74)" fill="none" stroke="#6c63ff" stroke-miterlimit="10" stroke-width="1"/><line x2="1.793" y2="19.698" transform="translate(31.119 77.188)" fill="none" stroke="#6c63ff" stroke-miterlimit="10" stroke-width="1" stroke-dasharray="11.51 11.51"/><line x2="0.172" y2="1.865" transform="translate(33.074 98.676)" fill="none" stroke="#6c63ff" stroke-miterlimit="10" stroke-width="1"/><line x2="0.172" y2="1.865" transform="translate(49.83 74.789)" fill="none" stroke="#6c63ff" stroke-miterlimit="10" stroke-width="1"/><line x2="1.296" y2="14.216" transform="translate(50.37 80.718)" fill="none" stroke="#6c63ff" stroke-miterlimit="10" stroke-width="1" stroke-dasharray="13.06 13.06"/><line x2="0.169" y2="1.868" transform="translate(51.851 96.964)" fill="none" stroke="#6c63ff" stroke-miterlimit="10" stroke-width="1"/><line x2="0.187" y2="1.865" transform="translate(69.428 78.125)" fill="none" stroke="#6c63ff" stroke-miterlimit="10" stroke-width="1"/><line x2="1.056" y2="10.652" transform="translate(69.919 83.035)" fill="none" stroke="#6c63ff" stroke-miterlimit="10" stroke-width="1" stroke-dasharray="9.79 9.79"/><line x2="0.184" y2="1.868" transform="translate(71.128 95.209)" fill="none" stroke="#6c63ff" stroke-miterlimit="10" stroke-width="1"/><line x2="0.169" y2="1.868" transform="translate(87.043 67.111)" fill="none" stroke="#6c63ff" stroke-miterlimit="10" stroke-width="1"/><line x2="1.759" y2="19.302" transform="translate(87.53 72.486)" fill="none" stroke="#6c63ff" stroke-miterlimit="10" stroke-width="1" stroke-dasharray="11.28 11.28"/><line x2="0.172" y2="1.868" transform="translate(89.448 93.541)" fill="none" stroke="#6c63ff" stroke-miterlimit="10" stroke-width="1"/><line x2="0.169" y2="1.865" transform="translate(99.757 64.533)" fill="none" stroke="#6c63ff" stroke-miterlimit="10" stroke-width="1"/><line x2="1.859" y2="20.407" transform="translate(100.263 70.109)" fill="none" stroke="#6c63ff" stroke-miterlimit="10" stroke-width="1" stroke-dasharray="11.93 11.93"/><line x2="0.172" y2="1.865" transform="translate(102.29 92.372)" fill="none" stroke="#6c63ff" stroke-miterlimit="10" stroke-width="1"/><circle cx="1.562" cy="1.562" r="1.562" transform="translate(28.866 70.206) rotate(-5.2)" fill="#ff9800"/><circle cx="1.562" cy="1.562" r="1.562" transform="translate(47.983 73.486) rotate(-5.2)" fill="#ff5252"/><circle cx="1.562" cy="1.562" r="1.562" transform="translate(67.726 76.706) rotate(-5.2)" fill="#69f0ae"/><circle cx="2.187" cy="2.187" r="2.187" transform="translate(84.552 65.138) rotate(-5.2)" fill="url(#k)"/><circle cx="2.187" cy="2.187" r="2.187" transform="translate(97.504 62.706) rotate(-5.2)" fill="url(#l)"/><circle cx="1.562" cy="1.562" r="1.562" transform="translate(85.23 65.703) rotate(-5.2)" fill="#6c63ff"/><circle cx="1.562" cy="1.562" r="1.562" transform="translate(98.182 63.271) rotate(-5.2)" fill="#6c63ff"/><circle cx="1.562" cy="1.562" r="1.562" transform="translate(117.979 67.115) rotate(-5.2)" fill="#69f0ae"/><g transform="translate(122.844 99.545)" opacity="0.2"><path d="M547.76,413.168l.022.072C548.022,413.106,547.76,413.168,547.76,413.168Z" transform="translate(-547.76 -413.154)" fill="url(#m)"/></g><g transform="translate(101.505 98.086)" opacity="0.2"><path d="M498.2,462.428l5.085-.822-.7-3.124h0v-.044h-.019l-3.6-16.556V429.81a4.455,4.455,0,0,0-.025-.459c5.385-7.141,2.187-18.346,1.874-19.324-.056.028-.141.066-.259.112a6.571,6.571,0,0,0-.247-1.29s-1.562-.993-2.415.284a1.461,1.461,0,0,0-.037,1.955l-.106.034a3.6,3.6,0,0,1,.494,1.231,2.7,2.7,0,0,0-.169-.312c-.2-.034-.312-.066-.312-.066l-.037-.034-.106.034a7.131,7.131,0,0,1,.706,3.842,5.428,5.428,0,0,0-.625-.722,5.513,5.513,0,0,0-3.655-1.524h-.259a3.237,3.237,0,0,0-.425.028h-.106l-.178.025-.2.037-.147.031-.253.069-.094.028c-.106.034-.209.069-.312.109a5.385,5.385,0,0,1-1.071.387.521.521,0,0,0-.153.016h0a1.787,1.787,0,0,1-1.171-.334l-.112-.087a1.658,1.658,0,0,1-.122-.116.794.794,0,0,0-.053.34,1.047,1.047,0,0,0,.365.709.989.989,0,0,0,.194.131.838.838,0,0,0,.331.094h.091c-.072.034-.144.066-.219.094h-.016c-.081.028-.159.053-.244.075h0a2.712,2.712,0,0,1-1.25.019h0l-.134-.031c-.066-.019-.134-.037-.2-.059a1.5,1.5,0,0,0,.069.137l.025.041.056.087.034.044.062.078.037.041.078.078.031.028.116.1.041.028.084.059.056.034.075.044.062.031.078.034.066.028.087.031.109.031.081.022h.544a1.562,1.562,0,0,0,.469-.116l-.287.119h0l-.144.05-.147.053-.147.044-.15.044-.147.037-.156.038-.144.028-.166.028-.137.022-.178.022h-.75a1.317,1.317,0,0,1,.472.25,1.249,1.249,0,0,0,.29.156,1.129,1.129,0,0,0,.141.031h.7a2.043,2.043,0,0,1,.809.259,1.453,1.453,0,0,1,.347.312c-.044.072-.087.141-.125.216s-.066.125-.1.191a3.882,3.882,0,0,0-.166.4,4.4,4.4,0,0,0-.269,1.515v.362a1.031,1.031,0,0,0,.025.225v.059q.019.137.05.272v.053q.025.112.056.222l.019.066a4.373,4.373,0,0,0,.191.519l.022.05q.053.116.109.225v.022q.069.125.144.247v.019q.069.112.147.219l.019.025a4.434,4.434,0,0,0,.365.44h0a4.42,4.42,0,0,0,1.178.884,1.965,1.965,0,0,0-.034.2h0a1.988,1.988,0,0,0,0,.212v1.649q-.141.075-.275.159c-3.914-1.777-9.743-14.369-9.743-14.369h-.141c.568-.425,0-2.274,0-2.274a2.669,2.669,0,0,0-1.093-.362h-.5l-.062.019h-.031l-.094.034h0l-.088.041-.031.016-.059.034-.041.191-.056.037-.034.028-.053.044-.034.031-.053.05-.031.034-.053.063-.025.031-.078.106c-.853,1.278,0,1.99,0,1.99a12.724,12.724,0,0,0-.078,1.484c-.062,9.2,9.787,16.334,10.29,16.69a18.89,18.89,0,0,0,.022,12.023.2.2,0,0,0,.025.044,18.455,18.455,0,0,0-5.535,17.455l.041.191h.091a1.25,1.25,0,0,1-.034.125,1.438,1.438,0,0,1-.091.219,1.7,1.7,0,0,1-.228.334h0c-.1.112-.209.225-.328.34l-.125.119c-.5.475-1,.937-.625,1.125h5.376v-2.346h.094s-.037-.072-.094-.212v-.025h-.019a9.909,9.909,0,0,1,.112-6.422c1.278-4.264,6.247-6.394,6.247-6.394l.091.312h-.019l3.9,12.807a.521.521,0,0,1-.016.153,2.091,2.091,0,0,1-.084.356,2.267,2.267,0,0,1-.106.262c-.241.5-.656,1.081-.837,1.518a1.467,1.467,0,0,0-.066.184.567.567,0,0,0-.022.219.253.253,0,0,0,.166.209h.072l.15-.025Zm-1.506-36.463q-.147-.081-.312-.153v-1.549a1.974,1.974,0,0,0-.034-.353,4.409,4.409,0,0,0,.937-.6c-.187.956-.4,1.871-.587,2.658Z" transform="translate(-479.447 -408.482)" fill="url(#n)"/></g><path d="M479.463,416.644s-.937-.787,0-2.205,2.677-.312,2.677-.312.625,2.046,0,2.518S479.463,416.644,479.463,416.644Z" transform="translate(-377.667 -313.995)" fill="#ca7070"/><path d="M498.116,591.75h-4.339a1.424,1.424,0,0,1-.409,1.115c-.584.675-1.759,1.49-1.206,1.768h5.954Z" transform="translate(-386.586 -436.416)" fill="#00695c"/><path d="M493.691,592.865a1.425,1.425,0,0,0,.409-1.115h-.312a1.425,1.425,0,0,1-.409,1.115c-.584.675-1.759,1.49-1.206,1.768h.312C491.932,594.355,493.107,593.543,493.691,592.865Z" transform="translate(-386.593 -436.416)" fill="#fff" opacity="0.2"/><path d="M549.394,588.89l-4.061.659a2.068,2.068,0,0,1-.184,1.431c-.444.937-1.44,2.105-.84,2.358l5.879-.937Z" transform="translate(-422.414 -434.449)" fill="#00695c"/><path d="M542.785,416.916s4.645,14.653-3.146,22.766l-2.249-1.721s4.6-15.994,2.027-19.748C543.965,416.7,542.785,416.916,542.785,416.916Z" transform="translate(-417.785 -316.188)" fill="#00695c"/><path d="M543.463,414.634s-.937-.787,0-2.205,2.677-.312,2.677-.312.625,2.046,0,2.518S543.463,414.634,543.463,414.634Z" transform="translate(-421.675 -312.613)" fill="#ca7070"/><path d="M545.461,590.949a2.068,2.068,0,0,0,.184-1.434l3.748-.625v-.05l-4.061.675a2.068,2.068,0,0,1-.184,1.431c-.444.937-1.44,2.105-.84,2.358l.247-.041C544.109,592.951,545.036,591.829,545.461,590.949Z" transform="translate(-422.414 -434.415)" fill="#fff" opacity="0.2"/><rect width="4.408" height="6.532" rx="2.204" transform="translate(115.728 114.379)" fill="#ca7070"/><path d="M537.362,443.769s4.548-15.8,2.071-19.68c-.219-.041-.359-.072-.359-.072l-.041-.037-.116.037c2.577,3.748-2.027,19.748-2.027,19.748l2.249,1.721.2-.212Z" transform="translate(-417.441 -321.053)" fill="#fff" opacity="0.2"/><circle cx="4.879" cy="4.879" r="4.879" transform="translate(113.133 106.904)" fill="#ca7070"/><path d="M519.8,448.528V446.4a2.189,2.189,0,0,1,.05-.462,4.879,4.879,0,0,1,1.955-9.212h-.275a4.879,4.879,0,0,0-2.234,9.218,2.185,2.185,0,0,0-.05.462v2.124a2.187,2.187,0,0,0,2.48,2.187A2.212,2.212,0,0,1,519.8,448.528Z" transform="translate(-403.526 -329.82)" fill="#fff" opacity="0.2"/><path d="M524.292,489.988s-9.412,1.062-9.759,0a20.806,20.806,0,0,1,0-13.379,4.879,4.879,0,0,1,4.879-4.879h0a4.879,4.879,0,0,1,4.879,4.879Z" transform="translate(-401.322 -353.887)" fill="#00695c"/><path d="M512.048,530.18,516.3,549.7h-4.251l-4.408-14.482s-5.51,2.362-6.925,7.085,0,7.4,0,7.4h-4.567l-.047-.212a20.3,20.3,0,0,1,6.185-19.308h0" transform="translate(-389.079 -394.079)" fill="#263238"/><path d="M514.911,490.009a20.806,20.806,0,0,1,0-13.379,4.879,4.879,0,0,1,4.565-4.87h-.313a4.879,4.879,0,0,0-4.879,4.879,20.81,20.81,0,0,0,0,13.379c.125.381,1.412.487,3.011.472C515.995,490.462,515.011,490.337,514.911,490.009Z" transform="translate(-401.151 -353.907)" fill="#fff" opacity="0.2"/><path d="M491.528,443.082s-12.592-8.815-11.333-19.992h2.833s6.766,14.653,11.1,16.059S491.528,443.082,491.528,443.082Z" transform="translate(-378.396 -320.441)" fill="#00695c"/><g transform="translate(106.571 136.18)" opacity="0.2"><path d="M534.31,546.826l4.326,14.216h.625l-4.408-14.482S534.651,546.647,534.31,546.826Z" transform="translate(-522.238 -541.521)" fill="#fff"/><path d="M502.931,530.43h-.625a20.3,20.3,0,0,0-6.185,19.308l.047.212h.625l-.047-.212A20.3,20.3,0,0,1,502.931,530.43Z" transform="translate(-495.663 -530.43)" fill="#fff"/></g><path d="M480.67,423.6H480.2c-1.25,11.177,11.333,19.992,11.333,19.992l.312-.119C490.384,442.4,479.492,434.033,480.67,423.6Z" transform="translate(-378.398 -320.791)" fill="#fff" opacity="0.2"/><path d="M512.555,434.632a8.078,8.078,0,0,1,.568,1.965,5.21,5.21,0,0,0,2.234,3.436,4.958,4.958,0,0,0,2.187.6,4.175,4.175,0,0,0,3.242-.978,4.017,4.017,0,0,0,.99-2,6.757,6.757,0,0,0-1.777-6.21,5.994,5.994,0,0,0-6.247-1.309,5.964,5.964,0,0,1-1.184.431,1.971,1.971,0,0,1-1.727-.575,1.09,1.09,0,0,0,1.053,1.412,3.04,3.04,0,0,1-2.33.125,1.977,1.977,0,0,0,2.5,1,6.659,6.659,0,0,1-2.811.575c.2,0,.6.375.847.45a5.37,5.37,0,0,0,.937.066A1.818,1.818,0,0,1,512.555,434.632Z" transform="translate(-398.435 -325.029)" fill="#263238"/><g transform="translate(110.802 104.73)" opacity="0.2"><path d="M515.206,431.892a3.008,3.008,0,0,1-1.156.3,3.031,3.031,0,0,0,1.471-.3,1.1,1.1,0,0,1-1.106-1.19,1.855,1.855,0,0,1-.262-.222,1.09,1.09,0,0,0,1.053,1.412Z" transform="translate(-512.538 -430.252)" fill="#fff"/><path d="M519.851,430.563a5.966,5.966,0,0,0,1.184-.431,5.429,5.429,0,0,1,1.874-.378,5.486,5.486,0,0,0-2.187.378,5.97,5.97,0,0,1-1.184.431.519.519,0,0,0-.169.019A1.873,1.873,0,0,0,519.851,430.563Z" transform="translate(-516.196 -429.751)" fill="#fff"/><path d="M510.369,439.645c-.247-.072-.643-.444-.847-.45a6.66,6.66,0,0,0,2.811-.575,1.745,1.745,0,0,1-.625.131,6.664,6.664,0,0,1-2.5.444c.2,0,.6.375.847.45a2.1,2.1,0,0,0,.656.053A1.367,1.367,0,0,1,510.369,439.645Z" transform="translate(-509.21 -435.849)" fill="#fff"/><path d="M521.427,449.117a4.957,4.957,0,0,1-2.187-.6,5.285,5.285,0,0,1-2.234-3.436,8.077,8.077,0,0,0-.568-1.965,1.818,1.818,0,0,0-1.54-1.009,3.143,3.143,0,0,0-.469,0h.153a1.818,1.818,0,0,1,1.54,1.009,8.073,8.073,0,0,1,.569,1.965,5.21,5.21,0,0,0,2.233,3.436,4.957,4.957,0,0,0,2.187.6h.315Z" transform="translate(-512.799 -438.244)" fill="#fff"/><path d="M512.255,436.525a1.993,1.993,0,0,1-1.6-1.021,2.906,2.906,0,0,1-.365-.1A1.993,1.993,0,0,0,512.255,436.525Z" transform="translate(-509.953 -433.635)" fill="#fff"/></g><path d="M479.786,416.638s-.937-.787,0-2.205a1.509,1.509,0,0,1,1.168-.715,1.531,1.531,0,0,0-1.481.715c-.937,1.418,0,2.205,0,2.205a8.535,8.535,0,0,0,1.852.206A9.313,9.313,0,0,1,479.786,416.638Z" transform="translate(-377.673 -313.988)" fill="#fff" opacity="0.2"/><g transform="translate(11.424 102.627)" opacity="0.2"><path d="M191.2,423.115l.025-.084S190.9,422.968,191.2,423.115Z" transform="translate(-191.072 -423.018)" fill="url(#o)"/></g><g transform="translate(4.936 100.862)" opacity="0.2"><path d="M206.348,424.466a2.053,2.053,0,0,0-.112-.29c0-.031-.031-.056-.047-.084a1.762,1.762,0,0,0-.094-.162l-.062-.081a1.59,1.59,0,0,0-.1-.122l-.072-.072q-.056-.052-.112-.094l-.078-.056-.125-.075-.078-.041-.141-.059-.072-.028a1.732,1.732,0,0,0-.2-.056h0a3.227,3.227,0,0,0-1.371.038s-1.309,1.93-.806,2.624l-.166-.05s-9.724,10.852-15.21,12.867q-.209-.144-.434-.269v-2.03a2.39,2.39,0,0,0,0-.256h0a2.37,2.37,0,0,0-.041-.241l.041-.022.162-.091.234-.144.15-.1a3.113,3.113,0,0,0,.312-.244l.122-.106q.112-.094.216-.2l.125-.122q.131-.134.25-.275l.087-.106q.112-.141.216-.287l.087-.131q.094-.144.178-.294l.056-.1a4.278,4.278,0,0,0,.191-.4l.05-.122q.066-.166.122-.334a.58.58,0,0,1,.037-.119c.044-.147.084-.294.116-.447a.186.186,0,0,1,.016-.091q.037-.191.059-.387v-.131c0-.159.025-.312.025-.484a5.311,5.311,0,0,0-1.181-3.34c.416-.649.688-1.033.688-1.033-.25-.172-.5-.328-.74-.481l-.237-.141c-.162-.1-.312-.194-.487-.281l-.272-.144c-.147-.078-.29-.153-.434-.222l-.278-.128-.415-.181-.272-.109c-.137-.053-.275-.1-.409-.15l-.256-.087c-.141-.044-.281-.084-.419-.122l-.228-.062c-.156-.037-.312-.069-.465-.1l-.166-.034c-.209-.038-.415-.066-.625-.084h0a7.406,7.406,0,0,0-3.748.575,6.918,6.918,0,0,1,.837-3.486l-.128-.044-.044.044s-.153.034-.394.078a3.265,3.265,0,0,0-.2.378,4.346,4.346,0,0,1,.6-1.487l-.128-.044a1.761,1.761,0,0,0-.044-2.358c-1.031-1.543-2.918-.344-2.918-.344a7.984,7.984,0,0,0-.294,1.562c-.144-.059-.247-.1-.312-.137a38.89,38.89,0,0,0-1.465,9.8c-3.4,4.829-4.807,11.958-5.082,13.495h0l-.022.122h0c-.019.112-.028.172-.028.172l8.843.206v14.094l-6.438,13.616s2.449.078,6.135.55l-1.018,7.281h0l-.34,2.043h6.129c.681-1.362-2.724-2.043-2.724-2.043h-.075l1.328-6.794q.881.147,1.812.312a17.749,17.749,0,0,0,2.758.312h0a14.661,14.661,0,0,0,2.3-.1,15.981,15.981,0,0,1-.253,6.247h-.034l-.34,2.043h6.129c.594-1.187-1.918-1.859-2.571-2.009l.028-.2a34.178,34.178,0,0,0,.241-6.935,8.4,8.4,0,0,0,2.187-1.3h0l.084-.075h0l.025-.025-4.564-12.807c.853-3.624-2.115-7.428-.531-9.331a4.686,4.686,0,0,0,.437-4.745c4.286-1.874,12.948-6.56,15.378-14.682a15.357,15.357,0,0,0,.434-1.74S206.879,426.243,206.348,424.466Z" transform="translate(-170.3 -417.368)" fill="url(#p)"/></g><path d="M191.555,430.916s-4.645,14.653,3.146,22.766l2.249-1.721s-4.6-15.994-2.027-19.748C190.374,430.7,191.555,430.916,191.555,430.916Z" transform="translate(-179.035 -325.814)" fill="#ff5252"/><path d="M198.356,428.634s.937-.787,0-2.205-2.677-.312-2.677-.312-.625,2.046,0,2.518S198.356,428.634,198.356,428.634Z" transform="translate(-182.625 -322.239)" fill="#f6b9ad"/><rect width="4.408" height="6.532" rx="2.204" transform="translate(21.791 125.284) rotate(180)" fill="#f6b9ad"/><path d="M204.655,457.769s-4.548-15.8-2.071-19.68c.219-.041.359-.072.359-.072l.041-.037.116.037c-2.577,3.748,2.027,19.748,2.027,19.748l-2.249,1.721-.2-.212Z" transform="translate(-187.056 -330.679)" fill="#fff" opacity="0.2"/><circle cx="4.879" cy="4.879" r="4.879" transform="translate(14.628 111.277)" fill="#f6b9ad"/><path d="M218.085,462.528V460.4a2.187,2.187,0,0,0-.05-.462,4.879,4.879,0,0,0-1.955-9.212h.275a4.879,4.879,0,0,1,2.233,9.218,2.183,2.183,0,0,1,.05.462v2.124a2.187,2.187,0,0,1-2.48,2.187A2.212,2.212,0,0,0,218.085,462.528Z" transform="translate(-196.844 -339.447)" fill="#fff" opacity="0.2"/><path d="M201.08,503.988s9.412,1.062,9.759,0c1.125-3.436-1.874-7.15-.375-8.965,1.562-1.874.375-4.414.375-4.414a4.879,4.879,0,0,0-4.879-4.879h0a4.879,4.879,0,0,0-4.879,4.879Z" transform="translate(-186.53 -363.514)" fill="#ff5252"/><path d="M220.557,495.023c1.562-1.874.375-4.414.375-4.414a4.879,4.879,0,0,0-4.879-4.879,2.071,2.071,0,0,0-.312.016,4.876,4.876,0,0,1,4.567,4.864s1.187,2.54-.375,4.414c-1.512,1.815,1.5,5.526.375,8.965-.106.328-1.078.453-2.368.472,1.59.016,2.871-.091,2.993-.472C222.069,500.546,219.045,496.838,220.557,495.023Z" transform="translate(-196.61 -363.514)" fill="#fff" opacity="0.2"/><path d="M206.126,543.18h0c3.436,4.87,4.957,12.229,3.973,19.308l-.028.212h-2.933s.909-2.677,0-7.4a11.68,11.68,0,0,0-4.448-7.085L199.86,562.7h-2.73l2.73-19.52Z" transform="translate(-183.813 -403.018)" fill="#f6b9ad"/><path d="M273.023,446.087s1.134-.475.647-2.109-2.468-1.084-2.468-1.084-1.2,1.771-.737,2.408S273.023,446.087,273.023,446.087Z" transform="translate(-234.166 -333.997)" fill="#f6b9ad"/><path d="M218.731,467.275s14.622-4.739,16.693-15.794l-2.708-.831s-10.761,12.014-15.306,12.1S218.731,467.275,218.731,467.275Z" transform="translate(-196.571 -339.392)" fill="#ff5252"/><path d="M240.97,453.35l.453.137c-2.071,11.055-16.693,15.794-16.693,15.794l-.259-.2C226.2,468.478,239.039,463.661,240.97,453.35Z" transform="translate(-202.613 -341.248)" fill="#fff" opacity="0.2"/><g transform="translate(15.419 140.162)" opacity="0.2"><path d="M206.69,559.31l-2.83,14.482h.625l2.749-14.057a6.747,6.747,0,0,0-.544-.425Z" transform="translate(-203.86 -554.271)" fill="#fff"/><path d="M224.555,543.18h-.625c3.436,4.87,4.957,12.229,3.973,19.308l-.028.212h.625l.028-.212C229.512,555.409,228,548.05,224.555,543.18Z" transform="translate(-217.661 -543.18)" fill="#fff"/></g><path d="M274.551,446.1s1.134-.475.647-2.109a1.509,1.509,0,0,0-.906-1.028,1.531,1.531,0,0,1,1.206,1.118c.487,1.631-.647,2.109-.647,2.109a8.528,8.528,0,0,1-1.831-.344A9.32,9.32,0,0,0,274.551,446.1Z" transform="translate(-235.997 -334.104)" fill="#fff" opacity="0.2"/><path d="M188.015,542.48l-5.935,12.495a73.4,73.4,0,0,1,10.308,1.25c6.56,1.25,9.684-1.874,9.684-1.874l-4.233-11.87Z" transform="translate(-173.465 -402.536)" fill="#263238"/><path d="M199.244,605.48s3.124.625,2.5,1.874H196.12l.312-1.874Z" transform="translate(-183.119 -445.857)" fill="#ff5252"/><path d="M231.244,605.48s3.124.625,2.5,1.874H228.12l.312-1.874Z" transform="translate(-205.123 -445.857)" fill="#ff5252"/><path d="M192.613,448.709s-7.5,10.621-4.061,14.994l-13.432-.312S178.868,439.338,192.613,448.709Z" transform="translate(-168.679 -336.567)" fill="#fccc63"/><path d="M192.613,448.79a11.379,11.379,0,0,0-5.232-2.13,13.223,13.223,0,0,1,3.67,1.818s-7.5,10.621-4.061,14.994l-11.823-.275c-.031.178-.047.275-.047.275l13.432.312C185.116,459.411,192.613,448.79,192.613,448.79Z" transform="translate(-168.679 -336.648)" fill="#fff" opacity="0.2"/><path d="M226.151,542.48h-.937l4.233,11.87a9.546,9.546,0,0,1-6.216,2.159c4.832.156,7.153-2.159,7.153-2.159Z" transform="translate(-201.761 -402.536)" fill="#fff" opacity="0.2"/><path d="M204.745,605.48h-.625s3.124.625,2.5,1.874h.625C207.868,606.1,204.745,605.48,204.745,605.48Z" transform="translate(-188.62 -445.857)" fill="#fff" opacity="0.2"/><path d="M236.745,605.48h-.625s3.124.625,2.5,1.874h.625C239.868,606.1,236.745,605.48,236.745,605.48Z" transform="translate(-210.624 -445.857)" fill="#fff" opacity="0.2"/><rect width="119.639" height="4.529" transform="translate(156.381 52.379)" fill="#f5f5f5"/><rect width="124.325" height="154.938" transform="translate(154.001 50.933)" fill="url(#a)"/><rect width="119.639" height="143.536" transform="translate(156.381 56.908)" fill="#fff"/><circle cx="1.093" cy="1.093" r="1.093" transform="translate(158.061 53.628)" fill="#ff5252"/><circle cx="1.093" cy="1.093" r="1.093" transform="translate(161.066 53.628)" fill="#ff0"/><circle cx="1.093" cy="1.093" r="1.093" transform="translate(164.075 53.628)" fill="#69f0ae"/><g transform="translate(163.878 63.312)" opacity="0.2"><rect width="104.958" height="2.811" fill="#6c63ff"/></g><rect width="45.294" height="48.106" transform="translate(163.253 75.495)" fill="url(#a)"/><rect width="43.42" height="44.982" transform="translate(164.19 77.057)" fill="#fff"/><rect width="45.294" height="48.106" transform="translate(223.541 99.547)" fill="url(#a)"/><rect width="43.42" height="44.982" transform="translate(224.478 101.109)" fill="#fff"/><rect width="106.52" height="33.112" transform="translate(164.19 158.899)" fill="url(#a)"/><rect width="102.459" height="29.676" transform="translate(166.377 161.085)" fill="#6c63ff" opacity="0.5"/><path d="M535.119,518.491h99.96V515.68H532.62v29.676h2.5Z" transform="translate(-366.243 -354.595)" fill="#fff" opacity="0.5"/><path d="M721.133,357.879a19.367,19.367,0,1,0,4.686,12.636A19.367,19.367,0,0,0,721.133,357.879Zm-7.809,24.2a7.652,7.652,0,1,1,.009,0Z" transform="translate(-520.717 -270.968)" fill="url(#u)"/><path d="M758.819,364.237l4.264-3.67a18.383,18.383,0,0,0-13.963-6.407v5.623A12.779,12.779,0,0,1,758.819,364.237Z" transform="translate(-563.376 -273.043)" fill="#ff5252"/><path d="M732.376,450.2a12.726,12.726,0,0,1-5.285-1.146l-2.321,5.126a18.43,18.43,0,0,0,17.021-.937l-2.874-4.839A12.726,12.726,0,0,1,732.376,450.2Z" transform="translate(-546.632 -337.844)" fill="#69f0ae"/><path d="M781.949,386.683a18.352,18.352,0,0,0-4.467-12.023l-4.264,3.67A12.785,12.785,0,0,1,770.06,397.7l2.874,4.839A18.43,18.43,0,0,0,781.949,386.683Z" transform="translate(-577.775 -287.139)" fill="#ff9800"/><path d="M695.74,372.58a12.807,12.807,0,0,1,12.807-12.807V354.15a18.43,18.43,0,0,0-7.606,35.217l2.321-5.126a12.807,12.807,0,0,1-7.522-11.661Z" transform="translate(-522.803 -273.036)" fill="#6c63ff"/><rect width="33.112" height="5.623" transform="translate(230.414 107.669)" fill="url(#a)"/><rect width="32.487" height="4.998" transform="translate(230.726 107.982)" fill="#6c63ff"/><rect width="23.74" height="4.998" transform="translate(230.726 116.416)" fill="#ff5252"/><rect width="16.243" height="4.998" transform="translate(230.726 124.85)" fill="#69f0ae"/><rect width="29.363" height="4.998" transform="translate(230.726 133.284)" fill="#ff9800"/><rect width="46.544" height="2.811" transform="translate(164.19 131.097)" fill="#f5f5f5"/><rect width="26.239" height="2.811" transform="translate(164.19 135.783)" fill="#f5f5f5"/><rect width="9.059" height="2.811" transform="translate(195.115 135.783)" fill="#f5f5f5"/><rect width="9.059" height="2.811" transform="translate(195.115 146.091)" fill="#f5f5f5"/><rect width="26.239" height="2.811" transform="translate(164.19 145.154)" fill="#f5f5f5"/><rect width="46.544" height="2.811" transform="translate(164.19 140.468)" fill="#f5f5f5"/><rect width="46.544" height="2.811" transform="translate(222.917 75.807)" fill="#f5f5f5"/><rect width="26.239" height="2.811" transform="translate(222.917 80.493)" fill="#f5f5f5"/><rect width="9.059" height="2.811" transform="translate(253.842 80.493)" fill="#f5f5f5"/><rect width="9.059" height="2.811" transform="translate(253.842 90.801)" fill="#f5f5f5"/><rect width="26.239" height="2.811" transform="translate(222.917 89.864)" fill="#f5f5f5"/><rect width="46.544" height="2.811" transform="translate(222.917 85.178)" fill="#f5f5f5"/><circle cx="3.436" cy="3.436" r="3.436" transform="translate(234.162 211.69)" fill="url(#a)"/><circle cx="2.499" cy="2.499" r="2.499" transform="translate(235.099 212.627)" fill="#ff5252"/><rect width="107.457" height="37.797" transform="translate(136.077 177.016)" fill="url(#a)"/><rect width="102.459" height="29.676" transform="translate(139.2 178.578)" fill="#fff"/><rect width="14.057" height="17.181" transform="translate(143.573 184.513)" fill="url(#a)"/><rect width="12.495" height="15.931" transform="translate(144.354 185.294)" fill="#6c63ff"/><rect width="12.495" height="4.998" transform="translate(222.604 196.696)" fill="#69f0ae"/><rect width="12.495" height="11.245" transform="translate(199.176 190.136)" fill="#ff9800"/><rect width="12.495" height="9.371" transform="translate(171.687 192.01)" fill="#ff5252"/><rect width="102.459" height="4.373" transform="translate(139.2 208.254)" fill="#ff5252"/><circle cx="3.436" cy="3.436" r="3.436" transform="translate(140.137 211.69)" fill="url(#a)"/><circle cx="2.499" cy="2.499" r="2.499" transform="translate(141.075 212.627)" fill="#ff5252"/><rect width="2.499" height="32.799" transform="translate(136.701 179.828)" fill="#ff5252"/><rect width="2.499" height="32.799" transform="translate(136.701 179.828)" opacity="0.2"/><path d="M522.041,638.6v-.253a.15.15,0,0,0-.019-.1,1.073,1.073,0,0,1-.037-.138c-.016-.044-.019-.059-.031-.091s-.037-.087-.056-.131l-.037-.078c-.025-.044-.053-.087-.081-.128l-.041-.059a2.028,2.028,0,0,0-.131-.162h0a3,3,0,0,0-.872-.644,2.514,2.514,0,0,0,.559-.962,2.006,2.006,0,0,0,.075-.294v-.091a1.7,1.7,0,0,0,.016-.181v-.253a.15.15,0,0,0-.019-.1,1.072,1.072,0,0,1-.037-.137c-.016-.044-.019-.059-.031-.091s-.037-.087-.056-.131l-.037-.078c-.025-.044-.053-.088-.081-.128l-.041-.059a2.069,2.069,0,0,0-.131-.162h0a3.146,3.146,0,0,0-1.109-.75s-1.984.734-2.115,1.54c-1.456.312-9.94,2.077-15.766,1.937l-.044-.116a5.182,5.182,0,0,0-2.758-4.582v-1.962a2.338,2.338,0,0,0,0-.25h0a2.314,2.314,0,0,0-.037-.237l.037-.022.159-.087.231-.141.147-.1q.162-.113.312-.237l.119-.1c.072-.062.141-.125.209-.191l.122-.119q.128-.131.244-.269l.084-.106q.109-.138.209-.281l.084-.128q.091-.141.175-.287l.053-.094c.069-.125.131-.256.187-.387l.047-.119q.066-.159.119-.312l.037-.116c.044-.144.081-.287.112-.434a.174.174,0,0,1,.016-.088q.034-.187.056-.378v-.128c0-.156.025-.312.025-.472a5.157,5.157,0,0,0-.665-2.533c.334-.082.537-.147.512-.178-.128-.172-.256-.334-.391-.49l-.128-.147-.278-.312-.15-.153c-.094-.094-.187-.181-.281-.266l-.147-.131q-.178-.15-.356-.29l-.078-.062c-.144-.106-.287-.206-.434-.312l-.162-.1c-.094-.059-.191-.116-.287-.166l-.194-.1-.269-.128-.2-.087c-.094-.041-.191-.075-.287-.109l-.178-.066c-.144-.047-.287-.091-.431-.128l-.222-.05-.241-.05-.241-.037-.222-.025-.247-.022h-.459q-.2,0-.406.019h0c-3.2.262-5.994,3.052-5.994,7.5v3.667h5v1.668a5.182,5.182,0,0,0-3.011,4.7v14.216l-4.242,19.489h-.056l-.834,3.72,5.985.968h0l.259.041c.625-.269-.422-1.528-.893-2.5a2.673,2.673,0,0,1-.125-.312,2.362,2.362,0,0,1-.119-.606l4.6-15.085h-.022l.109-.353s5.854,2.5,7.36,7.525c1.221,4.061.462,6.7.131,7.559h-.022v.05c-.066.162-.112.253-.112.253h.112v2.758h6.329c.587-.3-.659-1.162-1.281-1.874a1.772,1.772,0,0,1-.412-.8h.106l.05-.225a21.719,21.719,0,0,0-6.516-20.545.241.241,0,0,0,.028-.053,23.259,23.259,0,0,0,1.1-5.641c4.839.462,11.277.131,16.09-3.6a15,15,0,0,0,1.315-1.118c.416-.031,1.143-.262,1.546-1.437a2,2,0,0,0,.075-.294V638.8a1.715,1.715,0,0,0,.022-.2Z" transform="translate(-382.675 -455.291)" fill="url(#aa)"/><path d="M518.076,687.106s14.65,4.657,22.766-3.124l-1.721-2.252s-15.744,3.508-19.5.937S518.076,687.106,518.076,687.106Z" transform="translate(-404.063 -498.288)" fill="#6c63ff"/><path d="M541.362,688l.287.375c-8.122,7.784-22.766,3.124-22.766,3.124s-.037-.119-.094-.312C520.536,691.708,533.79,695.272,541.362,688Z" transform="translate(-404.995 -502.6)" fill="#fff" opacity="0.2"/><path d="M587.794,680.885s1.2.272,1.752-1.337-1.374-2.318-1.374-2.318-2.009.74-2,1.528S587.794,680.885,587.794,680.885Z" transform="translate(-451.327 -495.194)" fill="#985454"/><path d="M588.346,682.179s1.2.272,1.752-1.337a1.509,1.509,0,0,0-.141-1.362,1.531,1.531,0,0,1,.331,1.612c-.553,1.612-1.752,1.337-1.752,1.337a8.537,8.537,0,0,1-1.287-1.346A9.32,9.32,0,0,0,588.346,682.179Z" transform="translate(-452.07 -496.741)" fill="#fff" opacity="0.2"/><path d="M541.7,781.75h4.339a1.424,1.424,0,0,0,.409,1.115c.584.675,1.759,1.49,1.206,1.768H541.7Z" transform="translate(-420.749 -567.064)" fill="#6c63ff"/><path d="M554.98,782.865a1.424,1.424,0,0,1-.409-1.115h.312a1.425,1.425,0,0,0,.409,1.115c.584.675,1.759,1.49,1.206,1.768h-.312C556.738,784.355,555.564,783.543,554.98,782.865Z" transform="translate(-429.596 -567.064)" fill="#fff" opacity="0.2"/><path d="M490.483,778.89l4.061.665a2.068,2.068,0,0,0,.184,1.431c.444.937,1.44,2.105.84,2.358l-5.879-.937Z" transform="translate(-384.985 -565.098)" fill="#6c63ff"/><path d="M496.138,780.955a2.068,2.068,0,0,1-.184-1.431l-3.764-.625v-.05l4.061.665a2.068,2.068,0,0,0,.184,1.431c.444.937,1.44,2.105.84,2.358l-.247-.041C497.491,782.958,496.563,781.836,496.138,780.955Z" transform="translate(-386.704 -565.07)" fill="#fff" opacity="0.2"/><rect width="4.408" height="6.532" rx="2.204" transform="translate(116.753 180.262) rotate(180)" fill="#985454"/><circle cx="4.879" cy="4.879" r="4.879" transform="translate(109.59 166.255)" fill="#985454"/><path d="M522.085,638.528V636.4a2.184,2.184,0,0,0-.05-.462,4.879,4.879,0,0,0-1.956-9.212h.275a4.879,4.879,0,0,1,2.233,9.218,2.184,2.184,0,0,1,.05.462v2.124a2.187,2.187,0,0,1-2.48,2.187A2.212,2.212,0,0,0,522.085,638.528Z" transform="translate(-405.882 -460.469)" fill="#fff" opacity="0.2"/><path d="M505.08,679.988s9.412,1.062,9.759,0a20.806,20.806,0,0,0,0-13.379,4.879,4.879,0,0,0-4.879-4.879h0a4.879,4.879,0,0,0-4.879,4.879Z" transform="translate(-395.568 -484.536)" fill="#6c63ff"/><path d="M495.721,720.18,491.47,739.7h4.251l4.408-14.482s5.51,2.362,6.925,7.085,0,7.4,0,7.4h4.573l.047-.212a20.3,20.3,0,0,0-6.185-19.308h0" transform="translate(-386.209 -524.727)" fill="#263238"/><path d="M524.512,680.009a20.806,20.806,0,0,0,0-13.379,4.879,4.879,0,0,0-4.565-4.87h.313a4.879,4.879,0,0,1,4.879,4.879,20.809,20.809,0,0,1,0,13.379c-.125.381-1.412.487-3.011.472C523.428,680.462,524.406,680.337,524.512,680.009Z" transform="translate(-405.791 -484.556)" fill="#fff" opacity="0.2"/><g transform="translate(108.887 195.531)" opacity="0.2"><path d="M508.031,736.826,503.7,751.042h-.625l4.408-14.482S507.691,736.648,508.031,736.826Z" transform="translate(-503.08 -731.521)" fill="#fff"/><path d="M534.31,720.43h.625a20.3,20.3,0,0,1,6.185,19.308l-.047.212h-.625l.047-.212A20.3,20.3,0,0,0,534.31,720.43Z" transform="translate(-524.555 -720.43)" fill="#fff"/></g><path d="M516.076,677.106s14.65,4.657,22.766-3.124l-1.721-2.252s-15.744,3.508-19.5.937S516.076,677.106,516.076,677.106Z" transform="translate(-402.688 -491.412)" fill="#6c63ff"/><path d="M539.362,678l.287.375c-8.122,7.784-22.766,3.124-22.766,3.124s-.037-.119-.094-.312C518.536,681.708,531.79,685.272,539.362,678Z" transform="translate(-403.62 -495.723)" fill="#fff" opacity="0.2"/><path d="M585.794,670.885s1.2.272,1.752-1.337-1.374-2.318-1.374-2.318-2.009.74-2,1.527S585.794,670.885,585.794,670.885Z" transform="translate(-449.952 -488.318)" fill="#985454"/><path d="M586.346,672.179s1.2.272,1.752-1.337a1.509,1.509,0,0,0-.141-1.362,1.531,1.531,0,0,1,.331,1.612c-.553,1.612-1.752,1.337-1.752,1.337a8.534,8.534,0,0,1-1.287-1.346A9.315,9.315,0,0,0,586.346,672.179Z" transform="translate(-450.695 -489.865)" fill="#fff" opacity="0.2"/><path d="M506.3,628.363l-.312,6.56H499.12V631.44c0-6.994,7.394-9.649,11.558-4.03A38.961,38.961,0,0,1,506.3,628.363Z" transform="translate(-391.47 -458.847)" fill="#263238"/><path d="M517.18,624.454a6.966,6.966,0,0,1,4.979,3.021,42.765,42.765,0,0,1-4.373.937l-.312,6.56h.937l.312-6.56a42.766,42.766,0,0,0,4.373-.937A6.737,6.737,0,0,0,517.18,624.454Z" transform="translate(-403.888 -458.892)" fill="#fff" opacity="0.2"/></svg>