<svg xmlns="http://www.w3.org/2000/svg" width="314.057" height="263.696" viewBox="0 0 314.057 263.696"><g transform="translate(0 0)"><path d="M176.38,177.7c-.846,0-1.7-.013-2.538-.04l.019-.609c1.2.037,2.433.048,3.642.031l.008.61Q176.947,177.7,176.38,177.7Zm4.8-.141-.036-.608c1.206-.071,2.427-.171,3.63-.3l.064.606c-1.212.127-2.442.228-3.657.3Zm-11-.095c-1.216-.093-2.444-.215-3.652-.363l.074-.6c1.2.147,2.417.268,3.624.36Zm18.3-.67-.091-.6c1.2-.182,2.405-.393,3.587-.628l.119.6c-1.191.236-2.407.449-3.614.632Zm-25.581-.223c-1.2-.2-2.413-.438-3.6-.7l.129-.6c1.181.257,2.384.489,3.576.69Zm32.777-1.207-.146-.592c1.176-.291,2.358-.612,3.515-.955l.173.585c-1.165.345-2.356.669-3.541.962Zm-39.948-.35c-1.178-.313-2.364-.658-3.524-1.025l.184-.581c1.151.364,2.328.706,3.5,1.017Zm46.983-1.738-.2-.576c1.141-.4,2.289-.826,3.412-1.275l.226.566c-1.131.453-2.288.885-3.438,1.285Zm-53.989-.477c-1.144-.421-2.3-.874-3.422-1.349l.237-.562c1.118.471,2.26.921,3.4,1.339Zm60.794-2.246-.252-.555c1.1-.5,2.2-1.029,3.274-1.58l.277.543c-1.085.554-2.195,1.09-3.3,1.592Zm6.522-3.334-.3-.529c1.051-.6,2.1-1.23,3.118-1.874l.326.515c-1.025.649-2.082,1.284-3.141,1.888Zm6.194-3.918-.349-.5c.99-.691,1.977-1.416,2.935-2.152l.371.483C224.221,161.87,223.225,162.6,222.228,163.3Zm-92.9-.858c-.984-.715-1.967-1.463-2.921-2.225l.38-.476c.947.756,1.923,1.5,2.9,2.208Zm98.716-3.61-.393-.466c.922-.778,1.84-1.589,2.729-2.411l.414.448c-.895.828-1.82,1.645-2.75,2.429Zm-104.453-.971c-.916-.8-1.827-1.637-2.705-2.481l.422-.44c.872.837,1.776,1.666,2.685,2.462Zm109.84-4.011-.434-.428c.85-.862,1.691-1.753,2.5-2.65l.453.408C235.133,152.079,234.286,152.977,233.429,153.846Zm-115.134-1.07c-.841-.884-1.671-1.8-2.468-2.716l.46-.4c.791.911,1.614,1.818,2.449,2.695Zm120.047-4.383-.471-.387c.768-.935,1.524-1.9,2.249-2.868l.488.365c-.729.976-1.492,1.948-2.266,2.89Zm-124.856-1.157c-.755-.954-1.5-1.939-2.209-2.927l.495-.356c.706.981,1.443,1.958,2.193,2.905Zm129.253-4.723-.5-.342c.68-1,1.346-2.031,1.979-3.062l.52.319c-.638,1.039-1.309,2.077-1.994,3.085ZM109.2,141.284c-.664-1.018-1.314-2.066-1.932-3.115l.525-.31c.613,1.041,1.259,2.081,1.918,3.091Zm137.38-5.032-.533-.295c.585-1.059,1.154-2.146,1.69-3.233l.546.27c-.54,1.094-1.114,2.19-1.7,3.257Zm3.255-6.589-.558-.245c.486-1.109.952-2.245,1.386-3.376l.569.218c-.438,1.14-.908,2.285-1.4,3.4Zm-147.479-1.315c-.467-1.121-.915-2.269-1.33-3.411l.573-.208c.412,1.133.856,2.271,1.32,3.384ZM252.475,122.8l-.579-.192c.38-1.146.739-2.318,1.067-3.482l.587.165C253.22,120.461,252.858,121.641,252.475,122.8ZM99.855,121.46c-.363-1.162-.7-2.348-1.013-3.527l.59-.155c.307,1.17.645,2.348,1.005,3.5Zm154.606-5.728-.594-.138c.273-1.175.522-2.374.742-3.565l.6.11c-.221,1.2-.472,2.409-.747,3.593Zm-156.467-1.37c-.254-1.191-.484-2.4-.684-3.605l.6-.1c.2,1.193.426,2.4.679,3.578Zm157.8-5.847-.6-.083c.164-1.194.3-2.411.412-3.618l.607.055c-.11,1.217-.25,2.443-.415,3.646Zm-159-1.392c-.144-1.207-.262-2.435-.351-3.652l.608-.045c.088,1.208.206,2.427.348,3.625Zm159.66-5.915-.609-.027c.054-1.208.082-2.433.082-3.641h.61C256.535,98.758,256.507,99.992,256.452,101.209Zm-160.2-1.4c-.021-.747-.031-1.51-.032-2.266q0-.7.012-1.4l.61.011q-.012.7-.012,1.394c0,.75.011,1.507.031,2.249Zm.735-7.3-.608-.038c.076-1.218.181-2.448.312-3.656l.606.066c-.13,1.2-.234,2.42-.31,3.629Zm158.54-3.719c-.122-1.2-.289-1.788-.466-2.984l.6-.089c.178,1.206.331,2.126.454,3.337ZM97.776,85.269l-.6-.093c.187-1.206.4-2.421.645-3.613l.6.121C98.176,82.866,97.961,84.072,97.776,85.269ZM254.45,82.216c-.232-1.189-.495-2.386-.78-3.557l.592-.144c.287,1.18.552,2.387.786,3.584ZM99.22,78.132l-.591-.148c.3-1.181.624-2.371.974-3.538l.584.175C99.839,75.779,99.514,76.96,99.22,78.132Zm153.508-2.991c-.34-1.161-.711-2.328-1.1-3.47l.576-.2c.4,1.151.77,2.328,1.113,3.5Zm-151.41-3.993-.575-.2c.405-1.152.842-2.31,1.3-3.441l.565.229c-.454,1.122-.888,2.271-1.29,3.415Zm149.043-2.894c-.445-1.122-.921-2.248-1.416-3.346l.556-.25c.5,1.107.978,2.242,1.426,3.372ZM104.054,64.383l-.554-.254c.509-1.109,1.051-2.22,1.61-3.3l.542.279C105.1,62.18,104.559,63.283,104.054,64.383ZM247.378,61.63c-.546-1.076-1.124-2.154-1.718-3.2l.53-.3c.6,1.058,1.181,2.145,1.731,3.229ZM107.4,57.9l-.528-.3c.608-1.056,1.249-2.113,1.906-3.141l.514.328c-.652,1.02-1.288,2.069-1.891,3.117Zm136.4-2.6c-.644-1.025-1.318-2.047-2-3.036l.5-.347c.691,1,1.371,2.026,2.02,3.059ZM111.322,51.759l-.5-.351c.7-1,1.437-1.99,2.184-2.952l.482.374C112.749,49.784,112.02,50.77,111.322,51.759ZM239.65,49.323c-.735-.962-1.5-1.919-2.274-2.843l.467-.392c.78.931,1.551,1.895,2.291,2.864ZM115.788,46l-.464-.4c.789-.926,1.61-1.848,2.443-2.74l.446.416C117.387,44.167,116.571,45.082,115.788,46Zm119.187-2.258c-.819-.891-1.668-1.775-2.524-2.625l.43-.432c.863.857,1.718,1.747,2.543,2.645ZM120.758,40.676l-.426-.436c.872-.853,1.774-1.7,2.681-2.506l.406.455C122.518,38.993,121.622,39.83,120.758,40.676ZM229.81,38.61c-.9-.814-1.824-1.617-2.754-2.386l.389-.47c.937.775,1.87,1.584,2.774,2.4ZM126.188,35.827l-.385-.473c.943-.768,1.917-1.525,2.9-2.251l.363.49C128.091,34.313,127.124,35.065,126.188,35.827Zm5.846-4.333-.34-.506c1.009-.679,2.048-1.344,3.087-1.976l.317.521c-1.031.628-2.062,1.288-3.064,1.961Zm6.214-3.78-.293-.535c1.067-.584,2.162-1.151,3.253-1.685l.268.548c-1.083.53-2.169,1.092-3.228,1.672ZM211.81,26.3c-1.085-.54-2.2-1.062-3.3-1.552l.246-.557c1.115.493,2.235,1.019,3.328,1.563Zm-67.034-1.781-.242-.559c1.116-.483,2.257-.947,3.391-1.378l.216.57C147.016,23.581,145.883,24.041,144.777,24.521Zm60.36-1.169c-1.129-.438-2.284-.855-3.433-1.241l.194-.578c1.158.389,2.322.81,3.46,1.251Zm-53.561-1.413-.19-.579c1.158-.38,2.34-.737,3.513-1.063l.163.587C153.9,21.207,152.725,21.562,151.576,21.939Zm46.649-.906c-1.163-.331-2.348-.64-3.524-.917l.14-.593c1.185.279,2.38.59,3.552.924Zm-39.633-1.041-.136-.594c1.188-.271,2.4-.518,3.6-.735l.108.6c-1.189.215-2.389.46-3.568.729Zm32.546-.63c-1.187-.223-2.4-.421-3.594-.589l.085-.6c1.207.169,2.425.369,3.622.594Zm-25.38-.663-.081-.6c1.207-.161,2.434-.3,3.647-.4l.053.607C168.173,18.4,166.956,18.539,165.758,18.7Zm18.169-.35c-1.2-.113-2.423-.2-3.633-.259l.03-.609c1.219.059,2.45.147,3.66.261Zm-10.915-.283-.026-.609c1.12-.047,2.262-.071,3.394-.071h.276l0,.61h-.274c-1.123,0-2.257.024-3.368.07Z" transform="translate(-92.732 -17.386)" fill="#3f3d56"/><path d="M457.55,91.34V288.892a8.881,8.881,0,0,1-8.878,8.872h-80.2a8.862,8.862,0,0,1-8.878-8.872V91.34a8.877,8.877,0,0,1,8.879-8.878h12V84a7.311,7.311,0,0,0,7.309,7.311h40.79a7.25,7.25,0,0,0,4.334-1.426,6.791,6.791,0,0,0,.719-.6A7.289,7.289,0,0,0,435.881,84V82.462h12.791a8.875,8.875,0,0,1,8.878,8.878Z" transform="translate(-275.833 -62.629)" fill="#3f3d56"/><rect width="74.506" height="56.687" transform="translate(95.486 91.049)" fill="#6c63ff"/><path d="M241.7,284.786c6.634.142,11.911,4.949,11.911,4.949s-5.478,4.577-12.112,4.434-11.911-4.95-11.911-4.95S235.071,284.643,241.7,284.786Z" transform="translate(-185.453 -203.288)" fill="#6c63ff"/><path d="M139.747,187.606c5.993,2.847,12.865.917,12.865.917s-2.845-6.547-8.838-9.394-12.865-.916-12.865-.916S133.753,184.759,139.747,187.606Z" transform="translate(-116.845 -128.752)" fill="#6c63ff"/><path d="M135.588,201.075c6.608-.6,12.391,3.58,12.391,3.58s-4.929,5.163-11.537,5.767-12.391-3.58-12.391-3.58S128.981,201.679,135.588,201.075Z" transform="translate(-112.077 -145.05)" fill="#3f3d56"/><path d="M241.229,178.706c-.633,6.6,3.525,12.407,3.525,12.407s5.185-4.906,5.818-11.511-3.525-12.407-3.525-12.407S241.863,172.1,241.229,178.706Z" transform="translate(-193.497 -121.538)" fill="#3f3d56"/><path d="M337.846,320.1c-3.466,5.658-2.273,12.7-2.273,12.7s6.811-2.135,10.277-7.794,2.273-12.7,2.273-12.7S341.312,314.439,337.846,320.1Z" transform="translate(-258.995 -222.421)" fill="#3f3d56"/><path d="M232.147,312.231l.505-.341a15.823,15.823,0,0,1-2.793-8.775c.014-4.589,2.268-8.834,4.448-12.939.4-.762.808-1.521,1.2-2.28a49.78,49.78,0,0,0,3.872-9.72c3.381-12.566.052-27.391-8.905-39.657-7.106-9.731-17.7-18.24-32.383-26.014l-.285.539c14.6,7.729,25.126,16.18,32.176,25.835,8.85,12.119,12.143,26.75,8.809,39.14a49.187,49.187,0,0,1-3.826,9.6c-.387.756-.789,1.513-1.192,2.272-2.215,4.17-4.5,8.483-4.519,13.223a16.438,16.438,0,0,0,2.9,9.118Z" transform="translate(-163.351 -153.038)" fill="#3f3d56"/><circle cx="5.791" cy="5.791" r="5.791" transform="translate(0 48.686)" fill="#3f3d56"/><path d="M203.543,354.49l-36.35-3.029V298.148l36.35-1.817Z" transform="translate(-116.237 -206.018)" fill="#6c63ff"/><path d="M584.61,354.49l36.35-3.029V298.148l-36.35-1.817Z" transform="translate(-406.438 -206.018)" fill="#6c63ff"/><path d="M494.325,361.365a7.263,7.263,0,0,0-7.97-1.013,10.755,10.755,0,0,1-3.538,1.012,20.474,20.474,0,0,1,1.438-7.777l.161-.415H482.28l-.061.224a23.639,23.639,0,0,0-.562,2.659,6.9,6.9,0,0,0-.447-1.128,9.775,9.775,0,0,0-5.108-4.236l-.3-.1-.094.3a9.776,9.776,0,0,0,.371,6.626,9.256,9.256,0,0,0,4.3,3.9,11.053,11.053,0,0,1-4.181-1.118,4.876,4.876,0,0,0-5.162.436,15.32,15.32,0,0,0-6.277,12.191c0,6.2,4.012,11.869,10.222,14.454a4.6,4.6,0,0,0,1.767.351,4.688,4.688,0,0,0,2.394-.657,6.329,6.329,0,0,1,6.341-.012,4.676,4.676,0,0,0,4.163.293c6.173-2.6,10.162-8.259,10.162-14.429A15.1,15.1,0,0,0,494.325,361.365Zm-11.578-7.583h.784a21.015,21.015,0,0,0-1.328,7.388h-.14a22.173,22.173,0,0,1,.683-7.388Zm-6.119,3.456a9.056,9.056,0,0,1-.418-5.851,7.608,7.608,0,0,1,4.874,9.665,9.054,9.054,0,0,1-4.456-3.814Zm12.787,29.548a4.06,4.06,0,0,1-3.618-.257,6.938,6.938,0,0,0-6.962.015,4.057,4.057,0,0,1-3.614.267c-5.981-2.49-9.846-7.943-9.846-13.892a14.715,14.715,0,0,1,6.036-11.705,4.223,4.223,0,0,1,2.556-.853,4.272,4.272,0,0,1,1.958.474,12.582,12.582,0,0,0,10.7.064,6.653,6.653,0,0,1,7.3.93,14.5,14.5,0,0,1,5.275,11.091c0,5.924-3.843,11.367-9.789,13.868Z" transform="translate(-348.95 -249.039)" fill="#fff"/><path d="M292.839,357.374v-.715h.284V354.43a.9.9,0,0,0-.482-.8,4.337,4.337,0,0,0-4.018,0,.909.909,0,0,0-.519.822v2.208h.284v.648a4.967,4.967,0,0,0-3.627,4.8v4.823l.542.181-.542.361v1.449l.542.181-.542.361v1.449l.542.181-.542.361V382.5a3.252,3.252,0,0,0,3.248,3.248H292.8a3.244,3.244,0,0,0,3.241-3.241V371.456l-.542-.361.542-.181v-1.449l-.542-.361.542-.181v-1.449l-.542-.361.542-.181V361.86A4.769,4.769,0,0,0,292.839,357.374Zm-3.957-3.193a3.711,3.711,0,0,1,3.478-.015.3.3,0,0,1,.154.263v1.193h-3.8v-1.171a.3.3,0,0,1,.167-.27Zm6.548,12.312-1.307.436,1.307.871v.684l-1.307.436,1.307.872v.684l-1.307.436,1.307.872V382.5a2.634,2.634,0,0,1-2.631,2.631h-4.788a2.641,2.641,0,0,1-2.638-2.638V371.783l1.307-.872-1.307-.436v-.684l1.307-.872-1.307-.436V367.8l1.307-.871-1.307-.436v-4.384a4.362,4.362,0,0,1,3.391-4.269l.236-.055v-1.126h3.231v1.167l.22.064a4.154,4.154,0,0,1,2.98,3.97Z" transform="translate(-223.808 -250.808)" fill="#fff"/><path d="M709.444,380.631l-1.535-.307.361-.723-.7-.141.122-.732-.768-.128v-.694l-.624-.178.592-.74h-1.027l.215-.536-.76-.127.258-.9h-.822v-.843h-.3c-.96,0-1.5,1.14-1.671,1.6-5.3.924-20.691,11.585-22.448,12.811a3.181,3.181,0,0,0-2.038.441l-.358.2.516.516-.154.461.947.355-.208.518.6.5-.536.4.806.484-.142.707.9.129v.708l.523.1-.261.914h.581v.723h.567l.257.77.264-.053c.613-.123,1.138-.971,1.343-1.347,5.1-.911,20.866-12,22.4-13.086a3.5,3.5,0,0,0,2.519-.32l.291-.233-.7-.58Zm-3.149,1.177-.119-.016-.1.069c-.174.124-17.459,12.369-22.386,13.073l-.158.023-.071.143a3.657,3.657,0,0,1-.754,1.031l-.2-.6h-.4v-.723h-.382l.221-.772-.681-.136v-.737l-.786-.112.1-.5-.4-.239.427-.321-.848-.707.274-.686-.98-.368.087-.261-.189-.19c.458-.19,1.011-.332,1.249-.189l.17.1.162-.114c.173-.121,17.34-12.129,22.506-12.833l.193-.026.057-.186a2.481,2.481,0,0,1,.849-1.265v.758h.623l-.224.783.686.114-.268.669h.659l-.372.465,1.062.3v.751l.677.113-.119.713.5.1-.361.723.874.175-.45.3.647.539a4.869,4.869,0,0,1-1.784.029Z" transform="translate(-497.151 -265.718)" fill="#fff"/><circle cx="8.838" cy="8.838" r="8.838" transform="translate(123.901 155.965)" fill="#6c63ff"/><path d="M428.407,527.179h-4.692v-4.692h-1.746v4.692h-4.692v1.746h4.692v4.692h1.746v-4.692h4.692Z" transform="translate(-290.103 -363.248)" fill="#fff"/><path d="M492.239,536.879l-4.572-2.133v1.219H477v1.829h10.667v1.219Z" transform="translate(-331.625 -371.771)" fill="#fff"/><path d="M344.072,536.879l4.572-2.133v1.219h10.667v1.829H348.644v1.219Z" transform="translate(-239.209 -371.771)" fill="#fff"/><rect width="223.397" height="0.61" transform="translate(21.041 235.206)" fill="#3f3d56"/><rect width="58.516" height="0.61" transform="translate(103.481 48.686)" fill="#fff"/><rect width="58.516" height="0.61" transform="translate(103.623 215.091)" fill="#fff"/><path d="M916.225,525.632l-1.524,5.791s-5.486,12.191,0,12.8,5.791-15.848,5.791-15.848Z" transform="translate(-660.065 -370.733)" fill="#a0616a"/><path d="M931.235,388.632l-10.972,43.277a26.774,26.774,0,0,1,6.4,2.743Z" transform="translate(-665.627 -275.487)" fill="#d0cde1"/><path d="M960.381,496.613l3.048,47.24s7.315,18.591,7.01,36.268c0,0-2.743,7.01-.61,8.229s3.352,2.133,2.133,3.048-2.133,3.048-1.219,3.657,1.219,1.524.914,1.524h-9.143s1.829-4.572-.914-5.791-1.219-4.267-1.219-4.267l-20.42-59.735-16.153,54.859s2.743,1.829.61,2.743-3.048-.914-2.133.914-.3,2.743-.3,3.048-9.143-.914-9.143-.914,4.572-3.962,2.438-4.876-3.048-1.829-2.438-2.438,3.048-6.4,3.048-6.4,1.219-21.944,1.524-22.858,0-5.181,0-7.314-.3-10.667.61-12.8,1.829-28.344,6.7-31.391S960.381,496.613,960.381,496.613Z" transform="translate(-660.335 -350.552)" fill="#2f2e41"/><path d="M887.329,791.048s6.1,12.5,1.829,14.019-9.753.3-10.972,2.133-14.629,3.962-14.934-.61,14.629-13.105,14.629-13.105l1.945-3.132Z" transform="translate(-625.988 -554.776)" fill="#2f2e41"/><path d="M1049.326,821.048s6.1,12.5,1.829,14.019-9.753.3-10.972,2.133-14.629,3.962-14.934-.61,14.629-13.105,14.629-13.105l1.945-3.133Z" transform="translate(-738.613 -575.633)" fill="#2f2e41"/><circle cx="10.057" cy="10.057" r="10.057" transform="translate(272.466 68.496)" fill="#a0616a"/><path d="M920.3,275.246l-1.219,8.838-9.143,7.01-2.438-3.352V276.16Z" transform="translate(-630.921 -191.359)" fill="#a0616a"/><path d="M960.149,324.07s9.448.914,14.324-2.438l9.753,57.6s-34.439,2.743-35.963.914V362.166l6.1-29.258Z" transform="translate(-685.093 -228.907)" fill="#3f3d56"/><path d="M1011.09,312.6l3.277,2.754s13.41,2.133,12.5,5.791l-3.657,43.277,1.219,14.629s-10.362-2.743-18.286,0-1.629-58.944-1.629-58.944S1011.776,313.5,1011.09,312.6Z" transform="translate(-722.549 -222.625)" fill="#d0cde1"/><path d="M955.416,323.541s-9.753,7.037-10.972,11.609-5.181,52.725-5.181,52.725,1.829-.914,2.743.61S956.94,325.952,955.416,323.541Z" transform="translate(-678.836 -230.234)" fill="#d0cde1"/><path d="M1050.983,527.765l-2.185,7.129s-.558,13.291-7.873,11.462,2.133-17.372,2.133-17.372l2.134-3.352Z" transform="translate(-747.584 -370.733)" fill="#a0616a"/><path d="M977.032,237.993a4.808,4.808,0,0,1-.67-3.392,10.279,10.279,0,0,0,.293-3.057,30.252,30.252,0,0,1,1.759-4.439c.879-1.591.461-2.261,3.224-2.764s1.633-4.1,8.92-.209a2.137,2.137,0,0,0,2.219.838c1.508-.293,2.052,1.8,2.052,1.8s1-.586,1.382.251,3.064-.5,3.064,5.151a23.408,23.408,0,0,1-3.058,10.7s.224-9.51-4.759-10.473-10.343-3.769-11.642-.167A27.452,27.452,0,0,1,977.032,237.993Z" transform="translate(-704.562 -159.878)" fill="#2f2e41"/><ellipse cx="0.983" cy="1.311" rx="0.983" ry="1.311" transform="translate(290.782 77.755)" fill="#a0616a"/><path d="M1060.66,333.487s4.876-1.219,6.4,7.01,3.353,31.7,3.353,31.7l-7.314,24.686s-7.314-3.962-8.838-3.352l5.756-21.432-4.842-21.846S1059.441,333.487,1060.66,333.487Z" transform="translate(-758.785 -237.104)" fill="#d0cde1"/><path d="M967.237,372.614l6.4,21.334-6.4,21.639,3.657-21.639Z" transform="translate(-672.451 -259.052)" opacity="0.15"/></g></svg>