<svg xmlns="http://www.w3.org/2000/svg" width="506.928" height="411.87" viewBox="0 0 506.928 411.87"><path d="M67.514,7.318c25.744,0,58.59,36.78,111.254,38.458,38.835,1.237,98.948-35.362,120.868-23.35C347.563,48.689,312,153.828,312,195.488c0,47.451-81.037,10.988-81.037,10.988s-59.019-.113-74.169,26.1c-16.155,27.948-36,42.579-56.314,42.579-42.7,0-16.453-40.253-42.579-68.675-26.373-28.69-86.531-22.193-86.531-65.928C-28.632,54.116-18.919,7.318,67.514,7.318Z" transform="translate(71.5 136.719)" fill="#ffd156"/><path d="M67.514,7.318c25.744,0,58.59,36.78,111.254,38.458,38.835,1.237,98.948-35.362,120.868-23.35C347.563,48.689,312,153.828,312,195.488c0,47.451-81.037,10.988-81.037,10.988s-59.019-.113-74.169,26.1c-16.155,27.948-36,42.579-56.314,42.579-42.7,0-16.453-40.253-42.579-68.675-26.373-28.69-86.531-22.193-86.531-65.928C-28.632,54.116-18.919,7.318,67.514,7.318Z" transform="matrix(-0.951, 0.309, -0.309, -0.951, 481.959, 270.532)" fill="#ffd156"/><g transform="translate(0 115.719)"><rect width="346.771" height="222.087" transform="translate(90.181 0.197)" fill="#e6e6e6"/><rect width="125.189" height="128.639" transform="translate(120.845 30.019)" fill="#fff"/><rect width="125.189" height="156.239" transform="translate(292.856 32.514)" fill="#fff"/><ellipse cx="22.426" cy="3.204" rx="22.426" ry="3.204" transform="translate(393.951 232.024)" fill="#e6e6e6"/><ellipse cx="22.426" cy="3.204" rx="22.426" ry="3.204" transform="translate(169.744 232.095)" fill="#e6e6e6"/><ellipse cx="51.468" cy="2.464" rx="51.468" ry="2.464" transform="translate(0 229.631)" fill="#e6e6e6"/><rect width="346.771" height="14.732" transform="translate(90.033)" fill="#ffd563"/><circle cx="2.73" cy="2.73" r="2.73" transform="translate(98.25 4.801)" fill="#e6e6e6"/><circle cx="2.73" cy="2.73" r="2.73" transform="translate(108.615 4.801)" fill="#e6e6e6"/><circle cx="2.73" cy="2.73" r="2.73" transform="translate(118.979 4.801)" fill="#e6e6e6"/><path d="M876.224,322.6h-.758V301.826A12.024,12.024,0,0,0,863.442,289.8H819.428A12.024,12.024,0,0,0,807.4,301.826V415.8a12.024,12.024,0,0,0,12.024,12.024h44.014A12.024,12.024,0,0,0,875.466,415.8V337.389h.758Z" transform="translate(-485.78 -248.179)" fill="#3f3d56"/><path d="M866.341,296.15H860.6a4.266,4.266,0,0,1-3.95,5.877H831.431a4.266,4.266,0,0,1-3.95-5.877h-5.366a8.979,8.979,0,0,0-8.979,8.979v113.8a8.979,8.979,0,0,0,8.979,8.979h44.226a8.979,8.979,0,0,0,8.979-8.979v-113.8a8.979,8.979,0,0,0-8.979-8.979Z" transform="translate(-488.687 -251.398)" fill="#fff"/><rect width="87.013" height="3.969" transform="translate(140.019 111.278)" fill="#e6e6e6"/><rect width="87.013" height="3.969" transform="translate(140.019 124.093)" fill="#ffd563"/><rect width="87.013" height="3.969" transform="translate(140.019 136.907)" fill="#e6e6e6"/><rect width="50.797" height="3.969" transform="translate(330.636 119.938)" fill="#e6e6e6"/><rect width="50.797" height="3.969" transform="translate(330.636 132.259)" fill="#e6e6e6"/><rect width="50.797" height="3.969" transform="translate(330.636 144.581)" fill="#e6e6e6"/><rect width="8.466" height="8.466" transform="translate(386.744 197.746) rotate(90)" fill="#3f3d56"/><rect width="8.466" height="8.466" transform="translate(373.104 197.745) rotate(90)" fill="#ffd563"/><rect width="8.466" height="8.466" transform="translate(359.464 197.746) rotate(90)" fill="#3f3d56"/><rect width="8.466" height="8.466" transform="translate(345.824 197.745) rotate(90)" fill="#3f3d56"/><rect width="8.466" height="8.466" transform="translate(332.184 197.746) rotate(90)" fill="#3f3d56"/><rect width="28.22" height="28.22" transform="translate(341.431 68.504)" fill="#ffd563"/><path d="M502.575,470.043l-.365.731-1.1-5.479s-1.461-5.844,1.461-5.844,2.192,5.844,2.192,5.844v4.018Z" transform="translate(-330.265 -334.212)" fill="#a0616a"/><path d="M599.357,468.525l.365.731,1.1-5.479s1.461-5.844-1.461-5.844-2.192,5.844-2.192,5.844v4.018Z" transform="translate(-379.12 -333.442)" fill="#a0616a"/><path d="M377.705,358.94l-4.383,27.031,2.191,26.3,5.114-2.191-.73-19.726,5.114-15.707,1.1,18.629-2.191,19.36,6.575.731,4.749-39.816-.365-13.515Z" transform="translate(-189.323 -182.03)" fill="#2f2e41"/><path d="M534.433,665.449l-2.557,4.018v8.978a1.089,1.089,0,0,0,.915,1.075c1.253.206,3.436.352,4.2-.921,1.1-1.826.365-5.844.365-5.844s1.461-2.922.731-5.114-1.461-2.557-1.461-2.557Z" transform="translate(-346.051 -438.495)" fill="#2f2e41"/><path d="M554.788,672.861l.731,1.1s1.1,1.1.365,1.826a14.269,14.269,0,0,0-1.461,1.826s-4.018,1.1-4.018-.365V672.5Z" transform="translate(-355.448 -442.254)" fill="#2f2e41"/><circle cx="4.842" cy="4.842" r="4.842" transform="translate(193.182 137.496)" fill="#a0616a"/><path d="M394.809,291.867l-.365,6.941,6.575.365-.365-6.941Z" transform="translate(-200.035 -148.015)" fill="#a0616a"/><path d="M546.821,508.95l-1.037-2.533s-4.808-1.85-6.269-.024l-.731,2.192-5.845-1.461-3.288,7.306,2.922,20.821s7.671,9.863,17.9.365L553.4,515.89,551.2,508.22Z" transform="translate(-344.924 -357.61)" fill="#575a89"/><path d="M417.049,288.95l.73-1.461,7.306-4.384,4.458-13.2,3.45,1.479L429.1,287.123l-10.593,9.862Z" transform="translate(-211.499 -136.878)" fill="#575a89"/><path d="M364.164,287.924l-.73-.73-7.671-4.749-5.479-10.958-4.383,1.461,4.748,13.515,11.689,9.5Z" transform="translate(-175.417 -137.679)" fill="#575a89"/><path d="M554.969,477.151l.792-.4-1.187-.4v-.4s-5.938-2.375-6.729,1.583a7.956,7.956,0,0,0,0,9.5v1.188l6.333.792.792-2.375S558.927,479.526,554.969,477.151Z" transform="translate(-353.351 -342.229)" fill="#2f2e41"/><path d="M264.079,565.16l-1.407.7s-5.629,2.58-3.988,3.988,6.1-1.407,6.1-1.407l.938-1.173Z" transform="translate(-207.355 -387.821)" fill="#ffb8b8"/><path d="M177.5,359.1l-4.35,29.2-6.568,20.406-3.518-1.642,3.284-27.912-9.382-7.975.7-11.728Z" transform="translate(-79.604 -182.11)" fill="#2f2e41"/><path d="M321.125,662.464s3.988-2.111,4.222.938l-.469,3.049s1.407,5.395-3.284,4.222-1.407-4.691-1.407-4.691Z" transform="translate(-238.13 -436.806)" fill="#2f2e41"/><path d="M314.868,583.72l-3.049,2.58s0,15.95,2.111,18.3,15.481,14.308,15.95,14.777,2.58-4.691,2.58-4.691L319.793,599.9l.938-9.148Z" transform="translate(-234.453 -397.233)" fill="#2f2e41"/><path d="M348.67,645.022s3.753-.7,3.753,1.876a56.783,56.783,0,0,0,.469,6.1s.938,8.21-2.111,7.037-4.222-9.382-4.222-9.382a3.494,3.494,0,0,1,1.407-1.642C348.9,648.54,348.67,645.022,348.67,645.022Z" transform="translate(-252.071 -428.277)" fill="#2f2e41"/><path d="M165.2,288.424l.7,8.679-1.876,3.284-5.16-4.926-.469-6.567Z" transform="translate(-80.328 -146.269)" fill="#ffb8b8"/><circle cx="5.629" cy="5.629" r="5.629" transform="translate(75.02 133.711)" fill="#ffb8b8"/><path d="M161.151,298.558l2.346-6.8,4.222,4.691,7.741,29.789-5.864,3.519L167.015,326l-.469,4.926-11.494-2.346-.938-31.431,2.344-3.3Z" transform="translate(-78.156 -147.959)" fill="#d0cde1"/><path d="M151.35,334.037l-1.407-38-3.049,2.346-5.63,3.753,3.753,13.37,1.173,14.073Z" transform="translate(-71.639 -150.131)" fill="#2f2e41"/><path d="M128.426,308.647l-1.642-.235-4.691,13.839-9.382,11.728,3.519,3.753,10.789-10.555,3.988-8.678Z" transform="translate(-57.159 -156.405)" fill="#2f2e41"/><path d="M350.581,565.6l-.32,1.54s-1.464,6.017.658,5.6,2.675-5.658,2.675-5.658l-.339-1.463Z" transform="translate(-253.699 -388.042)" fill="#ffb8b8"/><path d="M172.211,290.983l11.625,4.6-1.407,14.073,2.815,15.481-2.815,3.049-10.407-35.213Z" transform="translate(-87.238 -147.567)" fill="#2f2e41"/><path d="M312.041,468.031l1.652-.826v.826l1.1-.551v1.377s4.131,3.029,3.3,6.61-.826,3.856-.826,3.856-1.044-6.809-5.175-5.707-4.463,1.3-5.565,4.33l-.3,1.3S301.576,468.581,312.041,468.031Z" transform="translate(-231.097 -338.145)" fill="#2f2e41"/><path d="M190.731,300.322h1.876l3.049,16.419v14.308l-3.753-.7-3.049-21.579Z" transform="translate(-95.774 -152.303)" fill="#2f2e41"/><rect width="69.16" height="48.06" transform="translate(1.742 182.742)" fill="#ffd563"/><path d="M213.468,595.148A14.653,14.653,0,1,0,228.121,609.8,14.652,14.652,0,0,0,213.468,595.148Zm0,4.4a4.4,4.4,0,1,1-4.4,4.4,4.4,4.4,0,0,1,4.4-4.4Zm0,21.162a10.674,10.674,0,0,1-8.791-4.692c.07-2.93,5.861-4.544,8.791-4.544s8.721,1.613,8.791,4.544a10.692,10.692,0,0,1-8.791,4.692Z" transform="translate(-177.146 -403.029)" fill="#fff"/><rect width="86.745" height="49.78" transform="translate(140.067 44.805)" fill="#e6e6e6"/><path d="M960.475,488.129l.4-2.593s2.343-5.326.491-5.613-3.4,4.783-3.4,4.783l.678,5.414Z" transform="translate(-562.138 -344.589)" fill="#ffb8b8"/><path d="M822.648,304.84,806.1,301.515l-1.923-12.055-4.872-.376.238,15.586,14.38,7.539Z" transform="translate(-405.351 -146.604)" fill="#575a89"/><path d="M822.648,304.84,806.1,301.515l-1.923-12.055-4.872-.376.238,15.586,14.38,7.539Z" transform="translate(-405.351 -146.604)" opacity="0.2"/><rect width="50.797" height="3.969" transform="translate(423.067 140.351) rotate(180)" fill="#ffd563"/><path d="M953.409,486.3l0-2.623s1.506-5.62-.368-5.622-2.63,5.244-2.63,5.244l1.492,5.249Z" transform="translate(-558.305 -343.645)" fill="#ffb8b8"/><path d="M992.473,494.376l2.271-.554a5.846,5.846,0,0,0,5.738-7h0a7.641,7.641,0,0,0-7.632-7.651h0a7.641,7.641,0,0,0-7.65,7.632h0a6.072,6.072,0,0,0,7.273,7.577Z" transform="translate(-575.826 -344.211)" fill="#2f2e41"/><path d="M818.254,378.382l1.849,20.24,3.348,19.867,5.622.007-.725-19.489-2.969-23.614Z" transform="translate(-414.962 -190.374)" fill="#2f2e41"/><path d="M976.151,665.9l-3.751,2.244s-6,.742-4.875,2.617,14.24.767,14.241.018-.369-4.873-1.118-4.873Z" transform="translate(-566.911 -438.911)" fill="#2f2e41"/><path d="M992.01,579.285s-.105,2.894-2.734,7.388l.357,13.867L1003.1,617.8l-4.877,4.116-16.466-18.759-4.094-22.492,5.253-5.24Z" transform="translate(-572.125 -393.025)" fill="#2f2e41"/><path d="M1021.43,661.394s4.5.755,3.745,2.628-2.637,10.49-7.507,9.36c0,0-2.249,0-1.5-1.5a27.131,27.131,0,0,1,1.5-2.622l.006-4.872Z" transform="translate(-591.574 -436.624)" fill="#2f2e41"/><circle cx="5.622" cy="5.622" r="5.622" transform="translate(408.593 139.302)" fill="#ffb8b8"/><path d="M839.55,301.645l-.008,6.371-6-.007.758-6.37Z" transform="translate(-422.717 -152.971)" fill="#ffb8b8"/><path d="M978.371,514.888l1.817-.446,5.678.456s2.995,3,2.619,3.751-2.273,19.11-2.273,19.11l3.356,13.121-11.994.734-6-.757,1.154-23.609s-2.615-6.374.76-8.244a14.764,14.764,0,0,0,4.877-4.116Z" transform="translate(-569.039 -362.1)" fill="#575a89"/><path d="M817.987,300.3l-16.863-.771-3.733-11.622-4.872.368,2.6,15.369,15.359,5.266Z" transform="translate(-401.911 -146.009)" fill="#575a89"/><circle cx="3.627" cy="3.627" r="3.627" transform="translate(421.439 133.528)" fill="#2f2e41"/><path d="M1009.631,475.662a3.625,3.625,0,0,1,4.341-3.551,3.625,3.625,0,1,0-2.261,6.832A3.624,3.624,0,0,1,1009.631,475.662Z" transform="translate(-587.912 -340.456)" fill="#2f2e41"/><path d="M992.527,482.921l-4.89-.9-3.76,2.357a5.7,5.7,0,0,0-2.627,5.567l3.766-.955.843-2.115,1,1.646,4.075,7.124,4.125-2.243,2.629-4.119Z" transform="translate(-573.919 -345.658)" fill="#2f2e41"/><rect width="0.986" height="100.013" transform="translate(139.821 45.233) rotate(-60.15)" fill="#fff"/><rect width="100.013" height="0.986" transform="matrix(0.867, -0.498, 0.498, 0.867, 139.819, 94.155)" fill="#fff"/><rect width="0.986" height="39.73" transform="translate(341.303 68.811) rotate(-45)" fill="#fff"/><rect width="39.73" height="0.986" transform="translate(341.303 96.207) rotate(-45)" fill="#fff"/></g></svg>