<svg xmlns="http://www.w3.org/2000/svg" width="163.393" height="103.581" viewBox="0 0 163.393 103.581"><g transform="translate(0)"><path d="M98.385,653.339c1.434,5.3,6.347,8.586,6.347,8.586s2.587-5.313,1.153-10.615-6.347-8.586-6.347-8.586S96.951,648.037,98.385,653.339Z" transform="translate(-90.469 -562.445)" fill="#3f3d56"/><path d="M61.962,691.736l-.2-.011c-.06,0-6.01-.37-9.947-4.2s-4.463-9.77-4.468-9.83l-.016-.2.2.011c.06,0,6.01.37,9.947,4.2s4.463,9.77,4.468,9.83ZM47.715,677.867c.129,1.06.906,6.065,4.344,9.411s8.461,3.988,9.525,4.089c-.129-1.06-.906-6.065-4.344-9.411h0C53.8,678.607,48.778,677.967,47.715,677.867Z" transform="translate(-47.336 -592.078)" fill="#3f3d56"/><circle cx="3.774" cy="3.774" r="3.774" transform="translate(127.221 89.433)" fill="#3f3d56"/><rect width="51.484" height="43.733" transform="translate(29.79 55.942)" fill="#d0cde1"/><path d="M242.841,479.294H190.8V435h52.042Zm-51.483-.559h50.924V435.561H191.358Z" transform="translate(-169.592 -385.429)" fill="#3f3d56"/><path d="M395.067,307.1l-1.055,1.247a1.016,1.016,0,0,1-1.505,0l-1.055-1.247v-8.664h3.616Z" transform="translate(-340.583 -269.049)" fill="#ffd563"/><path d="M367.745,195.288H365.8a4.6,4.6,0,0,0,.809-2.611c0-2.552-2.068-7.031-4.62-7.031s-4.62,4.479-4.62,7.031a4.6,4.6,0,0,0,.809,2.611h-1.942a1.483,1.483,0,0,0-1.478,1.478v1.061a1.483,1.483,0,0,0,1.478,1.478h11.507a1.483,1.483,0,0,0,1.478-1.478v-1.061A1.483,1.483,0,0,0,367.745,195.288Z" transform="translate(-309.315 -172.933)" fill="#3f3d56"/><path d="M387.2,274.3a1.546,1.546,0,0,1-1.247-.624l-1.613-2.15V256.668h5.719v14.861l-1.612,2.15A1.546,1.546,0,0,1,387.2,274.3Zm-2.564-2.872,1.553,2.071a1.263,1.263,0,0,0,2.021,0l1.553-2.071V256.964h-5.128Z" transform="translate(-334.519 -233.457)" fill="#3f3d56"/><path d="M395.229,391.6a1.774,1.774,0,1,1-3.548,0c0-.98,1.774-2.956,1.774-2.956S395.229,390.623,395.229,391.6Z" transform="translate(-340.779 -345.925)" fill="#ffd563"/><path d="M305.775,478.646a20.547,20.547,0,1,1-41.095,0Z" transform="translate(-232.551 -422.621)" fill="#ffd563" opacity="0.2"/><path d="M322.686,478.086a17,17,0,1,1-34,0Z" transform="translate(-253.012 -422.144)" fill="#ffd563"/><circle cx="4.73" cy="4.73" r="4.73" transform="translate(34.642)" fill="#3f3d56"/><circle cx="4.73" cy="4.73" r="4.73" transform="translate(47.946)" fill="#ffd563"/><circle cx="4.73" cy="4.73" r="4.73" transform="translate(61.25)" fill="#d0cde1"/><rect width="96.513" height="0.342" transform="translate(5.211 99.484)" fill="#3f3d56"/><path d="M957.7,412.471V349.646h28.821v62.825Zm.415-62.41v62H986.1v-62Z" transform="translate(-823.124 -312.69)" fill="#3f3d56"/><rect width="46.445" height="18.661" transform="translate(158.21 45.249) rotate(90)" fill="#d0cde1"/><rect width="11.196" height="11.196" transform="translate(154.477 49.811) rotate(90)" fill="#ffd563"/><rect width="5.391" height="5.391" transform="translate(156.915 77.544) rotate(150)" fill="#ff6584"/><rect width="18.246" height="5.391" transform="translate(148.05 68.472) rotate(90)" fill="#3f3d56"/><path d="M742.529,400.407l-8.09,17.17,5.663,3.146,10.068-17.17Z" transform="translate(-625.872 -341.218)" fill="#ffb8b8"/><path d="M742.529,400.407l-8.09,17.17,5.663,3.146,10.068-17.17Z" transform="translate(-625.872 -341.218)" opacity="0.1"/><path d="M666.216,600.393l-9.709,19.957-5.484,5.483s-7.551.09-4.585,2.967,12.136-.539,12.136-.539l-.27,1.079,5.933-.539-.18-2.157-.539-.27s.36-4.135-.539-4.944,1.618-1.8,1.618-1.8l10.338-17.979Z" transform="translate(-557.289 -526.371)" fill="#2f2e41"/><path d="M764.112,490.57s-8.63,5.034-6.383,9.619,2.967,4.944,2.967,4.944l4.585-3.326-.809-1.888,8.99-5.214S766.539,489.4,764.112,490.57Z" transform="translate(-652.398 -432.639)" fill="#ffb8b8"/><path d="M766.571,558.1l12.315,19.687,1.259,5.484s-4.495,5.663-1.169,6.023,7.1-4.944,7.282-7.371.449-3.955.449-3.955l.9.359s2.7-4.315,1.348-4.854a21,21,0,0,0-2.427-.809,5.782,5.782,0,0,0-3.865-.809,3.83,3.83,0,0,0,0-2.068c-.36-.629-9.96-16.49-9.96-16.49Z" transform="translate(-660.251 -486.24)" fill="#2f2e41"/><circle cx="4.944" cy="4.944" r="4.944" transform="translate(122.591 9.028)" fill="#ffb8b8"/><path d="M885.419,209.752s1.8,5.124,1.348,6.562-4.045,8.18-4.045,8.18l.45,3.146,8.989-13.844s-2.247-2.967-1.618-5.034Z" transform="translate(-759.233 -192.633)" fill="#ffb8b8"/><path d="M813.084,441.864l-2.607,10.7s-12.945-7.731-16.541-7.461c0,0,7.821-8.9,10.787-8.9S813.084,441.864,813.084,441.864Z" transform="translate(-683.572 -386.45)" fill="#2f2e41"/><path d="M872.416,238.338s-2.068-3.326-4.585-.449-7.1,10.428-7.1,10.428l.321-2.149s-2.838,2.149-3.018,4.936-.9,12.136-.9,12.136l-1.169,3.955,11.147,6.472,1.8-3.056s6.742,1.259,7.461.449-4.187-13.953-4.187-13.953Z" transform="translate(-736.431 -216.455)" fill="#575a89"/><path d="M838.08,374.172l-5.394,7.461s-6.472,2.517-5.394,4.585,6.562-3.146,6.562-3.146l8.09-7.1Z" transform="translate(-711.893 -333.591)" fill="#ffb8b8"/><path d="M900.829,251.6s-3.955,6.293-4.135,11.057-.135,4.27-.135,4.27l-1.978,2.787,4.674,2.607,2.382-2.472s5.3-1.528,4.674-5.933-.989-12.585-1.888-12.585S900.829,251.6,900.829,251.6Z" transform="translate(-769.339 -228.909)" opacity="0.1"/><path d="M901.785,245.52s-3.955,6.293-4.135,11.057.27,4.854.27,4.854l-2.427,3.236,4.495,2.427,2.607-3.326s5.3-1.528,4.674-5.933-.989-12.585-1.888-12.585S901.785,245.52,901.785,245.52Z" transform="translate(-770.115 -223.727)" fill="#575a89"/><path d="M870.475,154.064s-1.522-7.355,6.451-5.515c0,0,5.484-1.446,7.84,5.372l2.4,7.152-.938-.421-.349.949-1.43.481-.719-1.191-.187,1.527-11.856,2.1s5.109-3.573,4.76-9.251l-.937,1.155Z" transform="translate(-748.697 -141.068)" fill="#2f2e41"/></g></svg>