<svg xmlns="http://www.w3.org/2000/svg" width="125.034" height="100.737" viewBox="0 0 125.034 100.737"><g transform="translate(0 0)"><ellipse cx="61.775" cy="4.826" rx="61.775" ry="4.826" transform="translate(1.485 91.085)" fill="#3f3d56"/><path d="M759.449,582.18l.579,4.246-4.053.386.579-5.211Z" transform="translate(-643.715 -495.235)" fill="#a0616a"/><path d="M806.585,303.812s.386,5.211.386,5.4-2.7,13.51-2.7,13.51-3.86,7.334,0,7.141,2.7-6.948,2.7-6.948l4.053-11.194-1.737-7.913Z" transform="translate(-709.958 -275.152)" fill="#a0616a"/><path d="M690.271,582.18l-.579,4.246,4.053.386-.579-5.211Z" transform="translate(-587.275 -495.235)" fill="#a0616a"/><path d="M835.689,423.048l-.965,1.351s-.579,5.79,0,7.72,1.737,10.808,1.737,11.387.193.965,0,1.158-.772.193-.386.579.386,1.544.386,1.544v.965l2.509,14.282s-1.544,1.737-.386,1.737,5.4,0,5.211-1.93l-.386-.193s-.579-12.738-.386-13.317a4.93,4.93,0,0,0,0-1.737s-.386-.579,0-.772.386-1.737.386-1.737l1.737-11.773s1.544,7.913,2.509,8.685.772,2.7.772,2.7l.772,16.984s-.772,1.93,0,2.316,4.053,1.737,4.246-.193,1.158-18.721,1.158-19.493-.193-1.158,0-1.737-.193-.579,0-.579-.386-.579-.386-.965v-9.457a14.254,14.254,0,0,1,.386-2.316c.193-.386-.193-.772,0-1.351a7.561,7.561,0,0,0-.386-2.509l-8.685-2.316Z" transform="translate(-737.132 -375.86)" fill="#2f2e41"/><path d="M856.743,714.173s.965-.965-.386-.965a6.28,6.28,0,0,0-2.509.579l-.965,3.474s-3.956,3.184.482,2.8,3.763-.1,3.763-.1,1.351-.386,1.544-.772a55.037,55.037,0,0,0-.386-5.983S857.707,714.752,856.743,714.173Z" transform="translate(-751.431 -623.754)" fill="#2f2e41"/><path d="M929.561,714.173s-.965-.965.386-.965a6.281,6.281,0,0,1,2.509.579l.965,3.474s3.956,3.184-.483,2.8-4.342-.1-4.342-.1-1.351-.386-1.544-.772.965-5.983.965-5.983S928.6,714.752,929.561,714.173Z" transform="translate(-815.95 -623.754)" fill="#2f2e41"/><circle cx="5.018" cy="5.018" r="5.018" transform="translate(96.048 3.378)" fill="#a0616a"/><path d="M847.9,180.974s.772,3.86.772,4.439,3.281,2.316,3.281,2.316l3.667-4.632s-2.316-3.281-2.316-4.053Z" transform="translate(-748.568 -168.912)" fill="#a0616a"/><path d="M824.232,202.663a4.866,4.866,0,0,1-2.192-1.189s-5.335,5.242-5.335,6.207l4.246,7.527s0,2.7.386,2.895,0,0,0,.772-1.158,5.79-.772,6.562.772.193.386,1.351-1.351,7.334-1.351,7.334,3.474-1.158,8.492.772,11-.772,11-.772-1.544-3.474-1.158-4.632-.965-3.281-.965-3.281L836,208.453s1.351-7.913.386-8.3l-1.93-.772-6.18-.76S826.741,202.47,824.232,202.663Z" transform="translate(-722.008 -185.583)" fill="#d0cde1"/><path d="M816.176,250.526l-1.93,1.351s-.965,2.895,0,4.246A9.9,9.9,0,0,1,815.6,259.4l3.86-.386Z" transform="translate(-719.549 -229.779)" fill="#d0cde1"/><path d="M824.12,113.9l-.87-.348a5.938,5.938,0,0,1,4.352-1.829l-.712-.784a3.028,3.028,0,0,1,3.323,1.133,15.445,15.445,0,0,1,2.394,3.366h.932l-.389.857,1.362.857-1.4-.154a4.743,4.743,0,0,1-.132,2.219l.037.677a20.819,20.819,0,0,1-1.62-2.855v.871s-.871-.784-.871-1.307l-.475.61-.237-.958-2.928.958.475-.784-1.82.261.712-.958s-2.057,1.132-2.136,2.091A5.141,5.141,0,0,1,823.013,120l-.475-.871S821.826,115.211,824.12,113.9Z" transform="translate(-726.885 -110.812)" fill="#2f2e41"/><rect width="76.693" height="53.874" transform="translate(21.706 42)" fill="#f2f2f2"/><rect width="19.257" height="33.616" transform="translate(28.162 62.555)" fill="#3f3d56"/><rect width="5.187" height="4.836" transform="translate(31.724 64.572)" fill="#f2f2f2"/><rect width="5.187" height="4.836" transform="translate(38.669 64.572)" fill="#f2f2f2"/><rect width="5.187" height="5.011" transform="translate(31.724 71.166)" fill="#f2f2f2"/><rect width="5.187" height="5.011" transform="translate(38.669 71.166)" fill="#f2f2f2"/><circle cx="1.224" cy="1.224" r="1.224" transform="translate(43.745 80.402)" fill="#ffd563"/><rect width="38.068" height="31.946" transform="translate(53.874 59.364)" fill="#3f3d56"/><path d="M184.921,202.9H92.2l6.182-12.925,1.384-2.894,1.81-3.785,1.384-2.894,1.6-3.353h73.053l.947,3.353.818,2.894,1.07,3.785.818,2.894Z" transform="translate(-78.508 -150.759)" fill="#3f3d56"/><rect width="1.336" height="8.237" transform="translate(55.21 72.61)" fill="#ffd563"/><rect width="1.336" height="1.002" transform="translate(55.21 73.835)" fill="#f2f2f2"/><rect width="1.336" height="1.002" transform="translate(55.21 78.621)" fill="#f2f2f2"/><rect width="3.228" height="8.237" transform="translate(57.214 72.61)" fill="#ffd563"/><rect width="3.228" height="1.002" transform="translate(57.214 73.835)" fill="#f2f2f2"/><rect width="3.228" height="1.002" transform="translate(57.214 78.621)" fill="#f2f2f2"/><rect width="1.336" height="8.237" transform="translate(61.221 72.61)" fill="#ffd563"/><rect width="1.336" height="1.002" transform="translate(61.221 73.835)" fill="#f2f2f2"/><rect width="1.336" height="1.002" transform="translate(61.221 78.621)" fill="#f2f2f2"/><rect width="1.336" height="8.237" transform="translate(63.225 72.61)" fill="#ffd563"/><rect width="1.336" height="1.002" transform="translate(63.225 73.835)" fill="#f2f2f2"/><rect width="1.336" height="1.002" transform="translate(63.225 78.621)" fill="#f2f2f2"/><rect width="1.336" height="8.237" transform="translate(64.598 73.11) rotate(-20.654)" fill="#ffd563"/><rect width="1.336" height="1.002" transform="translate(65.03 74.256) rotate(-20.654)" fill="#f2f2f2"/><rect width="1.336" height="1.002" transform="translate(66.718 78.735) rotate(-20.654)" fill="#f2f2f2"/><rect width="3.228" height="8.237" transform="translate(87.49 72.61)" fill="#ffd563"/><rect width="3.228" height="1.002" transform="translate(87.49 73.835)" fill="#f2f2f2"/><rect width="3.228" height="1.002" transform="translate(87.49 78.621)" fill="#f2f2f2"/><rect width="1.336" height="8.237" transform="translate(85.375 72.61)" fill="#ffd563"/><rect width="1.336" height="1.002" transform="translate(85.375 73.835)" fill="#f2f2f2"/><rect width="1.336" height="1.002" transform="translate(85.375 78.621)" fill="#f2f2f2"/><rect width="1.336" height="8.237" transform="translate(83.372 72.61)" fill="#ffd563"/><rect width="1.336" height="1.002" transform="translate(83.372 73.835)" fill="#f2f2f2"/><rect width="1.336" height="1.002" transform="translate(83.372 78.621)" fill="#f2f2f2"/><rect width="8.237" height="1.336" transform="translate(79.18 80.347) rotate(-69.346)" fill="#ffd563"/><rect width="1.002" height="1.336" transform="translate(81.3 74.723) rotate(-69.346)" fill="#f2f2f2"/><rect width="1.002" height="1.336" transform="translate(79.612 79.201) rotate(-69.346)" fill="#f2f2f2"/><rect width="38.068" height="0.779" transform="translate(53.874 80.847)" fill="#f2f2f2"/><rect width="7.013" height="8.237" transform="translate(70.46 72.61)" fill="#ffd563"/><rect width="3.562" height="1.558" transform="translate(72.185 74.391)" fill="#f2f2f2"/><rect width="0.668" height="7.124" transform="translate(72.575 59.364)" fill="#f2f2f2"/><circle cx="1.113" cy="1.113" r="1.113" transform="translate(71.795 65.375)" fill="#f2f2f2"/><path d="M233.143,202.522H155.337l1.384-2.894h75.6Z" transform="translate(-132.27 -169.984)" fill="#ffd563"/><path d="M216.718,247.5H133.831l1.384-2.894H215.9Z" transform="translate(-113.958 -208.28)" fill="#ffd563"/><path d="M817.111,262.223a14.762,14.762,0,0,0-.884,5.717,3.013,3.013,0,0,0,.5,1.424h0l-13.692,6.5s-6.187.641-4.643,3.342,7.141-1.351,7.141-1.351,14.668-2.123,15.826-4.246,1.93-11,1.93-11Z" transform="translate(-706.202 -239.739)" fill="#a0616a"/><path d="M922.029,208.937h2.895s2.123.386,2.7,4.246,1.158,4.825.579,4.825-7.527-.193-7.527-.386S922.029,208.937,922.029,208.937Z" transform="translate(-810.542 -194.365)" fill="#d0cde1"/><circle cx="14.85" cy="14.85" r="14.85" transform="translate(0 42.526)" fill="#ffd563"/><circle cx="12.771" cy="12.771" r="12.771" transform="translate(2.079 44.605)" opacity="0.1"/><path d="M260.667,461.3v-1.859a4.316,4.316,0,0,1-2.479-.81l.389-1.233a3.962,3.962,0,0,0,2.333.791,1.787,1.787,0,0,0,1.928-1.8c0-1.012-.632-1.638-1.831-2.19-1.652-.736-2.673-1.583-2.673-3.184a2.894,2.894,0,0,1,2.446-2.963v-1.859h1v1.785a3.941,3.941,0,0,1,2.106.644l-.405,1.215a3.579,3.579,0,0,0-2.041-.626,1.555,1.555,0,0,0-1.717,1.583c0,.957.6,1.435,2.009,2.1,1.669.773,2.511,1.73,2.511,3.368a3.08,3.08,0,0,1-2.56,3.128V461.3Z" transform="translate(-246.429 -396.385)" fill="#f2f2f2"/></g></svg>