<svg xmlns="http://www.w3.org/2000/svg" width="127.782" height="93.174" viewBox="0 0 127.782 93.174"><rect width="93.939" height="60.163" transform="translate(0.04 0.053)" fill="#e6e6e6"/><rect width="88.566" height="49.057" transform="translate(2.726 7.599)" fill="#fff"/><rect width="93.939" height="3.991" fill="#ffd563"/><circle cx="0.74" cy="0.74" r="0.74" transform="translate(2.226 1.301)" fill="#fff"/><circle cx="0.74" cy="0.74" r="0.74" transform="translate(5.034 1.301)" fill="#fff"/><circle cx="0.74" cy="0.74" r="0.74" transform="translate(7.841 1.301)" fill="#fff"/><rect width="17.322" height="18.793" transform="translate(13.623 11.634)" fill="#e6e6e6"/><rect width="17.322" height="18.793" transform="translate(38.348 11.634)" fill="#e6e6e6"/><rect width="17.322" height="18.793" transform="translate(63.073 11.634)" fill="#e6e6e6"/><rect width="17.322" height="18.793" transform="translate(13.623 33.829)" fill="#e6e6e6"/><rect width="17.322" height="18.793" transform="translate(38.348 33.829)" fill="#e6e6e6"/><rect width="17.322" height="18.793" transform="translate(63.073 33.829)" fill="#e6e6e6"/><path d="M443.056,388.251,446.221,387l.368,6.256a6.905,6.905,0,0,1,.442,2.65s.147,1.251-.221,1.325a6.1,6.1,0,0,1-1.472.147c-.074-.074-.074-.294-.074-.294a2.052,2.052,0,0,0-.81,1.1s-3.091.957-3.165.074,1.546-1.619,1.546-1.619l1.251-1.914Z" transform="translate(-400.521 -349.593)" fill="#fff"/><path d="M489.025,388.251,492.19,387l.368,6.256a6.905,6.905,0,0,1,.442,2.65s.147,1.251-.221,1.325a6.1,6.1,0,0,1-1.472.147c-.074-.074-.074-.294-.074-.294a2.052,2.052,0,0,0-.81,1.1s-3.091.957-3.165.074,1.546-1.619,1.546-1.619l1.251-1.914Z" transform="translate(-439.792 -349.593)" fill="#fff"/><path d="M464.623,228.3s-.674,1.883.107,2.732l-.651,2.237s2.313,6.939,1.652,7.908c0,0-2.467,1.234-7.4-.441l2-7.776-.286-3.282.4-1.542.881-.088s-.529,1.982.441,2.291,1.915-2.241,1.915-2.241Z" transform="translate(-415.081 -213.8)" fill="#3f3d56"/><path d="M287.921,239.768l.85.348,4.059-5.335,1.276,6.262.85-.155c.546-5.4.99-10.906.445-13.51l-3.151-.135-1.43,4.561-.7,3.093Z" transform="translate(-269.501 -213.113)" fill="#fff"/><path d="M635.693,227.875s-1.161,1.614-1.1,2.265.793,11.267.793,11.267l1.727.085-.51-7.643.425-2.067,1.047,9.625,2.123.057-1.9-12.484-.368-1.1Z" transform="translate(-565.656 -213.653)" fill="#fff"/><path d="M623.561,397.783a2.4,2.4,0,0,0-1.347-.678,7.238,7.238,0,0,0-1.573-.3l-.589-.469-1.809.939-1.017-.692-.472.168a9.04,9.04,0,0,0-1.466.174c-.284.01-.646.028-1.052.059-1.42.109-1.53,3.788-1.53,3.788a5.807,5.807,0,0,1,2.056-.43l.384,4.4a20.357,20.357,0,0,1,6.192.51l1.007-3.459,2.344-.912A8.927,8.927,0,0,0,623.561,397.783Z" transform="translate(-546.965 -357.567)" fill="#3f3d56"/><path d="M289.505,384.9a1.975,1.975,0,0,0-1.11-.558,5.963,5.963,0,0,0-1.3-.249l-.485-.386-1.49.774-.838-.57-.389.138a7.461,7.461,0,0,0-1.208.143c-.234.008-.532.023-.867.049-1.17.09-1.26,3.121-1.26,3.121a4.784,4.784,0,0,1,1.694-.355l.316,8.875a16.772,16.772,0,0,1,5.1.42l.829-8.1,1.932-.751A7.359,7.359,0,0,0,289.505,384.9Z" transform="translate(-263.214 -346.778)" fill="#fff"/><path d="M482.353,531.418l-11.718,2.4-.267-.027-10.3-1.039V519.7l12.606-2.131,9.144,1.066,0,.058v.027Z" transform="translate(-393.037 -442.157)" fill="#e6e6e6"/><path d="M542.73,538.01l-11.718,2.4-.267-.027V527l11.456-1.718Z" transform="translate(-453.413 -448.749)" opacity="0.1"/><path d="M481.824,518.72l0,0-11.453,1.688-10.3-.711,12.606-2.131,9.144,1.066,0,.058Z" transform="translate(-393.037 -442.157)" opacity="0.05"/><rect width="7.139" height="3.351" transform="matrix(0.998, 0.065, -0.065, 0.998, 68.452, 82.098)" fill="#fff"/><rect width="3.788" height="1.166" transform="matrix(0.998, 0.065, -0.065, 0.998, 70.053, 83.297)" fill="#ffd563"/><path d="M591.353,531.418l-11.718,2.4-.267-.027-10.3-1.039V519.7l12.606-2.131,9.144,1.066,0,.058v.027Z" transform="translate(-486.155 -442.157)" fill="#ffd563"/><path d="M651.73,538.01l-11.718,2.4-.267-.027V527l11.456-1.718Z" transform="translate(-546.532 -448.749)" opacity="0.1"/><path d="M590.824,518.72l0,0-11.452,1.688-10.3-.711,12.606-2.131,9.144,1.066,0,.058Z" transform="translate(-486.155 -442.157)" opacity="0.05"/><rect width="7.139" height="3.351" transform="matrix(0.998, 0.065, -0.065, 0.998, 84.333, 82.098)" fill="#fff"/><rect width="3.788" height="1.166" transform="matrix(0.998, 0.065, -0.065, 0.998, 85.934, 83.297)" fill="#ffd563"/><path d="M926.514,295.884s2.067,5.341-1.723,5.341,5.858,5.341,9.648,2.24,1.551-3.273,1.551-3.273-5,.517-4.824-3.963Z" transform="translate(-812.836 -271.752)" fill="#ffb8b8"/><circle cx="6.093" cy="6.093" r="6.093" transform="translate(110.277 13.553)" fill="#2f2e41"/><path d="M882.527,448.422l-6.547,16.884s-3.273,5.169-2.067,10.337,4.52,14.576,4.52,14.576,2.5.637,2.331-1.6.107-13.1-2.477-16.027l10.442-11.935.345,13.611a76.974,76.974,0,0,0-.517,8.959c.172,2.757.517,7.408.517,7.408l2.068-.345s2.789-12.69,2.445-16.825c0,0,6.4-20.091-.146-24.915Z" transform="translate(-769.883 -402.065)" fill="#2f2e41"/><path d="M900.894,724.412s-.843-.215-.94.559-1.87,4.211-.019,4.383,2.492-1.56,2.8-2.777.428-1.287.686-1.521.875-1.511.1-1.609a1.711,1.711,0,0,1-1.169-.857S902.111,724.722,900.894,724.412Z" transform="translate(-791.625 -636.285)" fill="#2f2e41"/><path d="M979.824,730.39s-1.563-.223-1.452.335-.223,2.9,0,3.127.67.67.67,1.005.112,1.452,2.01,1.117a1.584,1.584,0,0,0,1.34-2.233c-.112-.223-1.452-1.34-1.34-2.01S980.494,729.943,979.824,730.39Z" transform="translate(-859.284 -642.861)" fill="#2f2e41"/><circle cx="4.22" cy="4.22" r="4.22" transform="translate(112.225 17.967)" fill="#ffb8b8"/><path d="M919.252,321.589s1.472,2.912-2.965,3a4.557,4.557,0,0,1-3.656-2.157c-.395-.7-.494.267-1.132.2a6.61,6.61,0,0,0-3.654.981.729.729,0,0,0-.356.855c.876,2.906,3.377,16.884,3.763,17.645.986,1.943,11.656-1.311,11.656-1.311.146-5.288-1.773-12.687,1.6-18.067A6.431,6.431,0,0,0,919.252,321.589Z" transform="translate(-798.769 -293.581)" fill="#575a89"/><path d="M777.936,120.506l-3.092-1.62-4.27.663-.883,3.9,2.2-.085.614-1.434v1.41l1.015-.039.589-2.282.368,2.43,3.607-.074Z" transform="translate(-657.543 -101.564)" fill="#2f2e41"/><circle cx="2.459" cy="2.459" r="2.459" transform="translate(114.233 10.239)" fill="#2f2e41"/><path d="M936.729,197.857a2.459,2.459,0,0,1,2.084-2.43,2.459,2.459,0,1,0,0,4.861A2.459,2.459,0,0,1,936.729,197.857Z" transform="translate(-823.137 -185.908)" fill="#2f2e41"/><path d="M746.353,402.418l-11.718,2.4-.267-.027-10.3-1.039V390.7l12.606-2.131,9.144,1.066,0,.058v.027Z" transform="translate(-618.571 -331.953)" fill="#e6e6e6"/><path d="M806.73,409.01l-11.718,2.4-.267-.027V398l11.456-1.718Z" transform="translate(-678.948 -338.545)" opacity="0.1"/><path d="M745.824,389.72l0,0-11.452,1.687-10.3-.711,12.606-2.131,9.144,1.066,0,.058Z" transform="translate(-618.571 -331.953)" opacity="0.05"/><rect width="7.139" height="3.351" transform="matrix(0.998, 0.065, -0.065, 0.998, 106.918, 63.302)" fill="#fff"/><rect width="3.788" height="1.166" transform="matrix(0.998, 0.065, -0.065, 0.998, 108.518, 64.502)" fill="#ffd563"/><path d="M896.253,510.457s-4.307,3.446-2.412,4.652,4.135-4.652,4.135-4.652Z" transform="translate(-786.725 -455.061)" fill="#ffb8b8"/><path d="M898.875,335.119c-.223-.251-3.04,1.185-2.623,3.06l.2,12.987s-1.034,10.682,1.551,10.682,2.279.359,2.624-.5.437-8.159.437-8.159Z" transform="translate(-789.16 -305.246)" fill="#575a89"/><path d="M1005.95,502.457s2.24,5.858,4.135,4.652-2.412-4.652-2.412-4.652Z" transform="translate(-882.91 -448.227)" fill="#ffb8b8"/><path d="M1000.957,345.332s-1.073,7.152-.729,8.014.04.5,2.624.5,1.551-10.682,1.551-10.682l.2-12.987c.418-1.874-2.4-3.311-2.623-3.06L999.5,335.57Z" transform="translate(-877.4 -298.412)" fill="#575a89"/></svg>