<svg xmlns="http://www.w3.org/2000/svg" width="149.034" height="111.286" viewBox="0 0 149.034 111.286"><ellipse cx="19.218" cy="2.494" rx="19.218" ry="2.494" transform="translate(110.599 106.298)" fill="#3f3d56"/><rect width="58.017" height="36.194" transform="translate(0 4.526)" fill="#f2f2f2"/><rect width="58.017" height="36.194" transform="translate(3.659 1)" fill="none" stroke="#3f3d56" stroke-miterlimit="10" stroke-width="2"/><path d="M294.845,98.453A12.508,12.508,0,0,0,286,77.1V89.608Z" transform="translate(-253.266 -70.577)" fill="#3f3d56"/><path d="M204.5,77.1a12.51,12.51,0,0,0-5.984,23.495L204.5,89.608Z" transform="translate(-171.768 -70.577)" fill="#ffd563"/><path d="M255.86,179.945l-8.845-8.845-5.984,10.986a12.515,12.515,0,0,0,14.828-2.142Z" transform="translate(-214.281 -152.069)" fill="#575a89"/><rect width="2.395" height="2.395" transform="translate(5.855 29.676)" fill="#ffd563"/><rect width="2.395" height="2.395" transform="translate(9.315 29.676)" fill="#3f3d56"/><rect width="2.395" height="2.395" transform="translate(12.774 29.676)" fill="#575a89"/><rect width="9.847" height="0.399" transform="translate(47.239 30.208)" fill="#3f3d56"/><rect width="9.847" height="0.399" transform="translate(47.239 31.406)" fill="#3f3d56"/><rect width="9.847" height="0.399" transform="translate(47.239 32.603)" fill="#3f3d56"/><rect width="33" height="36.194" transform="translate(18.23 54.958)" fill="#f2f2f2"/><rect width="33" height="36.194" transform="translate(21.557 51.499)" fill="none" stroke="#3f3d56" stroke-miterlimit="10" stroke-width="2"/><rect width="1.779" height="1.779" transform="translate(23.287 83.609)" fill="#ffd563"/><rect width="1.779" height="1.779" transform="translate(25.857 83.609)" fill="#3f3d56"/><rect width="1.779" height="1.779" transform="translate(28.427 83.609)" fill="#575a89"/><rect width="6.919" height="0.281" transform="translate(43.247 84.382)" fill="#3f3d56"/><rect width="6.919" height="0.281" transform="translate(43.247 85.224)" fill="#3f3d56"/><rect width="6.919" height="0.281" transform="translate(43.247 86.065)" fill="#3f3d56"/><path d="M326,463.1v2.927a8.782,8.782,0,0,1,6.21,14.992l2.07,2.07A11.71,11.71,0,0,0,326,463.1Z" transform="translate(-287.943 -405.214)" fill="#3f3d56"/><path d="M288.118,599.839l-2.07-2.07a8.78,8.78,0,0,1-11.524.781l-1.772,2.331A11.709,11.709,0,0,0,288.118,599.839Z" transform="translate(-241.781 -521.963)" fill="#575a89"/><path d="M240.923,474.81a8.782,8.782,0,0,1,8.782-8.782V463.1a11.71,11.71,0,0,0-7.085,21.033l1.772-2.331A8.767,8.767,0,0,1,240.923,474.81Z" transform="translate(-211.648 -405.214)" fill="#ffd563"/><path d="M926.144,172.265s-.543,4.033.853,4.5,1.008,4.033,1.008,4.033l-4.188,3.18-3.723.31-.931-4.809.543-1.241s2.094-2.482.62-5.042S926.144,172.265,926.144,172.265Z" transform="translate(-802.176 -152.637)" fill="#ffb9b9"/><path d="M926.144,172.265s-.543,4.033.853,4.5,1.008,4.033,1.008,4.033l-4.188,3.18-3.723.31-.931-4.809.543-1.241s2.094-2.482.62-5.042S926.144,172.265,926.144,172.265Z" transform="translate(-802.176 -152.637)" opacity="0.1"/><path d="M838.381,276.237l-4.887,11.48s-3.8-2.172-6.05-1.939S822.4,283.3,822.4,283.3l2.792-13.5,5.2-14.349,7.214,4.576Z" transform="translate(-718.291 -225.195)" fill="#575a89"/><path d="M838.381,276.237l-4.887,11.48s-3.8-2.172-6.05-1.939S822.4,283.3,822.4,283.3l2.792-13.5,5.2-14.349,7.214,4.576Z" transform="translate(-718.291 -225.195)" opacity="0.1"/><path d="M937.446,739.665v3.723h-3.49l.543-4.344Z" transform="translate(-809.678 -639.836)" fill="#575a89"/><path d="M1008.173,695.328l2.559,1.551-1.862,4.266-1.939-.233-1.862-2.637Z" transform="translate(-871.329 -601.936)" fill="#575a89"/><path d="M911.48,403.505l4.576,10.781s-1.629,11.945-1.551,12.953a3.646,3.646,0,0,1-.233,2.249,3.2,3.2,0,0,0-.31,2.4c.233,1.008.31,1.4.155,1.784s-1.241,16.366-1.784,17.452.31,2.87-.233,3.025-4.576-.233-4.809-1.163.776-3.18.233-3.878.078-25.829-.7-27.535-9.308-3.258-9.308-3.258-.776-4.964-.31-5.74,1.086-5.662,1.086-5.662Z" transform="translate(-783.014 -353.549)" fill="#2f2e41"/><path d="M967.076,794.213s2.172-2.56,4.033,0c0,0,.155,3.025,1.474,3.646s.7,3.1-1.163,3.18-4.266.388-4.344-.62.31-1.629-.388-1.939,0-2.094,0-2.094Z" transform="translate(-843.108 -691.28)" fill="#2f2e41"/><path d="M909.291,502.786s-.078,5.585-.62,6.36-.853,1.241-.543,2.094.776,2.4.543,2.715.233,1.939.233,1.939a20.556,20.556,0,0,1,8.765,8.842s2.87,4.731,3.723,4.809,1.862-.543,1.4,1.241-2.249,4.111-3.568,3.878-2.327-2.482-2.327-2.482-10.316-10.471-11.4-10.781-4.188-2.792-4.731-4.344-1.706-14.5-1.163-15.358a10.151,10.151,0,0,1,2.56-2.017Z" transform="translate(-785.091 -436.93)" fill="#2f2e41"/><path d="M1055.277,727.6s4.809.155,4.886,1.319-2.017,8.067-1.706,9.7-2.4,5.352-4.188,4.576-.388-4.809-.388-4.809-1.784-5.507-1.474-5.585,3.413-1.008,3.258-1.939S1055.277,727.6,1055.277,727.6Z" transform="translate(-917.658 -634.515)" fill="#2f2e41"/><circle cx="4.809" cy="4.809" r="4.809" transform="translate(115.552 14.16)" fill="#ffb9b9"/><path d="M893.023,212.546s-2.637,2.792-4.576,2.327-2.947-3.8-2.947-3.8l-3.49-.621s-2.482,11.014-2.482,12.1,2.482,12.8,2.482,14.892-2.017,3.335,1.086,3.258,1.629-1.086,6.128-1.163,5.2.931,6.128-.7a12.976,12.976,0,0,1,2.327-2.87l-1.629-5.74-.233-16.211s-1.989-3.878-2.895-3.568C892.921,210.452,893.411,212.158,893.023,212.546Z" transform="translate(-767.814 -186.169)" fill="#ffd563"/><path d="M969.383,205.411s4.135.453,5.3,1.307,4.421,1.474,4.344,2.094-3.8,9.463-3.8,9.463-1.706,6.981-.233,8.61,6.981,19.391,6.05,20.865-3.878-4.5-3.878-4.5-3.956-12.8-6.128-14.97-2.327-13.884-2.327-14.427S969.383,205.411,969.383,205.411Z" transform="translate(-845.13 -181.815)" fill="#575a89"/><path d="M826.1,203.514s-5.1-1.92-6.88-1.144a12.494,12.494,0,0,1-2.87.931l-.62,7.6s-.233,10.937-2.249,13.574-3.335,13.651-3.025,14.737-.543,2.947.776,2.482,4.964-11.169,4.964-11.169,0-6.128,2.172-7.834,5.74-8.765,5.895-10.471a52.872,52.872,0,0,1,1.629-6.438Z" transform="translate(-707.891 -179.018)" fill="#575a89"/><path d="M1000.361,385.013s-2.327,4.344-2.637,5.119-2.482,6.05-5.585,4.887,3.025-6.826,3.025-6.826l1.4-4.731S1000.206,382.686,1000.361,385.013Z" transform="translate(-864.681 -336.065)" fill="#ffb9b9"/><path d="M766.605,207.179h-.776a1.786,1.786,0,0,0-1.706-.233c-.931.388-3.1-.155-3.1.078s-2.4-.7-3.413-.233a21.82,21.82,0,0,1-4.654.621s-1.474,3.723-.465,4.421,2.482.155,3.18.7,2.017-.078,2.482.62,2.172,1.939,2.56,1.163-.388-1.474,1.241-.62a10.892,10.892,0,0,0,4.188.853Z" transform="translate(-657.374 -182.897)" fill="#575a89"/><path d="M915.022,114.127a5.173,5.173,0,0,0-1.985.124,2.723,2.723,0,0,1-1.943-.224,3.072,3.072,0,0,1-.9-1.153,1.326,1.326,0,0,1-.194-.509,1.185,1.185,0,0,1,.391-.849,6.418,6.418,0,0,1,3.946-1.9,6.819,6.819,0,0,1,3.6.44,4.714,4.714,0,0,1,2.527,2.536,7.2,7.2,0,0,1,.378,1.811,5.413,5.413,0,0,1,.026,1.372,5.893,5.893,0,0,1-.266.994l-.731,2.206a1.453,1.453,0,0,1-.287.569.5.5,0,0,1-.582.128,1.813,1.813,0,0,0,.026-.732.618.618,0,0,0-.487-.491c-.269-.029-.5.18-.755.27a.929.929,0,0,1-1.172-.7,3.441,3.441,0,0,0-.068-.759c-.112-.278-.409-.423-.632-.622a1.455,1.455,0,0,1-.4-1.512c.06-.184.228-.267.195-.478C915.665,114.375,915.257,114.181,915.022,114.127Z" transform="translate(-794.227 -98.711)" fill="#2f2e41"/><rect width="33" height="36.194" transform="translate(67.465 32.337)" fill="#f2f2f2"/><rect width="33" height="36.194" transform="translate(70.791 28.877)" fill="none" stroke="#3f3d56" stroke-miterlimit="10" stroke-width="2"/><path d="M556,227.5v27.678h26.746" transform="translate(-482.015 -196.36)" fill="none" stroke="#3f3d56" stroke-miterlimit="10" stroke-width="2"/><rect width="5.988" height="9.581" transform="translate(75.449 49.103)" fill="#575a89"/><rect width="5.988" height="16.101" transform="translate(84.098 42.583)" fill="#3f3d56"/><rect width="5.988" height="23.686" transform="translate(92.747 34.998)" fill="#ffd563"/><rect width="1.779" height="1.779" transform="translate(73.586 60.988)" fill="#ffd563"/><rect width="1.779" height="1.779" transform="translate(76.156 60.988)" fill="#3f3d56"/><rect width="1.779" height="1.779" transform="translate(78.726 60.988)" fill="#575a89"/><rect width="6.919" height="0.281" transform="translate(93.546 61.761)" fill="#3f3d56"/><rect width="6.919" height="0.281" transform="translate(93.546 62.603)" fill="#3f3d56"/><rect width="6.919" height="0.281" transform="translate(93.546 63.444)" fill="#3f3d56"/><path d="M748.436,212.267a2.472,2.472,0,0,1,2.312,2.751,3.875,3.875,0,0,1-2.26,3.471c-2.87,1.086-2.715-5.042-2.172-5.274A3.361,3.361,0,0,1,748.436,212.267Z" transform="translate(-652.055 -187.757)" fill="#ffb9b9"/><path d="M1013.543,227.854l.853.414s1.862,3.8,1.939,4.344,1.319,2.56.853,3.1-1.163,1.939-.7,2.482a9.455,9.455,0,0,1,1.551,3.49c0,.776-1.163,2.87-.388,3.1s.543,3.258.388,3.49-2.172,4.033-2.172,4.033-.388-4.344-4.188-2.56c0,0-.31-2.172,0-2.327s1.086-1.086.465-1.241-1.474-2.017-1.318-2.249.543-.543.155-.776a2.778,2.778,0,0,1-.62-1.784c.078-.233-.853-1.319-.853-1.319Z" transform="translate(-880.5 -201.271)" fill="#575a89"/></svg>