<svg xmlns="http://www.w3.org/2000/svg" width="148.164" height="85.751" viewBox="0 0 148.164 85.751"><path d="M388.2,213.156c-.384,0-.772-.006-1.153-.018l.009-.277c.547.017,1.105.022,1.655.014l0,.277Q388.459,213.156,388.2,213.156Zm2.18-.064-.016-.276c.548-.032,1.1-.078,1.649-.135l.029.275c-.551.058-1.109.1-1.662.136Zm-5-.043c-.552-.042-1.111-.1-1.659-.165l.034-.275c.544.067,1.1.122,1.646.164Zm8.313-.3-.042-.274c.544-.083,1.093-.178,1.63-.285l.054.272c-.541.107-1.094.2-1.642.287Zm-11.622-.1c-.546-.092-1.1-.2-1.637-.316l.059-.271c.536.117,1.083.222,1.625.314Zm14.891-.549-.067-.269c.534-.132,1.071-.278,1.6-.434l.079.266c-.529.157-1.071.3-1.609.437Zm-18.149-.159c-.535-.142-1.074-.3-1.6-.466l.083-.264c.523.165,1.058.321,1.589.462Zm21.345-.789-.091-.262c.518-.18,1.04-.375,1.55-.579l.1.257C401.211,210.768,400.685,210.964,400.163,211.146Zm-24.528-.217c-.52-.191-1.043-.4-1.555-.613l.107-.255c.508.214,1.027.419,1.543.608Zm27.62-1.02-.115-.252c.5-.226,1-.468,1.487-.718l.126.247c-.493.252-1,.5-1.5.723Zm-30.7-.276c-.5-.238-1-.491-1.491-.753l.131-.244c.486.259.983.511,1.479.747Zm33.661-1.238-.137-.24c.477-.272.954-.559,1.416-.851l.148.234C407.179,207.831,406.7,208.12,406.217,208.394Zm-36.606-.335c-.475-.283-.951-.581-1.415-.886l.152-.231c.46.3.932.6,1.4.879Zm39.42-1.445-.159-.227c.45-.314.9-.643,1.334-.978l.169.22c-.438.337-.891.668-1.344.985Zm-42.207-.39c-.447-.325-.893-.665-1.327-1.011l.173-.216c.43.344.874.681,1.317,1Zm44.848-1.64-.178-.212c.419-.354.836-.722,1.24-1.1l.188.2c-.407.376-.827.747-1.249,1.1Zm-47.455-.441c-.416-.365-.83-.744-1.229-1.127l.192-.2c.4.38.807.757,1.22,1.119Zm49.9-1.822-.2-.194c.386-.391.768-.8,1.136-1.2l.206.185c-.37.411-.755.819-1.144,1.213Zm-52.307-.486c-.382-.4-.759-.817-1.121-1.234l.209-.181c.359.414.733.826,1.113,1.224Zm54.539-1.991-.214-.176c.349-.425.693-.863,1.022-1.3l.222.166C417.05,198.973,416.7,199.415,416.352,199.843Zm-56.724-.526c-.343-.433-.681-.881-1-1.33l.225-.162c.321.446.656.89,1,1.32Zm58.722-2.146-.229-.155c.309-.455.611-.923.9-1.391l.236.145c-.29.472-.595.944-.906,1.4Zm-60.667-.558c-.3-.463-.6-.939-.878-1.415l.238-.141c.279.473.572.945.871,1.4Zm62.414-2.286-.242-.134c.266-.481.524-.975.768-1.469l.248.123c-.246.5-.506.995-.774,1.48Zm-64.1-.582c-.258-.488-.509-.989-.744-1.488l.25-.118c.234.5.482.993.739,1.477Zm65.583-2.411-.254-.111c.221-.5.433-1.02.63-1.534l.259.1c-.2.518-.412,1.038-.635,1.546Zm-67-.6c-.212-.51-.416-1.031-.6-1.549l.26-.095c.187.515.389,1.032.6,1.538Zm68.2-2.522-.263-.087c.173-.521.336-1.053.485-1.582l.267.075C423.111,187.153,422.947,187.69,422.773,188.214Zm-69.337-.607c-.165-.528-.32-1.067-.46-1.6l.268-.07c.139.532.293,1.067.457,1.59Zm70.24-2.6-.27-.063c.124-.534.237-1.079.337-1.62l.272.05c-.1.545-.215,1.094-.34,1.632Zm-71.086-.622c-.116-.541-.22-1.092-.311-1.638l.273-.045c.09.542.194,1.089.308,1.626Zm71.689-2.656-.275-.038c.075-.542.137-1.1.187-1.644l.276.025c-.05.553-.113,1.11-.188,1.656Zm-72.235-.632c-.065-.548-.119-1.106-.159-1.659l.276-.02c.04.549.093,1.1.158,1.647Zm72.536-2.687-.277-.012c.025-.549.037-1.105.037-1.654h.277c0,.553-.013,1.114-.037,1.667ZM351.8,177.77c-.009-.34-.014-.686-.014-1.029q0-.32.005-.638l.277,0q-.005.316-.005.633c0,.341,0,.685.014,1.022Zm72.538-1.416c-.006-.549-.024-1.106-.055-1.654l.276-.015c.031.553.049,1.113.055,1.667Zm-72.2-1.9-.276-.017c.035-.553.082-1.112.142-1.661l.275.03C352.216,173.35,352.169,173.9,352.135,174.454Zm72.02-1.4c-.055-.546-.124-1.1-.2-1.642l.274-.04c.081.548.15,1.1.206,1.654Zm-71.664-1.886-.274-.042c.085-.548.183-1.1.293-1.641l.271.055C352.673,170.073,352.575,170.621,352.491,171.165Zm71.18-1.387c-.106-.54-.225-1.084-.354-1.616l.269-.065c.13.536.251,1.084.357,1.628Zm-70.524-1.856-.269-.067c.134-.536.283-1.077.443-1.607l.265.08C353.428,166.854,353.28,167.39,353.147,167.923Zm69.741-1.359c-.154-.527-.323-1.058-.5-1.577l.262-.09c.18.523.35,1.058.506,1.589ZM354.1,164.75l-.261-.092c.184-.524.383-1.049.591-1.563l.257.1C354.48,163.708,354.283,164.23,354.1,164.75Zm67.712-1.315c-.2-.51-.418-1.021-.643-1.52l.253-.114c.226.5.444,1.018.648,1.532Zm-66.469-1.759-.252-.116c.231-.5.477-1.009.732-1.5l.246.127C355.817,160.675,355.572,161.176,355.343,161.676Zm65.114-1.251c-.248-.489-.51-.979-.78-1.456l.241-.136c.272.481.537.974.786,1.467Zm-63.594-1.693-.24-.138c.276-.48.568-.96.866-1.427l.233.149C357.426,157.779,357.137,158.256,356.863,158.732Zm61.968-1.182c-.293-.466-.6-.93-.911-1.379l.227-.158c.314.453.623.921.918,1.39Zm-60.185-1.609-.226-.16c.319-.453.653-.9.992-1.341l.219.17C359.293,155.044,358.962,155.491,358.645,155.941Zm58.3-1.107c-.334-.437-.681-.872-1.033-1.291l.212-.178c.355.423.7.861,1.041,1.3Zm-56.272-1.509-.211-.18c.358-.421.732-.84,1.11-1.245l.2.189C361.4,152.492,361.03,152.907,360.674,153.325Zm54.148-1.026c-.372-.4-.758-.806-1.147-1.193l.2-.2c.392.389.781.794,1.155,1.2Zm-51.891-1.393-.194-.2c.4-.387.806-.77,1.218-1.138l.184.207c-.409.365-.816.745-1.209,1.13Zm49.544-.939c-.408-.37-.829-.734-1.251-1.084l.177-.213c.426.352.85.72,1.26,1.092ZM365.4,148.7l-.175-.215c.428-.349.871-.693,1.316-1.022l.165.222c-.441.327-.881.669-1.306,1.015Zm44.527-.846c-.44-.331-.892-.656-1.345-.966l.156-.229c.456.312.912.639,1.355.973Zm-41.871-1.123-.155-.23c.458-.308.93-.61,1.4-.9l.144.237c-.469.285-.937.585-1.392.891Zm39.137-.746c-.468-.29-.949-.572-1.428-.839l.135-.242c.484.269.968.554,1.439.846Zm-36.315-.971-.133-.243c.485-.265.982-.523,1.478-.765l.122.249C371.853,144.5,371.359,144.754,370.878,145.017Zm33.421-.642c-.493-.246-1-.483-1.5-.7l.112-.253c.507.224,1.015.463,1.512.71Zm-30.454-.809-.11-.254c.507-.22,1.025-.43,1.541-.626l.1.259C374.861,143.139,374.347,143.348,373.844,143.566Zm27.423-.531c-.513-.2-1.038-.389-1.56-.564l.088-.263c.526.177,1.055.368,1.572.568Zm-24.334-.642-.086-.263c.526-.173,1.063-.335,1.6-.483l.074.267c-.529.147-1.061.308-1.584.479Zm21.193-.412c-.528-.151-1.067-.291-1.6-.417l.064-.269c.538.127,1.081.268,1.614.42Zm-18.006-.473-.062-.27c.54-.123,1.089-.236,1.633-.334l.049.272C381.2,141.275,380.656,141.386,380.12,141.509Zm14.786-.286c-.539-.1-1.088-.191-1.633-.268l.038-.274c.548.077,1.1.168,1.645.27Zm-11.53-.3-.037-.274c.548-.073,1.106-.135,1.657-.183l.024.276c-.547.048-1.1.109-1.644.181Zm8.255-.159c-.545-.051-1.1-.091-1.65-.118l.013-.277c.554.027,1.113.067,1.663.119Zm-4.959-.129-.012-.277c.509-.021,1.028-.032,1.542-.032h.125v.277H388.2c-.51,0-1.025.011-1.53.032Z" transform="translate(-312.073 -140.325)" fill="#3f3d56"/><path d="M860.628,600.919a1.662,1.662,0,1,1,1.662-1.662A1.662,1.662,0,0,1,860.628,600.919Zm0-3.046a1.385,1.385,0,1,0,1.385,1.385A1.385,1.385,0,0,0,860.628,597.873Z" transform="translate(-749.028 -534.281)" fill="#2f2e41"/><path d="M300.217,198.495v9.094a.318.318,0,0,1-.317.317h-.226v47.375a4.943,4.943,0,0,1-4.943,4.943h-29.6a4.942,4.942,0,0,1-4.942-4.943V209.567h-.163a.224.224,0,0,1-.224-.223v-5.176a.224.224,0,0,1,.224-.224h.163v-1.95h-.165a.235.235,0,0,1-.234-.235v-5.105a.235.235,0,0,1,.234-.234h.165v-2.661h-.168a.207.207,0,0,1-.208-.208v-2.786a.209.209,0,0,1,.208-.209h.168v-5.641a4.942,4.942,0,0,1,4.942-4.942h29.6a4.943,4.943,0,0,1,4.943,4.942v13.262h.226A.318.318,0,0,1,300.217,198.495Z" transform="translate(-232.813 -174.484)" fill="#3f3d56"/><rect width="5.514" height="1.12" rx="0.56" transform="translate(43.381 8.025)" fill="#e6e8ec"/><circle cx="0.635" cy="0.635" r="0.635" transform="translate(49.729 7.949)" fill="#e6e8ec"/><path d="M315.413,203.21v69.8a3.136,3.136,0,0,1-3.136,3.135H283.94a3.131,3.131,0,0,1-3.136-3.135v-69.8a3.136,3.136,0,0,1,3.136-3.136h4.241v.544a2.582,2.582,0,0,0,2.582,2.582h14.411a2.582,2.582,0,0,0,2.582-2.582v-.544h4.519A3.135,3.135,0,0,1,315.413,203.21Z" transform="translate(-250.919 -191.801)" fill="#e5bf58"/><rect width="32.123" height="15.646" transform="translate(31.269 31.154)" opacity="0.2"/><rect width="32.123" height="15.646" transform="translate(81.669 13.292)" fill="#f2f2f2"/><rect width="32.123" height="15.646" transform="translate(31.269 54.87)" fill="#3f3d56"/><circle cx="2.769" cy="2.769" r="2.769" transform="translate(57.299 14.023)" fill="#fff"/><path d="M427.32,113.436h-1.157v-1.157h-.178v1.157h-1.157v.178h1.157v1.157h.178v-1.157h1.157Z" transform="translate(-366.005 -96.733)" fill="#3f3d56"/><rect width="32.123" height="15.646" transform="translate(78.069 11.215)" fill="#3f3d56"/><path d="M730.781,258.473a9.991,9.991,0,0,0,3.721,5.034,8.6,8.6,0,0,0-3.045-11.257A9.991,9.991,0,0,0,730.781,258.473Z" transform="translate(-638.372 -236.753)" fill="#fff"/><path d="M705.4,277.218a9.992,9.992,0,0,1,2.589,5.7,8.6,8.6,0,0,1-8.356-8.134A9.992,9.992,0,0,1,705.4,277.218Z" transform="translate(-611.759 -256.166)" fill="#e5bf58"/><path d="M382.623,575.473a9.991,9.991,0,0,0,3.721,5.034A8.6,8.6,0,0,0,383.3,569.25,9.992,9.992,0,0,0,382.623,575.473Z" transform="translate(-338.421 -509.86)" fill="#fff"/><path d="M357.245,594.218a9.991,9.991,0,0,1,2.589,5.7,8.6,8.6,0,0,1-8.356-8.134A9.992,9.992,0,0,1,357.245,594.218Z" transform="translate(-311.808 -529.273)" fill="#e5bf58"/><path d="M410.511,575.473a9.991,9.991,0,0,1-3.721,5.034,8.6,8.6,0,0,1,3.045-11.257A9.991,9.991,0,0,1,410.511,575.473Z" transform="translate(-358.659 -509.86)" fill="#fff"/><path d="M414.417,594.218a9.991,9.991,0,0,0-2.589,5.7,8.6,8.6,0,0,0,8.356-8.134A9.992,9.992,0,0,0,414.417,594.218Z" transform="translate(-363.801 -529.273)" fill="#e5bf58"/><path d="M663.786,459.878h-2.733v-2.733h2.733Zm-2.523-.21h2.313v-2.313h-2.313Z" transform="translate(-578.518 -413.277)" fill="#3f3d56"/><path d="M150.837,574.928l-1.864-2,2-1.864,1.864,2Zm-1.567-1.988,1.578,1.691,1.691-1.578-1.578-1.691Z" transform="translate(-137.341 -511.424)" fill="#2f2e41"/><circle cx="1.396" cy="1.396" r="1.396" transform="translate(13.577 17.706)" fill="#3f3d56"/><path d="M148.019,257.228a4.031,4.031,0,1,1,4.031-4.031A4.031,4.031,0,0,1,148.019,257.228Zm0-7.753a3.721,3.721,0,1,0,3.721,3.721,3.721,3.721,0,0,0-3.721-3.721Z" transform="translate(-133.047 -234.095)" fill="#2f2e41"/><rect width="143.977" height="0.277" transform="translate(0 85.474)" fill="#3f3d56"/><rect width="32.123" height="15.646" transform="translate(38.192 28.662)" fill="#3f3d56"/><rect width="0.277" height="10.303" transform="translate(54.135 34.026)" fill="#fff"/><circle cx="1.457" cy="1.457" r="1.457" transform="translate(52.817 32.708)" fill="#e5bf58"/><path d="M429.1,407.051s-.208-4.477-4.475-3.956" transform="translate(-374.823 -366.674)" fill="#fff"/><path d="M515.445,430.188l-17.819,5.575L475.46,421.775h0l-.073-.045-.012-.008-.176-.111-2.11-1.328c0-.036.009-.071.016-.1a.955.955,0,0,1,.217-.443,1.065,1.065,0,0,1,.125-.125h0c.02-.017.041-.034.063-.05s.045-.033.069-.048a3.439,3.439,0,0,1,1.664-.425,7.922,7.922,0,0,1,3.995.866c2.492,1.26,7.847,3.74,8.682,2.221,1.095-1.991-11.348-24.19-11.348-24.19-1.024-2.633-.275-3.493.2-3.764l.041-.023a1.165,1.165,0,0,1,.154-.066.72.72,0,0,1,.085-.025l.023,0,1.651,2.194.025.033.089.118.027.036,10.005,13.3c15.33-8.262,20.606,13.837,20.606,13.837Z" transform="translate(-416.579 -358.964)" fill="#fbbebe"/><path d="M501.885,396.514a.433.433,0,0,1-.4.244.636.636,0,0,1-.163-.022,2.206,2.206,0,0,1-1.12-1.06,2.283,2.283,0,0,1-.368-1.447,1.161,1.161,0,0,1,.154-.066.706.706,0,0,1,.085-.025,1.8,1.8,0,0,0,.3,1.438,2.034,2.034,0,0,0,1,.967.271.271,0,0,0,.373-.216l.025.033.089.118Z" transform="translate(-439.603 -358.994)" fill="#3f3d56"/><path d="M476.836,580.134l-.012-.008-.176-.11a1.986,1.986,0,0,0-.689-1.215,2.119,2.119,0,0,0-1.189-.66,1.058,1.058,0,0,1,.125-.125h0c.02-.017.041-.034.063-.05a2.6,2.6,0,0,1,1.139.693A1.966,1.966,0,0,1,476.836,580.134Z" transform="translate(-418.029 -517.369)" fill="#3f3d56"/><path d="M938.9,470.275a57.964,57.964,0,0,1,2.538,22.827,55.07,55.07,0,0,1-14.166-42.633A57.972,57.972,0,0,1,938.9,470.275Z" transform="translate(-807.678 -407.526)" fill="#e5bf58"/><path d="M1032.123,470.275a57.961,57.961,0,0,0-2.538,22.827,55.071,55.071,0,0,0,14.166-42.633A57.96,57.96,0,0,0,1032.123,470.275Z" transform="translate(-895.821 -407.526)" fill="#e5bf58"/><path d="M1001.086,455.329a57.964,57.964,0,0,1-4.313,22.559,55.07,55.07,0,0,1-.95-44.915A57.953,57.953,0,0,1,1001.086,455.329Z" transform="translate(-863.209 -392.452)" fill="#3f3d56"/><circle cx="1.214" cy="1.214" r="1.214" transform="translate(131.875 50.701)" fill="#e5bf58"/><circle cx="0.675" cy="0.675" r="0.675" transform="translate(130.054 60.954)" fill="#e5bf58"/><circle cx="0.675" cy="0.675" r="0.675" transform="translate(121.824 54.276)" fill="#3f3d56"/><circle cx="0.675" cy="0.675" r="0.675" transform="translate(145.635 47.733)" fill="#3f3d56"/><circle cx="0.675" cy="0.675" r="0.675" transform="translate(125.332 60.617)" fill="#3f3d56"/><circle cx="0.675" cy="0.675" r="0.675" transform="translate(139.497 56.705)" fill="#3f3d56"/><circle cx="0.675" cy="0.675" r="0.675" transform="translate(125.737 70.533)" fill="#3f3d56"/><circle cx="0.675" cy="0.675" r="0.675" transform="translate(140.172 66.688)" fill="#3f3d56"/><circle cx="0.675" cy="0.675" r="0.675" transform="translate(133.629 67.362)" fill="#e5bf58"/></svg>