<svg xmlns="http://www.w3.org/2000/svg" width="180.894" height="103.938" viewBox="0 0 180.894 103.938">
  <g id="productsone" transform="translate(0 0)">
    <circle id="Ellipse_34" data-name="Ellipse 34" cx="9.408" cy="9.408" r="9.408" transform="translate(29.787 73.446)" fill="#f2f2f2"/>
    <circle id="Ellipse_35" data-name="Ellipse 35" cx="9.408" cy="9.408" r="9.408" transform="translate(31.317 72.069)" fill="#ffd563"/>
    <rect id="Rectangle_113" data-name="Rectangle 113" width="116.396" height="0.318" transform="translate(48.301 71.067)" fill="#3f3d56"/>
    <path id="Path_218" data-name="Path 218" d="M161.551,136.87H120.238v-.852H101.5v.852H60.021a2.8,2.8,0,0,0-2.795,2.795v56.571a2.8,2.8,0,0,0,2.795,2.795h101.53a2.8,2.8,0,0,0,2.795-2.795V139.665a2.8,2.8,0,0,0-2.794-2.794Z" transform="translate(-52.969 -133.909)" fill="#3f3d56"/>
    <rect id="Rectangle_114" data-name="Rectangle 114" width="99.626" height="56.199" transform="translate(8.004 7.9)" fill="#ffd563"/>
    <circle id="Ellipse_36" data-name="Ellipse 36" cx="1.022" cy="1.022" r="1.022" transform="translate(56.71 4.324)" fill="#ffd563"/>
    <path id="Path_219" data-name="Path 219" d="M121.541,105.953H50.406v-56.2Z" transform="translate(-42.402 -41.854)" opacity="0.1"/>
    <circle id="Ellipse_37" data-name="Ellipse 37" cx="9.576" cy="9.576" r="9.576" transform="translate(14.016 40.741)" fill="#f2f2f2"/>
    <rect id="Rectangle_115" data-name="Rectangle 115" width="9.306" height="1.945" transform="translate(80.978 38.209)" fill="#3f3d56"/>
    <rect id="Rectangle_116" data-name="Rectangle 116" width="31.808" height="0.833" transform="translate(69.727 23.069)" fill="#3f3d56"/>
    <rect id="Rectangle_117" data-name="Rectangle 117" width="31.808" height="0.833" transform="translate(69.727 25.708)" fill="#3f3d56"/>
    <rect id="Rectangle_118" data-name="Rectangle 118" width="31.808" height="0.833" transform="translate(69.727 28.347)" fill="#3f3d56"/>
    <rect id="Rectangle_119" data-name="Rectangle 119" width="31.808" height="0.833" transform="translate(69.727 30.986)" fill="#3f3d56"/>
    <rect id="Rectangle_120" data-name="Rectangle 120" width="31.808" height="0.833" transform="translate(69.727 33.625)" fill="#3f3d56"/>
    <rect id="Rectangle_121" data-name="Rectangle 121" width="3.889" height="3.889" transform="translate(97.645 9.04)" fill="#f2f2f2"/>
    <path id="Path_220" data-name="Path 220" d="M656.178,190.508h-4.723v-4.723h4.723Zm-4.517-.205h4.312V185.99H651.66Z" transform="translate(-552.837 -175.772)" fill="#3f3d56"/>
    <path id="Path_221" data-name="Path 221" d="M144.589,515.513h-9.723v-.7a.139.139,0,0,0-.139-.139h-3.334a.139.139,0,0,0-.139.139v.7h-2.084v-.7a.139.139,0,0,0-.139-.139H125.7a.139.139,0,0,0-.139.139v.7h-2.083v-.7a.139.139,0,0,0-.139-.139H120a.139.139,0,0,0-.139.139v.7h-2.083v-.7a.139.139,0,0,0-.139-.139h-3.334a.139.139,0,0,0-.139.139v.7h-2.083v-.7a.139.139,0,0,0-.139-.139h-3.334a.139.139,0,0,0-.139.139v.7h-2.083v-.7a.139.139,0,0,0-.139-.139h-3.334a.139.139,0,0,0-.139.139v.7H100.7v-.7a.139.139,0,0,0-.139-.139H74.445a.139.139,0,0,0-.139.139v.7H72.223v-.7a.139.139,0,0,0-.139-.139H68.75a.139.139,0,0,0-.139.139v.7H66.528v-.7a.139.139,0,0,0-.139-.139H63.056a.139.139,0,0,0-.139.139v.7H60.833v-.7a.139.139,0,0,0-.139-.139H57.361a.139.139,0,0,0-.139.139v.7H55.138v-.7a.139.139,0,0,0-.139-.139H51.666a.139.139,0,0,0-.139.139v.7H49.444v-.7a.139.139,0,0,0-.139-.139H45.971a.139.139,0,0,0-.139.139v.7H43.749v-.7a.139.139,0,0,0-.139-.139H40.276a.139.139,0,0,0-.139.139v.7H33.748a3.334,3.334,0,0,0-3.334,3.334v1.507a3.334,3.334,0,0,0,3.334,3.333H144.589a3.334,3.334,0,0,0,3.334-3.334v-1.507a3.334,3.334,0,0,0-3.334-3.334Z" transform="translate(-30.415 -452.435)" fill="#3f3d56"/>
    <path id="Path_222" data-name="Path 222" d="M129.654,349.409a12.068,12.068,0,1,1,12.068-12.068,12.068,12.068,0,0,1-12.068,12.068Zm0-23.819a11.751,11.751,0,1,0,11.751,11.751A11.751,11.751,0,0,0,129.654,325.59Z" transform="translate(-103.744 -293.109)" fill="#3f3d56"/>
    <rect id="Rectangle_122" data-name="Rectangle 122" width="40.493" height="0.318" transform="translate(93.081 5.167)" fill="#3f3d56"/>
    <rect id="Rectangle_123" data-name="Rectangle 123" width="116.396" height="0.318" transform="translate(64.498 89.011)" fill="#3f3d56"/>
    <rect id="Rectangle_124" data-name="Rectangle 124" width="40.493" height="0.318" transform="translate(30.595 103.62)" fill="#3f3d56"/>
    <rect id="Rectangle_125" data-name="Rectangle 125" width="4" height="5" transform="translate(75 87)" fill="#ffd563"/>
    <path id="Path_223" data-name="Path 223" d="M517.814,656.127h-5.4v-5.4h5.4Zm-5.164-.235h4.929v-4.929H512.65Z" transform="translate(-435.876 -566.885)" fill="#3f3d56"/>
    <rect id="Rectangle_126" data-name="Rectangle 126" width="4" height="3" transform="translate(127 4)" fill="#ffd563"/>
    <path id="Path_224" data-name="Path 224" d="M842.814,128.127h-5.4v-5.4h5.4Zm-5.164-.235h4.929v-4.929H837.65Z" transform="translate(-709.268 -122.728)" fill="#3f3d56"/>
    <rect id="Rectangle_127" data-name="Rectangle 127" width="4" height="5" transform="translate(171 87)" fill="#ffd563"/>
    <path id="Path_225" data-name="Path 225" d="M1124.809,656.127h-5.4v-5.4h5.4Zm-5.164-.235h4.93v-4.929h-4.93Z" transform="translate(-946.484 -566.885)" fill="#3f3d56"/>
    <path id="Path_226" data-name="Path 226" d="M906,268.147h-.378V257.8a5.989,5.989,0,0,0-5.989-5.989H877.715a5.989,5.989,0,0,0-5.989,5.989v56.766a5.989,5.989,0,0,0,5.989,5.989h21.922a5.989,5.989,0,0,0,5.989-5.989V275.513H906Z" transform="translate(-738.13 -231.314)" fill="#3f3d56"/>
    <path id="Path_227" data-name="Path 227" d="M913.108,268.054v56.683a4.473,4.473,0,0,1-4.472,4.473H886.608a4.472,4.472,0,0,1-4.472-4.472V268.054a4.472,4.472,0,0,1,4.471-4.472h2.673a2.125,2.125,0,0,0,1.967,2.927h12.559a2.124,2.124,0,0,0,1.967-2.927h2.862a4.472,4.472,0,0,1,4.472,4.472Z" transform="translate(-746.887 -241.216)" fill="#ffd563"/>
    <rect id="Rectangle_128" data-name="Rectangle 128" width="6.562" height="1.945" transform="translate(147.453 59.741)" fill="#3f3d56"/>
    <rect id="Rectangle_129" data-name="Rectangle 129" width="22.428" height="0.833" transform="translate(139.52 44.601)" fill="#3f3d56"/>
    <rect id="Rectangle_130" data-name="Rectangle 130" width="22.428" height="0.833" transform="translate(139.52 47.24)" fill="#3f3d56"/>
    <rect id="Rectangle_131" data-name="Rectangle 131" width="22.428" height="0.833" transform="translate(139.52 49.879)" fill="#3f3d56"/>
    <rect id="Rectangle_132" data-name="Rectangle 132" width="22.428" height="0.833" transform="translate(139.52 52.518)" fill="#3f3d56"/>
    <rect id="Rectangle_133" data-name="Rectangle 133" width="22.428" height="0.833" transform="translate(139.52 55.157)" fill="#3f3d56"/>
    <rect id="Rectangle_134" data-name="Rectangle 134" width="3.889" height="3.889" transform="translate(147.629 33.534)" fill="#f2f2f2"/>
    <path id="Path_228" data-name="Path 228" d="M969.474,340.032v4.723H974.2v-4.723Zm4.518,4.518h-4.313v-4.313h4.313Z" transform="translate(-820.357 -305.526)" fill="#3f3d56"/>
    <path id="Path_229" data-name="Path 229" d="M913.108,480.961v6.053a4.473,4.473,0,0,1-4.473,4.473H886.608a4.472,4.472,0,0,1-4.472-4.472V456.492l18.558,14.661.318.251,3.452,2.727.322.256Z" transform="translate(-746.887 -403.492)" opacity="0.1"/>
    <circle id="Ellipse_38" data-name="Ellipse 38" cx="6.966" cy="6.966" r="6.966" transform="translate(141.863 72.226)" fill="#f2f2f2"/>
    <path id="Path_230" data-name="Path 230" d="M277.4,630.9a13.815,13.815,0,1,1,13.815-13.815A13.815,13.815,0,0,1,277.4,630.9Zm0-27.313a13.5,13.5,0,1,0,13.5,13.5A13.5,13.5,0,0,0,277.4,603.59Z" transform="translate(-226.56 -526.965)" fill="#3f3d56"/>
    <path id="Path_231" data-name="Path 231" d="M934.319,562.739a8.734,8.734,0,1,1,8.734-8.734A8.734,8.734,0,0,1,934.319,562.739Zm0-17.15a8.416,8.416,0,1,0,8.416,8.416,8.416,8.416,0,0,0-8.416-8.416Z" transform="translate(-783.438 -478.175)" fill="#3f3d56"/>
  </g>
</svg>
